<svg xmlns="http://www.w3.org/2000/svg" width="64.007" height="64" viewBox="0 0 64.007 64"><g transform="translate(0 -0.028)"><path d="M52.007.028H5.074A4.987,4.987,0,0,0,.4,3.154,4.987,4.987,0,0,0,1.5,8.671L55.364,62.537a4.992,4.992,0,0,0,3.547,1.491,5.131,5.131,0,0,0,1.971-.4,4.984,4.984,0,0,0,3.125-4.669V12.028A12,12,0,0,0,52.007.028Z" transform="translate(0 0)" fill="#d9f9a5"/><path d="M10.744-11.636V0H8.619L3.557-7.324H3.472V0H1.011V-11.636H3.17L8.193-4.318h.1v-7.318ZM12.773,0V-11.636h7.841v2.028H15.233v2.773H20.21v2.028H15.233v2.778h5.4V0Zm12.42,0-3.33-11.636h2.688l1.926,8.085h.1L28.7-11.636H31l2.119,8.1h.1l1.926-8.1h2.688L34.506,0h-2.4L29.892-7.608H29.8L27.591,0Z" transform="translate(23.061 14.836) rotate(45)" fill="#0e1214"/></g></svg>
