<svg xmlns="http://www.w3.org/2000/svg" xmlns:xlink="http://www.w3.org/1999/xlink" width="120" height="120" viewBox="0 0 120 120">
  <defs>
    <clipPath id="clip-path">
      <rect id="Rectangle_2345" data-name="Rectangle 2345" width="95.081" height="88.981" fill="#8eb84a"/>
    </clipPath>
  </defs>
  <g id="Group_4088" data-name="Group 4088" transform="translate(4298 -679)">
    <rect id="Rectangle_2654" data-name="Rectangle 2654" width="120" height="120" transform="translate(-4298 679)" fill="none"/>
    <g id="Group_3351" data-name="Group 3351" transform="translate(-4777 -7207.112)">
      <g id="Group_3350" data-name="Group 3350" transform="translate(491 7901.622)">
        <rect id="Rectangle_2343" data-name="Rectangle 2343" width="3.803" height="21.701" transform="translate(8.529 3.579)" fill="#8eb84a"/>
        <g id="Group_3349" data-name="Group 3349" transform="translate(0 0)">
          <g id="Group_3348" data-name="Group 3348" clip-path="url(#clip-path)">
            <path id="Path_8053" data-name="Path 8053" d="M11.448,98.953a7.594,7.594,0,0,1-7.591-7.829L5.511,41.67l3.8.126L7.658,91.246A3.757,3.757,0,0,0,8.726,94a3.874,3.874,0,0,0,5.449,0,3.762,3.762,0,0,0,1.062-2.765L13.4,41.8l3.8-.141,1.84,49.429a7.591,7.591,0,0,1-7.587,7.861" transform="translate(-0.922 -9.972)" fill="#8eb84a"/>
            <rect id="Rectangle_2344" data-name="Rectangle 2344" width="9.217" height="3.803" transform="translate(79.394 46.445)" fill="#8eb84a"/>
            <path id="Path_8054" data-name="Path 8054" d="M109.627,88.981a8.264,8.264,0,0,1-6-2.444A6.1,6.1,0,0,1,101.885,82l1.206-36.573V1.9a1.9,1.9,0,0,1,2.9-1.621c.355.219,8.749,5.521,12.032,20.314a68.518,68.518,0,0,1,1.441,11.821,6.816,6.816,0,0,1-3.055,5.913c-1.077.73-2.007,1.813-.754,4.311a1.878,1.878,0,0,1,.2.778l1.516,38.608a6.088,6.088,0,0,1-1.739,4.511,8.252,8.252,0,0,1-6,2.446m-2.734-82.83V45.463a.6.6,0,0,1,0,.063l-1.206,36.64a2.351,2.351,0,0,0,.7,1.753,5.047,5.047,0,0,0,6.488,0,2.339,2.339,0,0,0,.7-1.72l-1.5-38.243c-1.614-3.539-.825-6.72,2.2-8.774a3.044,3.044,0,0,0,1.393-2.615,64.354,64.354,0,0,0-1.355-11.148c-1.726-7.781-5.01-12.615-7.412-15.269" transform="translate(-24.384 0)" fill="#8eb84a"/>
            <path id="Path_8055" data-name="Path 8055" d="M55.06,74.624A26.419,26.419,0,1,1,81.479,48.2,26.45,26.45,0,0,1,55.06,74.624m0-49.035A22.616,22.616,0,1,0,77.675,48.2,22.641,22.641,0,0,0,55.06,25.588" transform="translate(-6.855 -5.214)" fill="#8eb84a"/>
            <path id="Path_8057" data-name="Path 8057" d="M10.535,34.261A10.547,10.547,0,0,1,0,23.724V2.5H3.8V23.724a6.733,6.733,0,1,0,13.466,0V2.5h3.8V23.724A10.548,10.548,0,0,1,10.535,34.261" transform="translate(0 -0.598)" fill="#8eb84a"/>
            <path id="Path_8058" data-name="Path 8058" d="M52.6,103.283A40.412,40.412,0,0,1,18.35,84.469l3.208-2.042a36.774,36.774,0,0,0,61.525.844l3.15,2.128A40.551,40.551,0,0,1,52.6,103.283" transform="translate(-4.392 -19.729)" fill="#8eb84a"/>
            <path id="Path_8059" data-name="Path 8059" d="M84.411,23.2a36.767,36.767,0,0,0-57.7-4.164L23.9,16.477a40.57,40.57,0,0,1,63.662,4.594Z" transform="translate(-5.72 -0.763)" fill="#8eb84a"/>
          </g>
        </g>
      </g>
    </g>
  </g>
</svg>
