<svg xmlns="http://www.w3.org/2000/svg" xmlns:xlink="http://www.w3.org/1999/xlink" width="120" height="120" viewBox="0 0 120 120">
  <defs>
    <clipPath id="clip-path">
      <rect id="Rectangle_2350" data-name="Rectangle 2350" width="92.673" height="92.157" fill="#8eb84a"/>
    </clipPath>
  </defs>
  <g id="Group_4091" data-name="Group 4091" transform="translate(3714 -338)">
    <rect id="Rectangle_2652" data-name="Rectangle 2652" width="120" height="120" transform="translate(-3714 338)" fill="none"/>
    <g id="Group_3353" data-name="Group 3353" transform="translate(-3700 352)">
      <g id="Group_3352" data-name="Group 3352" clip-path="url(#clip-path)">
        <path id="Path_8060" data-name="Path 8060" d="M24.095,94.042C12.415,94.042,0,90.3,0,83.377,0,76.09,13.852,72.352,25.908,72.741c11.072.342,22.281,4.105,22.281,10.636,0,6.925-12.415,10.665-24.095,10.665m0-17.623c-12.632,0-20.388,4.052-20.388,6.958s7.756,6.958,20.388,6.958,20.388-4.051,20.388-6.958c0-3-7.676-6.59-18.69-6.93-.559-.019-1.128-.027-1.7-.027" transform="translate(0 -18.805)" fill="#8eb84a"/>
        <path id="Path_8061" data-name="Path 8061" d="M24.095,114.682C12.415,114.682,0,110.942,0,104.017V87.1H3.707v16.92c0,2.907,7.756,6.958,20.388,6.958s20.388-4.051,20.388-6.958V87.1H48.19v17.568a1.83,1.83,0,0,1-.2.833c-1.633,5.977-13.079,9.184-23.9,9.184" transform="translate(0 -22.525)" fill="#8eb84a"/>
        <path id="Path_8062" data-name="Path 8062" d="M84.095,72.643C72.415,72.643,60,68.9,60,61.98c0-1.665.773-4.12,4.451-6.368l1.934,3.163c-1.727,1.054-2.677,2.192-2.677,3.2,0,2.9,7.756,6.956,20.388,6.956s20.388-4.051,20.388-6.956c0-1.054-1.074-2.28-2.947-3.365l1.861-3.207c3.962,2.3,4.793,4.842,4.793,6.572,0,6.924-12.415,10.663-24.095,10.663" transform="translate(-15.517 -14.33)" fill="#8eb84a"/>
        <path id="Path_8063" data-name="Path 8063" d="M84.095,97.762C72.415,97.762,60,94.022,60,87.1h3.707c0,2.907,7.756,6.958,20.388,6.958S104.483,90,104.483,87.1h3.707c0,6.925-12.415,10.665-24.095,10.665" transform="translate(-15.517 -22.525)" fill="#8eb84a"/>
        <path id="Path_8064" data-name="Path 8064" d="M84.095,108.779C72.415,108.779,60,105.043,60,98.114V64.272h3.707V98.114c0,2.907,7.756,6.958,20.388,6.958s20.388-4.051,20.388-6.958V64.272h3.707V98.114c0,6.929-12.415,10.665-24.095,10.665" transform="translate(-15.517 -16.622)" fill="#8eb84a"/>
        <path id="Path_8065" data-name="Path 8065" d="M83.852,47.278A23.775,23.775,0,0,1,60,23.639a23.853,23.853,0,0,1,47.7,0A23.775,23.775,0,0,1,83.852,47.278m0-43.571A20.063,20.063,0,0,0,63.707,23.639a20.147,20.147,0,0,0,40.291,0A20.063,20.063,0,0,0,83.852,3.707" transform="translate(-15.517)" fill="#8eb84a"/>
        <path id="Path_8066" data-name="Path 8066" d="M91.334,38.973H87.016A6.409,6.409,0,0,1,80.583,32.6H84.29a2.7,2.7,0,0,0,2.726,2.662h4.319a2.663,2.663,0,1,0,0-5.325H87.016a6.37,6.37,0,1,1,0-12.738h4.319a6.409,6.409,0,0,1,6.433,6.369H94.061a2.7,2.7,0,0,0-2.726-2.662H87.016a2.663,2.663,0,1,0,0,5.325h4.319a6.37,6.37,0,1,1,0,12.739" transform="translate(-20.84 -4.449)" fill="#8eb84a"/>
        <rect id="Rectangle_2346" data-name="Rectangle 2346" width="3.707" height="7.028" transform="translate(66.48 9.432)" fill="#8eb84a"/>
        <rect id="Rectangle_2347" data-name="Rectangle 2347" width="3.707" height="7.028" transform="translate(66.48 30.817)" fill="#8eb84a"/>
        <rect id="Rectangle_2348" data-name="Rectangle 2348" width="3.707" height="25" transform="translate(12.965 22.65)" fill="#8eb84a"/>
        <path id="Path_8067" data-name="Path 8067" d="M21.581,36.465l-3.86-3.913-3.861,3.913-2.639-2.6,5.181-5.25a1.909,1.909,0,0,1,2.639,0l5.181,5.25Z" transform="translate(-2.902 -7.263)" fill="#8eb84a"/>
        <rect id="Rectangle_2349" data-name="Rectangle 2349" width="3.707" height="25" transform="translate(31.5 22.65)" fill="#8eb84a"/>
        <path id="Path_8068" data-name="Path 8068" d="M46.593,36.483l-3.879-3.932-3.879,3.932L36.2,33.88l5.2-5.269a1.91,1.91,0,0,1,2.639,0l5.2,5.269Z" transform="translate(-9.361 -7.263)" fill="#8eb84a"/>
        <path id="Path_8069" data-name="Path 8069" d="M121.427,61.323H117.72c0-1.658-2.565-3.6-6.536-4.943l1.191-3.512c5.838,1.979,9.052,4.981,9.052,8.455" transform="translate(-28.754 -13.673)" fill="#8eb84a"/>
        <path id="Path_8070" data-name="Path 8070" d="M63.707,61.367H60c0-3.394,3.084-6.351,8.686-8.328l1.234,3.5c-3.834,1.352-6.214,3.2-6.214,4.831" transform="translate(-15.517 -13.717)" fill="#8eb84a"/>
      </g>
    </g>
  </g>
</svg>
