<svg xmlns="http://www.w3.org/2000/svg" xmlns:xlink="http://www.w3.org/1999/xlink" width="120" height="120" viewBox="0 0 120 120">
  <defs>
    <clipPath id="clip-path">
      <rect id="Rectangle_2355" data-name="Rectangle 2355" width="87.342" height="86.093" fill="#8eb84a"/>
    </clipPath>
  </defs>
  <g id="Group_4086" data-name="Group 4086" transform="translate(4298 -1012)">
    <rect id="Rectangle_2656" data-name="Rectangle 2656" width="120" height="120" transform="translate(-4298 1012)" fill="none"/>
    <g id="Group_3456" data-name="Group 3456" transform="translate(-4282 1026)">
      <g id="Group_3354" data-name="Group 3354" clip-path="url(#clip-path)">
        <path id="Path_8071" data-name="Path 8071" d="M90.786,40.277c-.035,0-.069,0-.106,0l-.355-.021a1.776,1.776,0,0,1-1.672-1.772c0-3.273-3.127-5.937-6.97-5.937s-6.968,2.664-6.968,5.937a1.776,1.776,0,1,1-3.552,0c0-3.273-3.127-5.937-6.97-5.937s-6.97,2.664-6.97,5.937a1.776,1.776,0,1,1-3.552,0c0-3.273-3.127-5.937-6.97-5.937s-6.969,2.664-6.969,5.937a1.776,1.776,0,0,1-3.5.4,18.757,18.757,0,0,1-.3-2,6.907,6.907,0,0,0-6.715-4.341c-3.843,0-6.97,2.664-6.97,5.937a1.776,1.776,0,0,1-1.671,1.772l-.356.021a1.793,1.793,0,0,1-1.875-1.647q-.076-1.056-.076-2.128c0-18.2,16.68-33.006,37.185-33.006S92.632,18.3,92.632,36.5q0,1.072-.077,2.128a1.775,1.775,0,0,1-1.769,1.651M64.193,28.992a10.868,10.868,0,0,1,8.746,4.218,10.861,10.861,0,0,1,8.744-4.218,11.165,11.165,0,0,1,6.873,2.31C85.847,18.026,72.947,7.8,57.223,7.083v24.3a11.153,11.153,0,0,1,6.97-2.386M53.671,8.9C42.129,15.672,39.566,25.438,39.259,31.778a11.351,11.351,0,0,1,14.412-.4ZM49.208,7.551C35.552,9.8,24.786,19.3,22.337,31.3a11.39,11.39,0,0,1,13.491-.193A30.636,30.636,0,0,1,49.208,7.551" transform="translate(-5.289 -1.011)" fill="#8eb84a"/>
        <path id="Path_8072" data-name="Path 8072" d="M89.509,39.227l-3.46-.8c.19-.822,4.362-20.26-16.545-30.558L71.072,4.68C94.559,16.25,89.563,39,89.509,39.227" transform="translate(-20.131 -1.355)" fill="#8eb84a"/>
        <rect id="Rectangle_2351" data-name="Rectangle 2351" width="3.552" height="66.472" transform="translate(48.382)" fill="#8eb84a"/>
        <path id="Path_8073" data-name="Path 8073" d="M81.588,93.2H24.735a10.9,10.9,0,0,1-9.317-5.184L.867,64.555a5.754,5.754,0,1,1,9.78-6.067L25.04,81.7H81.588a5.754,5.754,0,1,1,0,11.507M5.753,59.321a2.2,2.2,0,0,0-1.868,3.361L18.436,86.148a7.362,7.362,0,0,0,6.3,3.5H81.588a2.2,2.2,0,1,0,0-4.4H24.736a2.982,2.982,0,0,1-2.557-1.426L7.629,60.361a2.206,2.206,0,0,0-1.877-1.04M25.2,81.953h0Z" transform="translate(0 -16.152)" fill="#8eb84a"/>
        <rect id="Rectangle_2352" data-name="Rectangle 2352" width="3.552" height="10.285" transform="translate(48.328 74.959)" fill="#8eb84a"/>
        <rect id="Rectangle_2353" data-name="Rectangle 2353" width="11.712" height="3.551" transform="translate(13.079 84.393) rotate(-61.405)" fill="#8eb84a"/>
        <rect id="Rectangle_2354" data-name="Rectangle 2354" width="3.553" height="11.311" transform="matrix(0.879, -0.478, 0.478, 0.879, 78.603, 76.155)" fill="#8eb84a"/>
      </g>
    </g>
  </g>
</svg>
