<svg xmlns="http://www.w3.org/2000/svg" xmlns:xlink="http://www.w3.org/1999/xlink" width="120" height="120" viewBox="0 0 120 120">
  <defs>
    <clipPath id="clip-path">
      <rect id="Rectangle_2358" data-name="Rectangle 2358" width="79.047" height="77.97" fill="#8eb84a"/>
    </clipPath>
  </defs>
  <g id="Group_4087" data-name="Group 4087" transform="translate(3714 -1012)">
    <rect id="Rectangle_2655" data-name="Rectangle 2655" width="120" height="120" transform="translate(-3714 1012)" fill="none"/>
    <g id="Group_3357" data-name="Group 3357" transform="translate(-3694 1030)">
      <g id="Group_3356" data-name="Group 3356" transform="translate(0 0)" clip-path="url(#clip-path)">
        <path id="Path_8074" data-name="Path 8074" d="M74.28,26.107H12.22a1.58,1.58,0,0,1-1.581-1.581V20.34a4.734,4.734,0,0,1,4.728-4.727H71.134a4.733,4.733,0,0,1,4.727,4.727v4.186a1.58,1.58,0,0,1-1.581,1.581M13.8,22.945H72.7v-2.6a1.568,1.568,0,0,0-1.565-1.565H15.367A1.568,1.568,0,0,0,13.8,20.34Z" transform="translate(-3.911 -5.74)" fill="#8eb84a"/>
        <path id="Path_8075" data-name="Path 8075" d="M66.251,13.035V9.873A3.356,3.356,0,1,0,62.87,6.519H59.708a6.544,6.544,0,1,1,6.543,6.517" transform="translate(-21.95 0)" fill="#8eb84a"/>
        <path id="Path_8076" data-name="Path 8076" d="M50.556,13.035A6.518,6.518,0,1,1,57.1,6.519H53.938a3.383,3.383,0,1,0-3.383,3.355Z" transform="translate(-16.179 0)" fill="#8eb84a"/>
        <path id="Path_8077" data-name="Path 8077" d="M59.332,80.773H53.809a7.421,7.421,0,0,1-7.44-7.384h3.162a4.256,4.256,0,0,0,4.278,4.222h5.523a4.222,4.222,0,1,0,0-8.444H53.809a7.384,7.384,0,1,1,0-14.767h5.523a7.42,7.42,0,0,1,7.44,7.383H63.61a4.254,4.254,0,0,0-4.278-4.221H53.809a4.222,4.222,0,1,0,0,8.444h5.523a7.384,7.384,0,1,1,0,14.767" transform="translate(-17.046 -19.998)" fill="#8eb84a"/>
        <rect id="Rectangle_2356" data-name="Rectangle 2356" width="3.162" height="6.778" transform="translate(37.941 30.786)" fill="#8eb84a"/>
        <rect id="Rectangle_2357" data-name="Rectangle 2357" width="3.162" height="6.776" transform="translate(37.941 57.613)" fill="#8eb84a"/>
        <path id="Path_8078" data-name="Path 8078" d="M59.1,87.972H19.95C9.209,87.972.453,79.014.016,67.58A22.2,22.2,0,0,1,4.325,53.5L5.642,51.73a29.742,29.742,0,0,0,5.327-22.677,1.582,1.582,0,0,1,1.559-1.847H66.415a1.693,1.693,0,0,1,1.26.56,1.624,1.624,0,0,1,.4,1.284A29.754,29.754,0,0,0,73.4,51.729L74.723,53.5A22.2,22.2,0,0,1,79.03,67.58C78.593,79.014,69.838,87.972,59.1,87.972m-44.752-57.6a32.85,32.85,0,0,1-6.17,23.25L6.861,55.387A19.032,19.032,0,0,0,3.175,67.46c.372,9.73,7.74,17.351,16.775,17.351H59.1c9.033,0,16.4-7.621,16.773-17.351a19.029,19.029,0,0,0-3.684-12.072l-1.319-1.769a32.859,32.859,0,0,1-6.17-23.25Z" transform="translate(0 -10.002)" fill="#8eb84a"/>
      </g>
    </g>
  </g>
</svg>
