<svg xmlns="http://www.w3.org/2000/svg" xmlns:xlink="http://www.w3.org/1999/xlink" width="180.042" height="171.845" viewBox="0 0 180.042 171.845"><defs><clipPath id="a"><rect width="180.042" height="171.845" fill="#969ea3"/></clipPath></defs><g clip-path="url(#a)"><path d="M0,148.683c.938-2.556,1.546-5.3,2.876-7.634a20.941,20.941,0,0,1,17.315-10.984c.228-.019.454-.071.945-.149v-2.2q0-44.036,0-88.071c0-6.394,2.7-10.075,8.828-12.1,3.05-1.009,6.077-2.089,9.141-3.056a1.608,1.608,0,0,0,1.332-1.843c-.06-4.678-.047-9.357-.019-14.035C40.447,3.517,43.853.045,48.81,0a8.439,8.439,0,0,1,8.452,8.667c.024,3.139,0,6.279,0,9.679,3.68-1.22,7.108-2.343,10.527-3.491,10.964-3.683,21.932-7.35,32.877-11.088A3.742,3.742,0,0,1,104.931,4.8q11.583,11.263,23.253,22.438a12.525,12.525,0,0,1,4.138,9.649c-.075,10.175-.034,20.351-.017,30.526,0,1.594-.3,2.96-2.107,3.343-1.876.4-3.21-.9-3.218-3.122-.019-5.673-.006-11.345-.007-17.018,0-4.8.137-9.6-.082-14.382a7.116,7.116,0,0,0-1.748-4.367c-6.361-6.385-12.908-12.586-19.4-18.843a2.886,2.886,0,0,0-.563-.3V77.911H107.2q21.272,0,42.543,0c6.53,0,9.881,3.319,9.881,9.777q0,20,0,40v2.352c1.337,0,2.6-.056,3.859.009a17.186,17.186,0,0,1,16.191,13.621c.089.391.241.768.363,1.151v21.758a7.712,7.712,0,0,1-5.978,5.264H5.978A8.291,8.291,0,0,1,0,166.932V148.683M99.638,67.622c-.741.226-1.3.381-1.839.563Q77.446,75,57.1,81.825c-4.263,1.429-8.5,2.946-12.8,4.237a3.858,3.858,0,0,1-3.028-.533,2.777,2.777,0,0,1-.632-2.614,4.4,4.4,0,0,1,2.435-1.941Q70.03,71.816,97.036,62.786c2.613-.878,2.614-.877,2.614-3.7V48.677c-.7.2-1.151.3-1.589.45Q75.639,56.646,53.219,64.171c-3.1,1.04-6.187,2.117-9.31,3.081a2.581,2.581,0,0,1-3.393-1.646,2.652,2.652,0,0,1,1.76-3.353c.538-.224,1.1-.394,1.652-.58Q71.007,52.581,98.1,43.524a1.89,1.89,0,0,0,1.578-2.216c-.095-2.16-.026-4.327-.026-6.49v-5.11c-.863.276-1.417.445-1.965.628Q76.918,37.289,56.152,44.244C52.11,45.6,48.079,46.986,44.021,48.29a2.618,2.618,0,0,1-3.472-1.514,2.677,2.677,0,0,1,1.78-3.49c.377-.156.768-.28,1.155-.41q25.67-8.606,51.339-17.214c1.549-.52,3.7-.667,4.453-1.757.811-1.169.346-3.246.364-4.928.033-2.963.009-5.926.009-9.085-.875.236-1.493.369-2.089.569Q64.59,21.508,31.623,32.568c-3.95,1.325-5.146,3.013-5.146,7.279q0,62.195,0,124.389v1.979H40.411v-2.022c0-5.614-.013-11.228,0-16.842.013-3.943,1.609-6.037,5.42-7.111q11.553-3.256,23.117-6.473c4.7-1.306,8.019,1.219,8.025,6.09q.014,12.281,0,24.562v1.789H99.534V105.5c-6.565,2.19-12.982,4.328-19.4,6.47-4.876,1.629-9.742,3.286-14.629,4.882a2.637,2.637,0,0,1-1.825-4.948,12.187,12.187,0,0,1,1.16-.4c11.13-3.739,22.254-7.494,33.4-11.191a1.708,1.708,0,0,0,1.433-1.968c-.084-2.219-.025-4.444-.025-6.666V86.539c-.792.256-1.287.411-1.78.576q-19.851,6.643-39.7,13.289c-4.6,1.539-9.179,3.117-13.786,4.622-2.464.805-4.58-.772-3.826-2.946A4.261,4.261,0,0,1,43,99.945c7.277-2.548,14.6-4.955,21.913-7.411Q81.525,86.953,98.125,81.34c.568-.193,1.436-.739,1.447-1.139.107-4.14.066-8.283.066-12.579m44.22,82.346c0-1.014-.024-1.83,0-2.644.232-6.719,3.18-11.857,9.068-15.184a2.378,2.378,0,0,0,1.434-2.413c-.044-14.029-.025-28.058-.03-42.088,0-3.307-1-4.313-4.269-4.314q-21.526-.006-43.052,0h-1.787v66.644Zm-38.7,16.245h38.589v-10.79H105.161Zm44.12-16.3h25.387c.5-5.941-1.442-10.477-5.827-12.891a13.179,13.179,0,0,0-14.305.428c-4.451,2.892-5.7,7.287-5.254,12.462m25.489,5.525H149.3v10.643c.207.105.309.2.411.2q11.751.031,23.5.044c1.1,0,1.562-.637,1.561-1.679v-9.21M61.445,141.394v24.832H71.512V138.615l-10.067,2.779m-5.587,24.862V142.971c-2.884.79-5.622,1.585-8.386,2.278a2.135,2.135,0,0,0-1.8,2.5c.071,5.669.027,11.338.034,17.007,0,.5.064,1,.1,1.5ZM21.046,135.422c-7.687-.235-16.419,8.131-15.268,14.525H21.046ZM5.269,155.4c0,3.088.04,6.005-.017,8.92-.03,1.541.671,2.059,2.134,2.038,3.516-.048,7.033-.015,10.549-.015h3.087V155.4ZM45.71,22.224c1.99-.67,3.8-1.256,5.585-1.9a1.015,1.015,0,0,0,.556-.742c0-3.958.044-7.92-.128-11.872-.067-1.528-1.511-2.37-3.2-2.288a2.652,2.652,0,0,0-2.789,2.562c-.074,4.653-.027,9.307-.027,14.245" transform="translate(0 0)" fill="#969ea3"/><path d="M118.179,337.5c-1.881-.041-2.862-.628-3.186-1.911a2.365,2.365,0,0,1,1.37-3.064c3.447-1.259,6.925-2.446,10.439-3.5a2.368,2.368,0,0,1,2.953,1.592,2.177,2.177,0,0,1-.915,3.041c-3.663,1.482-7.433,2.7-10.662,3.844" transform="translate(-74.481 -213.249)" fill="#969ea3"/><path d="M336.111,312.068c4.16,0,8.32-.014,12.48,0,3.023.012,4.851,1.735,4.951,4.714.065,1.927.064,3.86,0,5.788-.091,2.832-1.765,4.692-4.6,4.721q-12.83.132-25.661,0c-2.889-.03-4.469-1.818-4.539-4.719-.05-2.045-.06-4.095.023-6.138a4.3,4.3,0,0,1,4.516-4.357c4.277-.038,8.554-.01,12.831-.011m11.932,5.384H324.18v4.342h23.862Z" transform="translate(-206.632 -202.325)" fill="#969ea3"/><path d="M336.238,255.172c4.1,0,8.2-.013,12.3,0,3.2.012,4.973,1.772,5.034,4.986.03,1.578.012,3.157,0,4.736-.017,3.849-1.69,5.523-5.6,5.55-3.4.023-6.8.005-10.195.005q-6.5,0-13.007,0c-4.567-.005-6.031-1.444-6.034-5.931,0-1.7-.044-3.394.044-5.085a4.276,4.276,0,0,1,4.437-4.249c4.335-.041,8.671-.011,13.007-.013m-12.1,9.787h23.939v-4.422H324.137Z" transform="translate(-206.656 -165.437)" fill="#969ea3"/><path d="M327.45,384.783c-1.465,0-2.93.036-4.393-.01a4.211,4.211,0,0,1-4.238-4.059c-.109-2.332-.1-4.676,0-7.009a3.993,3.993,0,0,1,3.864-4.022c3.212-.146,6.44-.137,9.652.008a3.849,3.849,0,0,1,3.765,3.726,51.6,51.6,0,0,1,0,7.519c-.18,2.365-2.006,3.8-4.429,3.845-1.405.025-2.812,0-4.217,0m3.327-9.737h-6.569v4.367h6.569Z" transform="translate(-206.655 -239.617)" fill="#969ea3"/></g></svg>
