<svg xmlns="http://www.w3.org/2000/svg" width="217.728" height="227.904" viewBox="0 0 217.728 227.904">
  <g id="Group_6132" data-name="Group 6132" transform="translate(0.495 0.495)">
    <path id="Path_12" data-name="Path 12" d="M361.213,224.7V330.747a108.369,108.369,0,1,1-216.739,0" transform="translate(-144.475 -224.699)" fill="none" stroke="#3d403d" stroke-linecap="round" stroke-linejoin="round" stroke-width="0.989" stroke-dasharray="4"/>
    <circle id="Ellipse_4" data-name="Ellipse 4" cx="98" cy="98" r="98" transform="translate(10.041 8.205)" fill="#e5eaf4"/>
    <circle id="Ellipse_5" data-name="Ellipse 5" cx="87" cy="87" r="87" transform="translate(21.041 19.205)" fill="#fff"/>
    <path id="Path_20" data-name="Path 20" d="M191.706,329.287h36.76l-18.38,28.144Z" transform="translate(-101.717 -130.022)" fill="#e5eaf4"/>
    <g id="Group_6131" data-name="Group 6131" transform="translate(-2.303 5.395)">
      <g id="Group_253" data-name="Group 253" transform="translate(70.299 31.81)">
        <text id="JAPANESE_SE" data-name="JAPANESE SE" transform="translate(33 136.014)" fill="#3d403d" font-size="10" font-family="Helvetica"><tspan x="-33.811" y="0">JAPANESE SE</tspan></text>
        <g id="Group_239" data-name="Group 239" transform="translate(23.204 91.24)">
          <g id="Group_236" data-name="Group 236" transform="translate(0 0)">
            <circle id="Ellipse_6" data-name="Ellipse 6" cx="8.287" cy="8.287" r="8.287" transform="translate(6.501)" fill="none" stroke="#3d403d" stroke-linecap="round" stroke-linejoin="round" stroke-width="1.5"/>
            <path id="Path_24" data-name="Path 24" d="M181.357,281.447c0-6.586,6.621-11.926,14.788-11.926s14.788,5.34,14.788,11.926" transform="translate(-181.357 -252.733)" fill="none" stroke="#3d403d" stroke-linecap="round" stroke-linejoin="round" stroke-width="1.5"/>
          </g>
        </g>
        <text id="CUSTOMERS" transform="translate(5.8 44.773)" fill="#3d403d" font-size="10" font-family="Helvetica"><tspan x="0" y="0">CUSTOMERS</tspan></text>
        <g id="Group_244" data-name="Group 244" transform="translate(23.203)">
          <circle id="Ellipse_6-2" data-name="Ellipse 6" cx="8.287" cy="8.287" r="8.287" transform="translate(6.501)" fill="none" stroke="#3d403d" stroke-linecap="round" stroke-linejoin="round" stroke-width="1.5"/>
          <path id="Path_24-2" data-name="Path 24" d="M181.357,281.447c0-6.586,6.621-11.926,14.788-11.926s14.788,5.34,14.788,11.926" transform="translate(-181.357 -252.733)" fill="none" stroke="#3d403d" stroke-linecap="round" stroke-linejoin="round" stroke-width="1.5"/>
        </g>
      </g>
      <g id="Group_261" data-name="Group 261" transform="translate(142.041 93.758)">
        <g id="Group_212" data-name="Group 212">
          <path id="Path_29" data-name="Path 29" d="M321.895,207.511v-35.32H294.458v27.76l7.419,7.559Z" transform="translate(-294.458 -172.192)" fill="none" stroke="#3d403d" stroke-linecap="round" stroke-linejoin="round" stroke-width="1"/>
          <path id="Path_30" data-name="Path 30" d="M294.458,218.046h7.419v7.559" transform="translate(-294.458 -190.286)" fill="none" stroke="#3d403d" stroke-linecap="round" stroke-linejoin="round" stroke-width="1"/>
        </g>
        <path id="Path_31" data-name="Path 31" d="M325.917,183.136l1.334,1,2.39-4.043" transform="translate(-306.872 -175.31)" fill="none" stroke="#3d403d" stroke-linecap="round" stroke-linejoin="round" stroke-width="1"/>
        <line id="Line_34" data-name="Line 34" x2="20.38" transform="translate(3.347 15.17)" fill="none" stroke="#3d403d" stroke-linecap="round" stroke-linejoin="round" stroke-width="1"/>
        <line id="Line_35" data-name="Line 35" x2="20.38" transform="translate(3.347 18.588)" fill="none" stroke="#3d403d" stroke-linecap="round" stroke-linejoin="round" stroke-width="1"/>
        <line id="Line_36" data-name="Line 36" x2="20.38" transform="translate(3.528 21.755)" fill="none" stroke="#3d403d" stroke-linecap="round" stroke-linejoin="round" stroke-width="1"/>
        <line id="Line_37" data-name="Line 37" x2="20.38" transform="translate(3.71 24.923)" fill="none" stroke="#3d403d" stroke-linecap="round" stroke-linejoin="round" stroke-width="1"/>
        <rect id="Rectangle_6" data-name="Rectangle 6" width="7.349" height="6.001" transform="translate(16.741 4.784)" fill="none" stroke="#3d403d" stroke-linecap="round" stroke-linejoin="round" stroke-width="1"/>
      </g>
      <g id="kRdJUD.tif" transform="translate(51.344 91.637)">
        <g id="Group_260" data-name="Group 260" transform="translate(0 0)">
          <path id="Path_63" data-name="Path 63" d="M4230.419-444.52a3.223,3.223,0,0,0,.07-.329,1.367,1.367,0,0,1,1.465-1.413c.706-.041,1.414-.042,2.122-.043,3.476-.009,6.952-.019,10.428-.01.782,0,1.566.061,2.346.126a1.354,1.354,0,0,1,1.217,1.638,2.355,2.355,0,0,1-.714,1.266c-.973.955-1.942,1.914-2.978,2.936.877.7,1.677,1.4,2.536,2.011a16.116,16.116,0,0,0,7.637,3.1,10.062,10.062,0,0,0,7.636-1.866,10.687,10.687,0,0,0,1.531-1.663c.351-.424.616-.613.888-.49s.364.471.265.986a9.427,9.427,0,0,1-1.272,2.979,15.821,15.821,0,0,1-12.329,7.926c-.45.056-.9.093-1.353.139h-1.138a2.562,2.562,0,0,0-.332-.058,18.842,18.842,0,0,1-11.534-4.747c-.142-.12-.278-.245-.439-.387-.983.986-1.926,1.971-2.915,2.905a3.684,3.684,0,0,1-1.226.774,1.339,1.339,0,0,1-1.761-.976c-.057-.2-.1-.414-.148-.621Zm33.522,6.863a21.1,21.1,0,0,1-1.876,1.55,11.269,11.269,0,0,1-8,1.553,16.72,16.72,0,0,1-6.569-2.5,20.545,20.545,0,0,1-3.625-2.855c-.4-.4-.381-.55.008-.941.981-.985,1.966-1.966,2.937-2.96a2.164,2.164,0,0,0,.447-.645.7.7,0,0,0-.665-1.054c-.516-.034-1.034-.071-1.551-.071q-6.255,0-12.51.007c-.226,0-.453.036-.679.057a.605.605,0,0,0-.616.6c-.03.352-.063.7-.063,1.057q-.014,6.235-.014,12.47a8.442,8.442,0,0,0,.083,1.357.68.68,0,0,0,1.044.54,2.785,2.785,0,0,0,.73-.525c.923-.9,1.83-1.815,2.739-2.729.734-.739.651-.726,1.442-.03a17.557,17.557,0,0,0,14.2,4.64,14.885,14.885,0,0,0,10.824-6.371A14.126,14.126,0,0,0,4263.941-437.656Z" transform="translate(-4230.419 461.775)"/>
          <path id="Path_64" data-name="Path 64" d="M4315.334-644.542c1.086-1.1,2.145-2.164,3.2-3.235a1.627,1.627,0,0,1,1.21-.533,1.465,1.465,0,0,1,1.552,1.345,10.678,10.678,0,0,1,.079,1.322q0,6.16-.019,12.32c0,.366-.018.733-.046,1.1a1.412,1.412,0,0,1-1.5,1.51c-.214.019-.429.026-.644.025q-6.483-.006-12.966-.019c-.416,0-.833-.038-1.248-.081a1.325,1.325,0,0,1-1.205-1.636,2.961,2.961,0,0,1,.656-1.2c.854-.93,1.77-1.8,2.661-2.7.087-.088.17-.18.3-.321-.645-.538-1.249-1.093-1.9-1.58a17.678,17.678,0,0,0-8.078-3.508,9.575,9.575,0,0,0-8.708,2.752,8.512,8.512,0,0,0-.677.862c-.3.4-.576.536-.846.406a.712.712,0,0,1-.251-.941,25.857,25.857,0,0,1,1.587-3.506,15.169,15.169,0,0,1,11.263-7.329,18.286,18.286,0,0,1,15.213,4.64C4315.075-644.76,4315.18-644.672,4315.334-644.542Zm-27.4,5.155.089.1a1.7,1.7,0,0,1,.171-.251,10.007,10.007,0,0,1,7.418-3.067,15.058,15.058,0,0,1,5.744,1.205,19.894,19.894,0,0,1,6.57,4.322c.407.4.4.537,0,.936-.971.976-1.946,1.949-2.912,2.932a2.39,2.39,0,0,0-.452.6.732.732,0,0,0,.667,1.141c.643.039,1.288.076,1.931.076q5.9,0,11.79-.015c.316,0,.631-.03.946-.056a.64.64,0,0,0,.666-.638c.025-.365.058-.73.059-1.1q.012-6.2.013-12.394a10.163,10.163,0,0,0-.081-1.357.684.684,0,0,0-.7-.618,1.039,1.039,0,0,0-.866.383q-1.591,1.6-3.188,3.191c-.441.443-.506.451-.954.026a17.509,17.509,0,0,0-5.347-3.527,16.763,16.763,0,0,0-15.045.568A14.124,14.124,0,0,0,4287.93-639.387Z" transform="translate(-4282.545 649.704)"/>
        </g>
      </g>
    </g>
  </g>
</svg>
