<svg xmlns="http://www.w3.org/2000/svg" xmlns:xlink="http://www.w3.org/1999/xlink" width="196" height="196" viewBox="0 0 196 196">
  <defs>
    <clipPath id="clip-path">
      <rect id="Rectangle_2657" data-name="Rectangle 2657" width="99.761" height="99.748" fill="none"/>
    </clipPath>
  </defs>
  <g id="Group_6139" data-name="Group 6139" transform="translate(-30.153 -89.234)">
    <circle id="Ellipse_13" data-name="Ellipse 13" cx="98" cy="98" r="98" transform="translate(30.153 89.234)" fill="#e5eaf4"/>
    <circle id="Ellipse_14" data-name="Ellipse 14" cx="87" cy="87" r="87" transform="translate(41.153 100.234)" fill="#fff"/>
    <g id="Group_4145" data-name="Group 4145" transform="translate(78.273 137.549)">
      <g id="Group_4144" data-name="Group 4144" clip-path="url(#clip-path)">
        <path id="Path_13756" data-name="Path 13756" d="M177.195,3.888c-1.045,3.056-2.109,6.1-3.131,9.168q-10.914,32.7-21.814,65.409c-.948,2.842-3.537,3.455-5.659,1.334Q122,55.213,97.386,30.647c-2.127-2.115-1.177-4.943,1.439-5.806Q134.245,13.166,169.6,1.295c.89-.3,1.777-.605,2.668-.9,2.556-.843,3.683-.4,4.927,1.933ZM124.178,48.373,162.1,10.413,105.182,29.374l19,19M166.7,15.32,128.921,53.074l18.9,18.889L166.7,15.32" transform="translate(-77.433 0)" fill="#1a1818"/>
        <path id="Path_13757" data-name="Path 13757" d="M2.341,388.771a3.4,3.4,0,0,1-2.32-2.743,3.176,3.176,0,0,1,1.016-2.718q11.574-11.559,23.14-23.127a3.13,3.13,0,1,1,4.384,4.452Q20,373.22,11.422,381.783c-1.79,1.79-3.558,3.6-5.383,5.357A22.48,22.48,0,0,1,3.9,388.771Z" transform="translate(0 -289.023)" fill="#1a1818"/>
        <path id="Path_13758" data-name="Path 13758" d="M130.13,485.286a3.336,3.336,0,0,1-2.332-3.02,3.052,3.052,0,0,1,2.578-3.154,3.107,3.107,0,0,1,2.069,5.767c-.248.144-.5.272-.757.407Z" transform="translate(-102.849 -385.538)" fill="#1a1818"/>
        <path id="Path_13759" data-name="Path 13759" d="M63.624,258.53a8.727,8.727,0,0,1-1.125,2.053c-3.075,3.163-6.2,6.276-9.344,9.373a3.114,3.114,0,1,1-4.417-4.392q4.677-4.75,9.427-9.428a2.9,2.9,0,0,1,3.42-.573,3.543,3.543,0,0,1,2.038,2.967" transform="translate(-38.472 -205.419)" fill="#1a1818"/>
        <path id="Path_13760" data-name="Path 13760" d="M191.374,386.364a8.9,8.9,0,0,1-1.138,2.048c-3.076,3.163-6.2,6.277-9.346,9.373a3.115,3.115,0,1,1-4.39-4.421q4.65-4.71,9.357-9.362a2.984,2.984,0,0,1,3.411-.659,3.616,3.616,0,0,1,2.106,3.023" transform="translate(-141.286 -308.293)" fill="#1a1818"/>
        <path id="Path_13761" data-name="Path 13761" d="M162.847,325.648a3.1,3.1,0,1,1,3.109-3.152,3.081,3.081,0,0,1-3.109,3.152" transform="translate(-128.548 -257.08)" fill="#1a1818"/>
        <path id="Path_13762" data-name="Path 13762" d="M6.27,354.494A3.084,3.084,0,0,1,3.1,357.588a3.1,3.1,0,0,1,.016-6.208,3.081,3.081,0,0,1,3.155,3.115" transform="translate(-0.035 -282.784)" fill="#1a1818"/>
      </g>
    </g>
  </g>
</svg>
