<svg xmlns="http://www.w3.org/2000/svg" width="217.726" height="228.602" viewBox="0 0 217.726 228.602">
  <g id="Group_6130" data-name="Group 6130" transform="translate(0.494 0.495)">
    <path id="Path_11" data-name="Path 11" d="M476.976,359.367V253.7a108.368,108.368,0,1,0-216.737,0" transform="translate(-260.238 -145.334)" fill="none" stroke="#8eb84a" stroke-linecap="round" stroke-linejoin="round" stroke-width="0.989" stroke-dasharray="4"/>
    <circle id="Ellipse_7" data-name="Ellipse 7" cx="98" cy="98" r="98" transform="translate(10.48 9.416)" fill="#8eb84a"/>
    <circle id="Ellipse_8" data-name="Ellipse 8" cx="87" cy="87" r="87" transform="translate(21.48 20.416)" fill="#fff"/>
    <path id="Path_25" data-name="Path 25" d="M307.471,250.287h36.76l-18.38,28.144Z" transform="translate(-217.482 -50.324)" fill="#8eb84a"/>
    <g id="Group_6129" data-name="Group 6129" transform="translate(7.766 12.732)">
      <g id="Group_251" data-name="Group 251" transform="translate(31.715 29.684)">
        <text id="BA_BrSE_TEAM" data-name="BA &amp; BrSE TEAM" transform="translate(66.576 127.113)" fill="#3d403d" font-size="10" font-family="Helvetica"><tspan x="-39.37" y="0">BA &amp; BrSE TEAM</tspan></text>
        <g id="Group_239" data-name="Group 239" transform="translate(34.537 82.597)">
          <g id="Group_236" data-name="Group 236" transform="translate(18.248)">
            <circle id="Ellipse_6" data-name="Ellipse 6" cx="8.287" cy="8.287" r="8.287" transform="translate(6.501)" fill="none" stroke="#3d403d" stroke-linecap="round" stroke-linejoin="round" stroke-width="1.5"/>
            <path id="Path_24" data-name="Path 24" d="M181.357,281.447c0-6.586,6.621-11.926,14.788-11.926s14.788,5.34,14.788,11.926" transform="translate(-181.357 -252.733)" fill="none" stroke="#3d403d" stroke-linecap="round" stroke-linejoin="round" stroke-width="1.5"/>
          </g>
          <g id="Group_237" data-name="Group 237" transform="translate(0 6.114)">
            <circle id="Ellipse_6-2" data-name="Ellipse 6" cx="4.758" cy="4.758" r="4.758" transform="translate(3.732)" fill="none" stroke="#3d403d" stroke-linecap="round" stroke-linejoin="round" stroke-width="1.2"/>
            <path id="Path_24-2" data-name="Path 24" d="M181.357,276.368c0-3.781,3.8-6.847,8.49-6.847s8.49,3.066,8.49,6.847" transform="translate(-181.357 -259.883)" fill="none" stroke="#3d403d" stroke-linecap="round" stroke-linejoin="round" stroke-width="1.2"/>
          </g>
          <g id="Group_238" data-name="Group 238" transform="translate(49.093 6.114)">
            <circle id="Ellipse_6-3" data-name="Ellipse 6" cx="4.758" cy="4.758" r="4.758" transform="translate(3.732)" fill="none" stroke="#3d403d" stroke-linecap="round" stroke-linejoin="round" stroke-width="1.2"/>
            <path id="Path_24-3" data-name="Path 24" d="M181.357,276.368c0-3.781,3.8-6.847,8.49-6.847s8.49,3.066,8.49,6.847" transform="translate(-181.357 -259.883)" fill="none" stroke="#3d403d" stroke-linecap="round" stroke-linejoin="round" stroke-width="1.2"/>
          </g>
        </g>
        <g id="Group_3668" data-name="Group 3668" transform="translate(33.377)">
          <text id="JAPANESE_SE" data-name="JAPANESE SE" transform="translate(0 44.515)" fill="#3d403d" font-size="10" font-family="Helvetica"><tspan x="0" y="0">JAPANESE SE</tspan></text>
          <g id="Group_244" data-name="Group 244" transform="translate(19.723)">
            <circle id="Ellipse_6-4" data-name="Ellipse 6" cx="8.287" cy="8.287" r="8.287" transform="translate(6.501)" fill="none" stroke="#3d403d" stroke-linecap="round" stroke-linejoin="round" stroke-width="1.5"/>
            <path id="Path_24-4" data-name="Path 24" d="M181.357,281.447c0-6.586,6.621-11.926,14.788-11.926s14.788,5.34,14.788,11.926" transform="translate(-181.357 -252.733)" fill="none" stroke="#3d403d" stroke-linecap="round" stroke-linejoin="round" stroke-width="1.5"/>
          </g>
        </g>
        <g id="Rf1CYH.tif" transform="translate(0 57.862)">
          <g id="Group_259" data-name="Group 259" transform="translate(0 0)">
            <path id="Path_61" data-name="Path 61" d="M3150.331-751.749a1.6,1.6,0,0,1-1.1-1.511c-.092-.911-.26-1.815-.374-2.724a.679.679,0,0,0-.409-.6c-.492-.246-.961-.54-1.429-.832a.417.417,0,0,0-.432-.036c-.966.4-1.936.781-2.906,1.167a1.371,1.371,0,0,1-1.886-.643q-1.381-2.378-2.754-4.761a1.392,1.392,0,0,1,.389-2c.808-.632,1.612-1.269,2.427-1.892a.475.475,0,0,0,.2-.447c-.015-.6,0-1.2-.013-1.8a.533.533,0,0,0-.17-.36c-.807-.648-1.627-1.281-2.444-1.919a1.389,1.389,0,0,1-.392-2q1.373-2.383,2.752-4.762a1.355,1.355,0,0,1,1.878-.652c.979.39,1.955.789,2.938,1.168a.531.531,0,0,0,.4-.032c.536-.292,1.055-.615,1.589-.91a.4.4,0,0,0,.233-.334c.143-1.035.3-2.068.442-3.1a1.368,1.368,0,0,1,1.486-1.321q2.782,0,5.565,0a1.363,1.363,0,0,1,1.48,1.294c.145,1.045.3,2.087.447,3.132a.4.4,0,0,0,.235.332c.534.3,1.053.617,1.589.909a.531.531,0,0,0,.4.034c.974-.376,1.94-.771,2.91-1.157a1.379,1.379,0,0,1,1.908.65q1.38,2.379,2.752,4.762a1.385,1.385,0,0,1-.385,1.979c-.808.633-1.613,1.268-2.427,1.893a.469.469,0,0,0-.213.44c.021.59.021,1.182,0,1.773a.47.47,0,0,0,.212.44c.813.625,1.619,1.26,2.426,1.893a1.387,1.387,0,0,1,.388,1.98q-1.374,2.382-2.754,4.761a1.362,1.362,0,0,1-1.9.658c-.969-.388-1.94-.772-2.905-1.17a.419.419,0,0,0-.432.037c-.512.315-1.04.6-1.55.919a.532.532,0,0,0-.235.319c-.154.964-.314,1.928-.415,2.9a1.615,1.615,0,0,1-1.115,1.536Zm6.094-1.291c.018-.08.043-.165.057-.252.186-1.148.375-2.3.55-3.445a.952.952,0,0,1,.564-.762c.688-.358,1.362-.75,2.016-1.169a.947.947,0,0,1,.965-.112c1.055.439,2.12.853,3.175,1.289.195.08.285.051.393-.135q1.374-2.348,2.773-4.68c.112-.187.09-.279-.078-.408-.923-.709-1.831-1.437-2.755-2.144a.906.906,0,0,1-.385-.834c.029-.806.029-1.614,0-2.419a.905.905,0,0,1,.378-.837c.91-.694,1.8-1.411,2.711-2.105.2-.154.247-.265.109-.5-.89-1.512-1.763-3.034-2.642-4.552-.048-.083-.1-.164-.159-.255-1.2.451-2.379.889-3.553,1.344a.919.919,0,0,1-.911-.117,20.875,20.875,0,0,0-1.961-1.141,1.046,1.046,0,0,1-.651-.893c-.136-1.085-.318-2.165-.448-3.251-.035-.288-.155-.321-.392-.323-1.766-.014-3.531-.038-5.3-.058-.078,0-.156.006-.249.01-.022.113-.047.218-.064.324-.185,1.138-.374,2.275-.549,3.415a.933.933,0,0,1-.554.736c-.7.367-1.378.761-2.041,1.183a.925.925,0,0,1-.938.1c-1.037-.43-2.084-.834-3.121-1.267-.235-.1-.348-.077-.483.155-.882,1.516-1.783,3.022-2.677,4.532-.049.083-.093.169-.15.274.091.076.172.146.255.213.894.729,1.784,1.464,2.686,2.184a.9.9,0,0,1,.359.818c-.027.806-.028,1.614,0,2.42a.9.9,0,0,1-.377.837c-.909.694-1.8,1.413-2.711,2.1-.225.171-.229.291-.092.525.884,1.5,1.751,3.017,2.625,4.527.049.084.1.164.157.252.128-.046.239-.083.35-.124,1.068-.4,2.139-.8,3.205-1.213a.93.93,0,0,1,.913.116c.646.412,1.306.809,1.988,1.156a.991.991,0,0,1,.615.82c.146,1.114.323,2.224.467,3.338.029.228.1.295.327.295,1.213,0,2.427.019,3.64.027C3155.1-753.037,3155.744-753.04,3156.425-753.04Z" transform="translate(-3138.773 782.063)"/>
            <path id="Path_62" data-name="Path 62" d="M3287.342-633.031a6.344,6.344,0,0,1,6.327,6.3,6.343,6.343,0,0,1-6.293,6.334,6.348,6.348,0,0,1-6.342-6.315A6.345,6.345,0,0,1,3287.342-633.031Zm5.053,6.319a5.04,5.04,0,0,0-5.034-5.048,5.041,5.041,0,0,0-5.054,5.028,5.042,5.042,0,0,0,5.05,5.063A5.04,5.04,0,0,0,3292.4-626.712Z" transform="translate(-3272.595 641.872)"/>
          </g>
        </g>
      </g>
      <g id="bMFtyC.tif" transform="translate(132.571 85.229)">
        <g id="Group_263" data-name="Group 263" transform="translate(0 0)">
          <path id="Path_71" data-name="Path 71" d="M279.812-672.038v-19.974c.023-.091.049-.182.07-.274a2.935,2.935,0,0,1,2.635-2.322c.378-.035.759-.043,1.177-.065,0-.222,0-.434,0-.646a2.988,2.988,0,0,1,3.148-3.162c3.438,0,6.876,0,10.313-.006a.841.841,0,0,1,.71.33c.749.9,1.518,1.79,2.264,2.7a.7.7,0,0,0,.608.282q6.343-.013,12.685-.005A2.985,2.985,0,0,1,316.618-692q0,2.6,0,5.208c0,3.472-.006,6.944,0,10.416a2.977,2.977,0,0,1-2.758,3.064c-.366.019-.732.037-1.127.057a4.6,4.6,0,0,1-.007.734,5.244,5.244,0,0,1-.312,1.384,2.925,2.925,0,0,1-2.881,1.7q-11.661-.007-23.322,0c-1.114,0-2.228,0-3.342,0a2.834,2.834,0,0,1-2.467-1.229A7.609,7.609,0,0,1,279.812-672.038Zm16.457,1.7q6.63,0,13.259,0a2.082,2.082,0,0,0,2.28-2.272q0-7.775,0-15.551a2.836,2.836,0,0,0-.062-.676,2.069,2.069,0,0,0-2.193-1.584q-6.486,0-12.972.006a.967.967,0,0,1-.827-.389q-1.116-1.36-2.275-2.685a.714.714,0,0,0-.478-.217q-5.013-.019-10.025-.007a2.072,2.072,0,0,0-2.236,2.244q0,9.445,0,18.891a2.733,2.733,0,0,0,.065.675,2.079,2.079,0,0,0,2.241,1.568Q289.657-670.337,296.269-670.338Zm-11.634-24.311h.473c2.7,0,5.39,0,8.085-.005a.978.978,0,0,1,.835.383c.728.889,1.486,1.754,2.215,2.643a.7.7,0,0,0,.608.277c4.216-.008,8.433-.016,12.649.008a3.792,3.792,0,0,1,1.526.309,2.9,2.9,0,0,1,1.707,2.872q0,6.77,0,13.541v.435c.3,0,.551,0,.8,0a2.043,2.043,0,0,0,2.153-2.137q.019-7.866.012-15.732a2.593,2.593,0,0,0-.225-1.071,2.078,2.078,0,0,0-2.1-1.155c-4.3.007-8.6,0-12.9.009a1.007,1.007,0,0,1-.863-.4c-.719-.881-1.467-1.738-2.191-2.616a.7.7,0,0,0-.607-.284c-2.647.01-5.294.005-7.942.007-.79,0-1.582-.014-2.371.02a1.919,1.919,0,0,0-1.6,1A3.261,3.261,0,0,0,284.635-694.649Z" transform="translate(-279.812 698.489)" fill="#333"/>
        </g>
      </g>
    </g>
  </g>
</svg>
