<svg xmlns="http://www.w3.org/2000/svg" width="217.726" height="228.599" viewBox="0 0 217.726 228.599">
  <g id="Group_6138" data-name="Group 6138" transform="translate(-18.363 -21.148)">
    <path id="Path_76" data-name="Path 76" d="M476.976,359.367V253.7a108.368,108.368,0,1,0-216.737,0" transform="translate(-241.381 -123.691)" fill="none" stroke="#3d403d" stroke-linecap="round" stroke-linejoin="round" stroke-width="0.989" stroke-dasharray="4"/>
    <circle id="Ellipse_11" data-name="Ellipse 11" cx="98" cy="98" r="98" transform="translate(30.783 31.059)" fill="#e5eaf4"/>
    <circle id="Ellipse_12" data-name="Ellipse 12" cx="87" cy="87" r="87" transform="translate(41.783 42.059)" fill="#fff"/>
    <path id="Path_37" data-name="Path 37" d="M539,250.287h36.76l-18.38,28.144Z" transform="translate(-429.59 -28.684)" fill="#e5eaf4"/>
    <g id="Group_6137" data-name="Group 6137" transform="translate(2.568 9.72)">
      <g id="Group_252" data-name="Group 252" transform="translate(93.394 54.338)">
        <text id="CUSTOMERS" transform="translate(32.39 127.65)" fill="#3d403d" font-size="10" font-family="Helvetica"><tspan x="-31.858" y="0">CUSTOMERS</tspan></text>
        <g id="Group_239" data-name="Group 239" transform="translate(19.142 82.597)">
          <g id="Group_236" data-name="Group 236">
            <circle id="Ellipse_6" data-name="Ellipse 6" cx="8.287" cy="8.287" r="8.287" transform="translate(6.501)" fill="none" stroke="#3d403d" stroke-linecap="round" stroke-linejoin="round" stroke-width="1.5"/>
            <path id="Path_24" data-name="Path 24" d="M181.357,281.447c0-6.586,6.621-11.926,14.788-11.926s14.788,5.34,14.788,11.926" transform="translate(-181.357 -252.733)" fill="none" stroke="#3d403d" stroke-linecap="round" stroke-linejoin="round" stroke-width="1.5"/>
          </g>
        </g>
        <text id="JAPANESE_SE" data-name="JAPANESE SE" transform="translate(0 44.773)" fill="#3d403d" font-size="10" font-family="Helvetica"><tspan x="0" y="0">JAPANESE SE</tspan></text>
        <g id="Group_244" data-name="Group 244" transform="translate(19.722 0)">
          <circle id="Ellipse_6-2" data-name="Ellipse 6" cx="8.287" cy="8.287" r="8.287" transform="translate(6.501)" fill="none" stroke="#3d403d" stroke-linecap="round" stroke-linejoin="round" stroke-width="1.5"/>
          <path id="Path_24-2" data-name="Path 24" d="M181.357,281.447c0-6.586,6.621-11.926,14.788-11.926s14.788,5.34,14.788,11.926" transform="translate(-181.357 -252.733)" fill="none" stroke="#3d403d" stroke-linecap="round" stroke-linejoin="round" stroke-width="1.5"/>
        </g>
      </g>
      <g id="_9l6AEH.tif" data-name="9l6AEH.tif" transform="translate(61.215 110.937)">
        <g id="Group_262" data-name="Group 262" transform="translate(0 0)">
          <path id="Path_65" data-name="Path 65" d="M1133.48-1136.3v27.3a1.751,1.751,0,0,1-1.956,1.188c-.715-.046-1.435-.009-2.153-.009h-1.077v.458c0,1.012,0,2.025,0,3.037a1.557,1.557,0,0,1-1.695,1.7q-15.4,0-30.8,0a1.553,1.553,0,0,1-1.7-1.693q0-13.167,0-26.334a1.517,1.517,0,0,1,1.663-1.674c1.026,0,2.051,0,3.076,0h.445v-3.281a1.658,1.658,0,0,1,1.276-1.923h31.693A1.807,1.807,0,0,1,1133.48-1136.3Zm-32.921,6.028v20.581c0,.587.019.606.6.606h30.462c.547,0,.571-.022.571-.558q0-10.113,0-20.226c0-.134-.015-.268-.023-.4Zm26.456,22.451h-22.843c-1.089,0-2.179,0-3.268,0a1.572,1.572,0,0,1-1.127-.4,1.72,1.72,0,0,1-.5-1.361q.006-7.5,0-14.992v-.485h-3.9v20.517c0,.633,0,.633.638.633h30.377c.09,0,.18,0,.269,0,.244.01.352-.111.352-.348C1127.015-1105.423,1127.015-1106.588,1127.015-1107.818Zm5.158-23.768c.008-.123.021-.223.021-.324,0-1.281-.009-2.562.007-3.844,0-.37-.125-.484-.491-.484q-15.321.011-30.641.006c-.477,0-.509.031-.509.5q0,1.9,0,3.805c0,.11.014.221.022.344Zm-36.793,5.178h3.87v-4.649c-1.205,0-2.38,0-3.555,0-.254,0-.316.167-.315.386,0,.652,0,1.3,0,1.957Z" transform="translate(-1094.096 1137.528)" fill="#333"/>
          <path id="Path_66" data-name="Path 66" d="M1261.749-956.39a9.413,9.413,0,0,1-.013,1.029.517.517,0,0,1-.275.3c-1.324.673-2.654,1.334-3.981,2-.113.057-.223.118-.381.2l1.54.773c.938.47,1.874.946,2.818,1.4a.421.421,0,0,1,.3.462c-.022.277-.005.556-.005.883-.156-.071-.271-.118-.38-.174-1.8-.926-3.589-1.866-5.4-2.767-.333-.166-.29-.391-.3-.652a.476.476,0,0,1,.292-.54c1.821-.909,3.629-1.842,5.442-2.767C1261.5-956.285,1261.6-956.325,1261.749-956.39Z" transform="translate(-1243.211 970.351)" fill="#333"/>
          <path id="Path_67" data-name="Path 67" d="M1430.4-956.681c.5.253.934.469,1.363.687,1.47.75,2.937,1.507,4.413,2.245a.475.475,0,0,1,.311.532c-.023.257.048.5-.285.667-1.852.93-3.689,1.89-5.532,2.838-.066.034-.136.058-.268.114,0-.38-.021-.72.013-1.054.01-.1.156-.216.267-.271,1.337-.673,2.679-1.336,4.019-2,.114-.057.227-.117.39-.2-.15-.081-.264-.147-.382-.205-1.317-.656-2.63-1.32-3.955-1.958a.5.5,0,0,1-.358-.578A7.713,7.713,0,0,0,1430.4-956.681Z" transform="translate(-1404.465 970.62)" fill="#333"/>
          <path id="Path_68" data-name="Path 68" d="M1357.018-980.081l-1.763,4.561c-.557,1.443-1.123,2.883-1.665,4.332-.111.3-.254.436-.578.394a6.172,6.172,0,0,0-.714-.005c.05-.153.083-.269.126-.38,1.084-2.83,2.175-5.657,3.245-8.492.118-.313.253-.463.6-.416A6.029,6.029,0,0,0,1357.018-980.081Z" transform="translate(-1332.397 992.229)" fill="#333"/>
          <path id="Path_69" data-name="Path 69" d="M1211-1099.222c-.359,0-.718.007-1.077,0-.455-.01-.752-.278-.744-.656a.661.661,0,0,1,.73-.629q1.1-.012,2.192,0a.662.662,0,0,1,.727.634.666.666,0,0,1-.713.65C1211.747-1099.214,1211.375-1099.222,1211-1099.222Z" transform="translate(-1200.312 1103.367)" fill="#333"/>
          <path id="Path_70" data-name="Path 70" d="M1281.344-1099.234c-.372,0-.744.01-1.115,0a.635.635,0,0,1-.691-.66.627.627,0,0,1,.686-.622q1.133-.016,2.268,0a.635.635,0,0,1,.676.637.652.652,0,0,1-.672.646c-.025,0-.051,0-.077,0Z" transform="translate(-1265.245 1103.379)" fill="#333"/>
        </g>
      </g>
      <g id="njnUxr.tif" transform="translate(162.061 113.357)">
        <g id="Group_265" data-name="Group 265" transform="translate(0 0)">
          <path id="Path_74" data-name="Path 74" d="M1312.037-483.134a14.9,14.9,0,0,1-14.847-14.877,14.9,14.9,0,0,1,14.875-14.848,14.9,14.9,0,0,1,14.848,14.876A14.9,14.9,0,0,1,1312.037-483.134Zm13.22-14.85a13.23,13.23,0,0,0-13.181-13.22,13.23,13.23,0,0,0-13.23,13.17,13.234,13.234,0,0,0,13.2,13.245A13.232,13.232,0,0,0,1325.257-497.985Z" transform="translate(-1297.19 512.86)" fill="#333"/>
          <path id="Path_75" data-name="Path 75" d="M1388.774-402.41c.937-.942,1.853-1.866,2.772-2.787q2.252-2.256,4.508-4.509a2.909,2.909,0,0,1,.39-.359.756.756,0,0,1,1.016.071.757.757,0,0,1,.151,1.008,2.049,2.049,0,0,1-.345.4q-3.84,3.845-7.684,7.686c-.652.651-1.008.651-1.658,0-.866-.864-1.746-1.716-2.587-2.6a1.133,1.133,0,0,1-.329-.793.921.921,0,0,1,.533-.642,1.067,1.067,0,0,1,.857.214c.7.618,1.337,1.3,2,1.961C1388.51-402.65,1388.629-402.545,1388.774-402.41Z" transform="translate(-1376.489 420.18)" fill="#333"/>
        </g>
      </g>
    </g>
  </g>
</svg>
