<svg xmlns="http://www.w3.org/2000/svg" width="120" height="120" viewBox="0 0 120 120"><g transform="translate(-77 -266)"><rect width="120" height="120" transform="translate(77 266)" fill="none"/><g transform="translate(91 279.368)"><g transform="translate(28.232 13.731)"><path d="M191.714,86.244a2.888,2.888,0,0,0-1.6-4.926l-7.957-1.156a.114.114,0,0,1-.085-.062l-3.559-7.21a2.888,2.888,0,0,0-5.18,0l-3.559,7.21a.113.113,0,0,1-.086.062l-7.957,1.156a2.888,2.888,0,0,0-1.6,4.926l5.758,5.613a.114.114,0,0,1,.033.1l-1.359,7.925a2.888,2.888,0,0,0,4.191,3.045l7.117-3.742a.114.114,0,0,1,.106,0l7.117,3.742a2.889,2.889,0,0,0,4.191-3.045l-.2-1.156a1.387,1.387,0,1,0-2.734.469l.2,1.156a.114.114,0,0,1-.165.12l-7.117-3.742a2.888,2.888,0,0,0-2.688,0l-7.117,3.742a.114.114,0,0,1-.165-.12l1.359-7.925a2.888,2.888,0,0,0-.831-2.557l-5.758-5.613a.114.114,0,0,1,.063-.194l7.957-1.156a2.888,2.888,0,0,0,2.175-1.58l3.559-7.21a.114.114,0,0,1,.2,0l3.559,7.21a2.888,2.888,0,0,0,2.175,1.58l7.957,1.156a.114.114,0,0,1,.063.194L184.02,89.87a2.888,2.888,0,0,0-.83,2.557l.22,1.286a1.387,1.387,0,0,0,2.735-.469l-.22-1.285a.114.114,0,0,1,.033-.1Z" transform="translate(-159.254 -71.279)" fill="#8eb84a"/></g><g transform="translate(2.095 0.632)"><path d="M37.1,9.96a2.508,2.508,0,0,0-2.038-1.718l-5.9-.857L26.53,2.039a2.525,2.525,0,0,0-4.528,0L19.364,7.385l-5.9.857a2.524,2.524,0,0,0-1.4,4.306l4.268,4.161-1.008,5.875a2.521,2.521,0,0,0,3.663,2.661l5.276-2.774,5.276,2.774A2.525,2.525,0,0,0,33.2,22.584L32.2,16.709l4.269-4.161A2.51,2.51,0,0,0,37.1,9.96Zm-6.938,4.854a2.524,2.524,0,0,0-.726,2.234l.944,5.505-4.944-2.6a2.525,2.525,0,0,0-2.349,0l-4.944,2.6.944-5.506a2.524,2.524,0,0,0-.726-2.234l-4-3.9,5.528-.8a2.524,2.524,0,0,0,1.9-1.381l2.472-5.009,2.472,5.009a2.524,2.524,0,0,0,1.9,1.381l5.528.8Z" transform="translate(-11.302 -0.632)" fill="#8eb84a"/></g><g transform="translate(61.662 0.632)"><path d="M372.949,9.96a2.509,2.509,0,0,0-2.038-1.718l-5.9-.857-2.638-5.345a2.525,2.525,0,0,0-4.528,0l-2.638,5.345-5.9.857a2.525,2.525,0,0,0-1.4,4.306l4.269,4.161-1.008,5.875a2.521,2.521,0,0,0,3.663,2.661l5.276-2.774,5.276,2.774a2.525,2.525,0,0,0,3.663-2.661l-1.008-5.875,4.269-4.161A2.509,2.509,0,0,0,372.949,9.96Zm-6.938,4.854a2.524,2.524,0,0,0-.726,2.234l.944,5.505-4.944-2.6a2.525,2.525,0,0,0-2.35,0l-4.944,2.6.944-5.506a2.523,2.523,0,0,0-.726-2.234l-4-3.9,5.528-.8a2.524,2.524,0,0,0,1.9-1.381l2.472-5.009,2.472,5.009a2.524,2.524,0,0,0,1.9,1.381l5.528.8Z" transform="translate(-347.146 -0.632)" fill="#8eb84a"/></g><g transform="translate(48.194 32.249)"><path d="M317.905,187.661a4.188,4.188,0,0,0-7.174.134,3.828,3.828,0,0,0-5.808,1.979l-.65,2.01a3.787,3.787,0,0,0-5.731,2.034l-.426,1.371a3.906,3.906,0,0,0-5.905,2.025l-4.4,13.525a22.8,22.8,0,0,0-5.479,3.531,1.387,1.387,0,0,0,1.82,2.094,19.347,19.347,0,0,1,5.259-3.29l.017-.007c.028-.011.055-.023.082-.035l.046-.021c.029-.014.057-.031.085-.047l.038-.022c.031-.02.06-.041.089-.063l.027-.019a1.359,1.359,0,0,0,.108-.095l6.18-6.037,3.317-3.24a1.315,1.315,0,0,1,.934-.375h0a1.316,1.316,0,0,1,1.3,1.366h0a1.315,1.315,0,0,1-.1.458,1.3,1.3,0,0,1-.184.312L290.8,218.532a1.387,1.387,0,0,0,.1,1.835c.032.033.066.063.1.093l.037.028c.023.018.047.036.071.053l.045.029c.023.014.045.028.068.041l.05.026.068.032.053.021.07.025.054.016.072.018.054.011.075.011.053.006.08,0,.038,0h.008a1.385,1.385,0,0,0,.2-.016l.032,0a1.416,1.416,0,0,0,.189-.046l.031-.011a1.375,1.375,0,0,0,.185-.079l.021-.012a1.417,1.417,0,0,0,.182-.117l5.714-4.379a33.074,33.074,0,0,0,10.8-14.4q.472-1.223.851-2.491l2.924-9.781a1.411,1.411,0,0,1,1.555-.952,1.416,1.416,0,0,1,1.141,1.817l-4.383,14.225c-.226.733-.45,1.48-.677,2.237-1.9,6.344-4.063,13.535-8.922,17.5l-10.722,8.755a1.387,1.387,0,0,0-.51,1.074v9.207H277.288V230.351a26.458,26.458,0,0,1,3.351-9.878,1.387,1.387,0,1,0-2.361-1.456,28.878,28.878,0,0,0-3.757,11.126c0,.044-.007.089-.007.133V244.7a1.387,1.387,0,0,0,1.387,1.387h15.982a1.387,1.387,0,0,0,1.387-1.387v-9.936l10.212-8.339c5.517-4.5,7.805-12.128,9.824-18.854.225-.75.448-1.492.671-2.218l4.383-14.225A4.187,4.187,0,0,0,317.905,187.661Zm-20.9,11.1-.19.611-1.229,3.958-3.594,3.511,2.854-8.766a1.125,1.125,0,0,1,1.073-.782,1.154,1.154,0,0,1,.187.015,1.132,1.132,0,0,1,.9,1.453Zm6.141-3.5-.532,1.645-1.162,3.592a4.075,4.075,0,0,0-.7-.133h0c-.129-.014-.259-.024-.39-.025h-.049a4.12,4.12,0,0,0-.926.1l.267-.861h0l1.534-4.942a1.026,1.026,0,0,1,1.879-.19A1.014,1.014,0,0,1,303.148,195.262Zm6.429-4.007-2.145,7.174q-.286.958-.631,1.888a30.44,30.44,0,0,1-2.57,5.3v0c.024-.078.044-.157.063-.237.006-.026.011-.051.017-.077q.018-.084.033-.169c.005-.029.01-.057.014-.086.009-.057.016-.113.022-.17,0-.026.006-.052.009-.078.007-.08.013-.16.015-.24,0,0,0,0,0-.006,0-.082,0-.164,0-.246,0-.026,0-.051,0-.077q0-.086-.012-.172c0-.029-.006-.057-.009-.086-.007-.057-.014-.114-.023-.171,0-.026-.007-.051-.012-.077-.014-.078-.029-.156-.047-.234l0-.009c-.019-.08-.041-.16-.065-.239-.007-.025-.016-.049-.024-.073-.018-.055-.037-.11-.057-.165l-.031-.081c-.021-.054-.044-.107-.067-.16l-.032-.073c-.034-.072-.069-.143-.107-.213l-.006-.011q-.053-.1-.112-.192l1.993-6.161h0l1.775-5.487a1.059,1.059,0,0,1,1.188-.713,1.055,1.055,0,0,1,.826,1.341Z" transform="translate(-274.514 -185.699)" fill="#8eb84a"/></g><g transform="translate(0 32.249)"><g transform="translate(0)"><path d="M44.027,230.144a28.238,28.238,0,0,0-4.436-12.157,22.309,22.309,0,0,0-8.851-7.246l-4.4-13.524a3.906,3.906,0,0,0-5.905-2.025l-.426-1.371a3.787,3.787,0,0,0-5.731-2.034l-.65-2.01A3.828,3.828,0,0,0,7.816,187.8a4.189,4.189,0,0,0-7.63,3.329l4.383,14.225c.224.726.446,1.468.672,2.218,1.72,5.731,3.67,12.226,7.679,16.779A1.387,1.387,0,1,0,15,222.511c-3.608-4.1-5.465-10.284-7.1-15.743-.227-.757-.452-1.5-.678-2.237L2.837,190.306a1.416,1.416,0,0,1,1.141-1.816,1.41,1.41,0,0,1,1.555.952l.779,2.6v0l2.145,7.174c.074.246.151.491.23.735a33.06,33.06,0,0,0,10.3,15.26l.252.208q.429.352.871.692L25.82,220.5a1.4,1.4,0,0,0,.183.117l.021.012a1.372,1.372,0,0,0,.186.08l.029.01a1.339,1.339,0,0,0,.191.047l.03,0a1.353,1.353,0,0,0,.2.016h.007l.034,0c.029,0,.057,0,.085,0l.048-.006.08-.012.05-.01.077-.019.05-.015.074-.026.05-.02c.024-.01.048-.022.072-.034l.047-.024c.024-.013.047-.028.07-.042l.043-.027c.025-.017.049-.036.073-.054l.035-.027c.035-.029.068-.06.1-.093a1.387,1.387,0,0,0,.1-1.835L17.2,205.251q-.039-.049-.072-.1a1.318,1.318,0,0,1,1.088-2.037h0a1.31,1.31,0,0,1,.935.375l9.5,9.277a1.33,1.33,0,0,0,.108.095l.014.01c.034.026.068.05.1.073l.02.012c.034.021.068.04.1.058l.036.016c.029.014.059.027.089.039l.015.007a19.61,19.61,0,0,1,8.185,6.507,25.783,25.783,0,0,1,3.937,10.768v12.957H28.051V234.1a1.387,1.387,0,0,0-.51-1.074l-8.379-6.843a1.387,1.387,0,1,0-1.755,2.149l7.87,6.426V244.7a1.387,1.387,0,0,0,1.387,1.387H42.647a1.387,1.387,0,0,0,1.387-1.387V230.276C44.033,230.232,44.031,230.188,44.027,230.144ZM14.64,202.469l-.006.013c-.038.07-.073.14-.106.212-.011.024-.022.049-.033.073q-.035.079-.067.159l-.032.082c-.02.054-.039.109-.056.164-.008.025-.016.049-.024.074-.024.079-.046.158-.065.238l0,.013c-.018.076-.033.152-.046.229,0,.027-.008.053-.012.079q-.013.084-.023.168-.005.044-.009.088c-.005.056-.009.113-.012.17,0,.027,0,.053,0,.079,0,.082,0,.164,0,.245,0,0,0,.006,0,.009,0,.079.008.159.015.238,0,.026.006.052.009.078.006.057.013.114.022.171,0,.029.009.057.014.085.01.057.021.114.034.171.005.025.01.05.016.075.019.081.04.161.064.241a30.582,30.582,0,0,1-3.2-7.193l-2.145-7.174A1.054,1.054,0,0,1,9.979,189.9a1.06,1.06,0,0,1,1,.73l2.508,7.753,1.26,3.9Q14.693,202.372,14.64,202.469Zm4.376-2.05-.076-.015q-.168-.029-.337-.044l-.081-.006q-.144-.01-.288-.01h-.076q-.17,0-.339.02l-.079.01q-.146.018-.29.045l-.069.013c-.1.02-.192.043-.287.07l-1.122-3.467-.573-1.773a1.027,1.027,0,0,1,.72-1.31,1.024,1.024,0,0,1,1.236.689l1.535,4.942h0l.268.863C19.111,200.437,19.063,200.429,19.016,200.419Zm6.427,5.338-2.484-2.427-1.229-3.958-.19-.611a1.132,1.132,0,0,1,2.158-.686l2.854,8.766Z" transform="translate(0 -185.699)" fill="#8eb84a"/></g></g></g></g></svg>
