<svg xmlns="http://www.w3.org/2000/svg" width="64" height="64" viewBox="0 0 64 64">
  <g id="Group_2434" data-name="Group 2434" transform="translate(-1964 10837)">
    <circle id="Ellipse_1" data-name="Ellipse 1" cx="32" cy="32" r="32" transform="translate(1964 -10837)" fill="#fcfcfc"/>
    <g id="_1181202_facebook_messenger_icon" data-name="1181202_facebook_messenger_icon" transform="translate(1960.278 -10841.484)">
      <path id="Path_1" data-name="Path 1" d="M26.814,25.055,18.4,34.039l7.646-4.205,3.919,4.205,8.411-8.984-7.55,4.205Z" transform="translate(7.398 7.536)" fill="#8eb84a"/>
      <path id="Path_2" data-name="Path 2" d="M35.723,4.484a32,32,0,1,0,32,32A32,32,0,0,0,35.723,4.484Zm.119,50.579a21.361,21.361,0,0,1-5.736-.779L23.3,58.044v-7.1a18.149,18.149,0,0,1-7.452-14.508c0-10.289,8.953-18.63,20-18.63s20,8.341,20,18.63S46.885,55.063,35.841,55.063Z" transform="translate(0 0)" fill="#8eb84a"/>
    </g>
  </g>
</svg>
