<svg xmlns="http://www.w3.org/2000/svg" xmlns:xlink="http://www.w3.org/1999/xlink" width="72" height="72" viewBox="0 0 72 72">
  <defs>
    <clipPath id="clip-path">
      <rect id="Rectangle_3848" data-name="Rectangle 3848" width="64" height="64" fill="none"/>
    </clipPath>
  </defs>
  <g id="Group_6418" data-name="Group 6418" transform="translate(1589.885 18571)">
    <g id="Group_6310" data-name="Group 6310" transform="translate(-1585.887 -18567)">
      <g id="Group_6309" data-name="Group 6309" transform="translate(0.003 0)" clip-path="url(#clip-path)">
        <path id="Path_31129" data-name="Path 31129" d="M71.354,54.828H52.994a3.319,3.319,0,0,1-3.315-3.315V50.383c0-6.286-3.157-12.541-6.245-17.831a21.676,21.676,0,1,1,37.388.156c-2.865,4.814-6.153,11.173-6.153,17.67v1.134a3.319,3.319,0,0,1-3.315,3.315M62.2,2.04a20.7,20.7,0,0,0-2.265.125A19.622,19.622,0,0,0,45.2,31.524c5.748,9.846,6.523,15.059,6.523,18.859v1.129a1.276,1.276,0,0,0,1.275,1.275h18.36a1.277,1.277,0,0,0,1.275-1.275V50.379c0-6.994,3.442-13.675,6.44-18.713a19.612,19.612,0,0,0-3.8-24.619A19.41,19.41,0,0,0,62.2,2.04" transform="translate(-30.174 0)" fill="#222831"/>
        <path id="Path_31130" data-name="Path 31130" d="M104.79,218.228H93.315A3.319,3.319,0,0,1,90,214.913v-6.885a1.02,1.02,0,0,1,1.02-1.02h16.065a1.02,1.02,0,0,1,1.02,1.02v6.885a3.319,3.319,0,0,1-3.315,3.315m-12.75-9.18v5.865a1.276,1.276,0,0,0,1.275,1.275H104.79a1.276,1.276,0,0,0,1.275-1.275v-5.865Z" transform="translate(-67.053 -154.22)" fill="#222831"/>
        <path id="Path_31131" data-name="Path 31131" d="M108.272,227.048H93.443a1.02,1.02,0,0,1,0-2.04h14.829a1.02,1.02,0,0,1,0,2.04" transform="translate(-68.858 -167.63)" fill="#222831"/>
        <path id="Path_31132" data-name="Path 31132" d="M230.61,83.048h-4.59a1.02,1.02,0,0,1,0-2.04h4.59a1.02,1.02,0,0,1,0,2.04" transform="translate(-167.627 -60.351)" fill="#222831"/>
        <path id="Path_31133" data-name="Path 31133" d="M5.61,83.048H1.02a1.02,1.02,0,0,1,0-2.04H5.61a1.02,1.02,0,0,1,0,2.04" transform="translate(-0.003 -60.351)" fill="#222831"/>
        <path id="Path_31134" data-name="Path 31134" d="M8.976,112.343a1.02,1.02,0,0,1-.511-1.9l3.975-2.3a1.02,1.02,0,0,1,1.02,1.767l-3.975,2.3a1.014,1.014,0,0,1-.509.137" transform="translate(-5.929 -80.465)" fill="#222831"/>
        <path id="Path_31135" data-name="Path 31135" d="M224.449,112.343a1.014,1.014,0,0,1-.509-.137l-3.975-2.3a1.02,1.02,0,0,1,1.02-1.767l3.975,2.3a1.02,1.02,0,0,1-.511,1.9" transform="translate(-163.496 -80.465)" fill="#222831"/>
        <path id="Path_31136" data-name="Path 31136" d="M220.476,49.342a1.02,1.02,0,0,1-.511-1.9l3.975-2.3a1.02,1.02,0,1,1,1.02,1.767l-3.975,2.3a1.014,1.014,0,0,1-.509.137" transform="translate(-163.496 -33.53)" fill="#222831"/>
        <path id="Path_31137" data-name="Path 31137" d="M12.949,49.342a1.014,1.014,0,0,1-.509-.137l-3.975-2.3a1.02,1.02,0,1,1,1.02-1.767l3.975,2.3a1.02,1.02,0,0,1-.511,1.9" transform="translate(-5.929 -33.53)" fill="#222831"/>
        <path id="Path_31138" data-name="Path 31138" d="M102.405,69.818a7.905,7.905,0,1,1,7.905-7.905,7.914,7.914,0,0,1-7.905,7.905m0-13.77a5.865,5.865,0,1,0,5.865,5.865,5.871,5.871,0,0,0-5.865-5.865" transform="translate(-70.405 -40.236)" fill="#222831"/>
        <path id="Path_31139" data-name="Path 31139" d="M81.233,54.383h-4.59a1.02,1.02,0,0,1-1.02-1.02V50.491a12.347,12.347,0,0,1-2.861-1.181l-2.028,2.028a1.02,1.02,0,0,1-1.442,0l-3.246-3.246a1.02,1.02,0,0,1,0-1.442l2.028-2.028a12.349,12.349,0,0,1-1.181-2.861H64.02A1.02,1.02,0,0,1,63,40.741v-4.59a1.02,1.02,0,0,1,1.02-1.02h2.873a12.34,12.34,0,0,1,1.181-2.861l-2.028-2.028a1.02,1.02,0,0,1,0-1.442l3.246-3.246a1.02,1.02,0,0,1,1.442,0l2.028,2.028A12.349,12.349,0,0,1,75.623,26.4V23.528a1.02,1.02,0,0,1,1.02-1.02h4.59a1.02,1.02,0,0,1,1.02,1.02V26.4a12.349,12.349,0,0,1,2.861,1.181l2.028-2.028a1.02,1.02,0,0,1,1.442,0L91.83,28.8a1.02,1.02,0,0,1,0,1.442L89.8,32.27a12.34,12.34,0,0,1,1.181,2.861h2.873a1.02,1.02,0,0,1,1.02,1.02v4.59a1.02,1.02,0,0,1-1.02,1.02H90.983A12.349,12.349,0,0,1,89.8,44.622L91.83,46.65a1.02,1.02,0,0,1,0,1.442l-3.246,3.246a1.02,1.02,0,0,1-1.442,0L85.114,49.31a12.347,12.347,0,0,1-2.861,1.181v2.872a1.02,1.02,0,0,1-1.02,1.02m-3.57-2.04h2.55V49.686a1.02,1.02,0,0,1,.817-1A10.348,10.348,0,0,0,84.7,47.17a1.019,1.019,0,0,1,1.285.129l1.876,1.876,1.8-1.8L87.79,45.5a1.019,1.019,0,0,1-.129-1.285,10.346,10.346,0,0,0,1.517-3.673,1.02,1.02,0,0,1,1-.817h2.658v-2.55H90.177a1.02,1.02,0,0,1-1-.817,10.344,10.344,0,0,0-1.517-3.673A1.019,1.019,0,0,1,87.79,31.4l1.876-1.876-1.8-1.8-1.876,1.876a1.019,1.019,0,0,1-1.285.129,10.346,10.346,0,0,0-3.673-1.517,1.02,1.02,0,0,1-.817-1V24.548h-2.55v2.658a1.02,1.02,0,0,1-.817,1,10.346,10.346,0,0,0-3.673,1.517,1.02,1.02,0,0,1-1.285-.129l-1.876-1.876-1.8,1.8L70.085,31.4a1.019,1.019,0,0,1,.129,1.285A10.344,10.344,0,0,0,68.7,36.354a1.02,1.02,0,0,1-1,.817H65.04v2.55H67.7a1.02,1.02,0,0,1,1,.817,10.346,10.346,0,0,0,1.517,3.673,1.019,1.019,0,0,1-.129,1.285l-1.876,1.876,1.8,1.8L71.888,47.3a1.019,1.019,0,0,1,1.285-.129,10.348,10.348,0,0,0,3.673,1.517,1.02,1.02,0,0,1,.817,1Z" transform="translate(-46.938 -16.768)" fill="#222831"/>
      </g>
    </g>
    <rect id="Rectangle_3850" data-name="Rectangle 3850" width="72" height="72" transform="translate(-1589.885 -18571)" fill="none"/>
  </g>
</svg>
