<svg xmlns="http://www.w3.org/2000/svg" width="24" height="24" viewBox="0 0 24 24">
  <g id="Group_6064" data-name="Group 6064" transform="translate(-561.68 -1245.035)">
    <rect id="Rectangle_3815" data-name="Rectangle 3815" width="24" height="24" transform="translate(561.68 1245.035)" fill="none"/>
    <path id="Favorite" d="M17.335,32.015a.665.665,0,0,1-.469-.193l-7.4-7.334a4.937,4.937,0,0,1,0-7.023,5.034,5.034,0,0,1,7.068,0l.8.793.8-.793a5.034,5.034,0,0,1,7.068,0,4.937,4.937,0,0,1,0,7.023l-7.4,7.334a.665.665,0,0,1-.469.193ZM13,17.347a3.675,3.675,0,0,0-2.6,1.064,3.6,3.6,0,0,0,0,5.129l6.929,6.869,6.929-6.869a3.6,3.6,0,0,0,0-5.129,3.7,3.7,0,0,0-5.19,0L17.8,19.669a.667.667,0,0,1-.939,0L15.6,18.411A3.675,3.675,0,0,0,13,17.347Z" transform="translate(556.68 1233.02)" fill="#ff6464"/>
  </g>
</svg>
