<svg xmlns="http://www.w3.org/2000/svg" xmlns:xlink="http://www.w3.org/1999/xlink" width="72" height="72" viewBox="0 0 72 72">
  <defs>
    <clipPath id="clip-path">
      <rect id="Rectangle_3845" data-name="Rectangle 3845" width="45.353" height="64" fill="none"/>
    </clipPath>
  </defs>
  <g id="Group_6418" data-name="Group 6418" transform="translate(1750 18737)">
    <rect id="Rectangle_3849" data-name="Rectangle 3849" width="72" height="72" transform="translate(-1750 -18737)" fill="none"/>
    <g id="Group_6304" data-name="Group 6304" transform="translate(-1737 -18733)">
      <g id="Group_6303" data-name="Group 6303" clip-path="url(#clip-path)">
        <path id="Path_31100" data-name="Path 31100" d="M39.852,84.784H6.646c-3.01,0-6.646-2.407-6.646-5.4V32.4A5.456,5.456,0,0,1,5.5,27h8.887a.921.921,0,1,1,0,1.842H5.5A3.612,3.612,0,0,0,1.842,32.4V79.388c0,1.881,2.686,3.554,4.8,3.554H39.852a3.612,3.612,0,0,0,3.659-3.554V32.4a3.612,3.612,0,0,0-3.659-3.555H30.964a.921.921,0,1,1,0-1.842h8.887a5.456,5.456,0,0,1,5.5,5.4V79.388a5.455,5.455,0,0,1-5.5,5.4" transform="translate(0 -20.784)" fill="#222831"/>
        <path id="Path_31101" data-name="Path 31101" d="M53.708,101.424H20.5a3.72,3.72,0,0,1-2.208-.9A.921.921,0,0,1,18,99.849V55.238A1.3,1.3,0,0,1,19.357,54H53.708a1.3,1.3,0,0,1,1.357,1.238v44.948a1.3,1.3,0,0,1-1.357,1.238m-33.866-2.06a1.8,1.8,0,0,0,.66.218H53.223V55.842H19.842Z" transform="translate(-13.856 -41.568)" fill="#222831"/>
        <path id="Path_31102" data-name="Path 31102" d="M76,10.129H59.421a.921.921,0,0,1-.921-.921V5.065a.921.921,0,0,1,.921-.921h3.307a5.066,5.066,0,0,1,9.962,0H76a.921.921,0,0,1,.921.921V9.209a.921.921,0,0,1-.921.921M60.342,8.288H75.076v-2.3H71.853a.921.921,0,0,1-.921-.921,3.223,3.223,0,0,0-6.446,0,.921.921,0,0,1-.921.921H60.342ZM72.773,5.065h0Z" transform="translate(-45.032)" fill="#222831"/>
        <path id="Path_31103" data-name="Path 31103" d="M98.5,78.342H81.921a.921.921,0,1,1,0-1.842H98.5a.921.921,0,1,1,0,1.842" transform="translate(-62.353 -58.888)" fill="#222831"/>
        <path id="Path_31104" data-name="Path 31104" d="M88.137,96.342H81.921a.921.921,0,1,1,0-1.842h6.216a.921.921,0,0,1,0,1.842" transform="translate(-62.353 -72.745)" fill="#222831"/>
        <path id="Path_31105" data-name="Path 31105" d="M133.137,96.342h-6.216a.921.921,0,1,1,0-1.842h6.216a.921.921,0,0,1,0,1.842" transform="translate(-96.993 -72.745)" fill="#222831"/>
        <path id="Path_31106" data-name="Path 31106" d="M88.137,123.342H81.921a.921.921,0,1,1,0-1.842h6.216a.921.921,0,0,1,0,1.842" transform="translate(-62.353 -93.529)" fill="#222831"/>
        <path id="Path_31107" data-name="Path 31107" d="M133.137,123.342h-6.216a.921.921,0,0,1,0-1.842h6.216a.921.921,0,0,1,0,1.842" transform="translate(-96.993 -93.529)" fill="#222831"/>
        <path id="Path_31108" data-name="Path 31108" d="M98.5,141.342H81.921a.921.921,0,1,1,0-1.842H98.5a.921.921,0,1,1,0,1.842" transform="translate(-62.353 -107.385)" fill="#222831"/>
        <path id="Path_31109" data-name="Path 31109" d="M87.1,168.342h-5.18a.921.921,0,1,1,0-1.842H87.1a.921.921,0,0,1,0,1.842" transform="translate(-62.353 -128.169)" fill="#222831"/>
        <path id="Path_31110" data-name="Path 31110" d="M129.673,168.342h-7.252a.921.921,0,0,1,0-1.842h7.252a.921.921,0,0,1,0,1.842" transform="translate(-93.529 -128.169)" fill="#222831"/>
        <path id="Path_31111" data-name="Path 31111" d="M98.5,186.342H81.921a.921.921,0,1,1,0-1.842H98.5a.921.921,0,1,1,0,1.842" transform="translate(-62.353 -142.025)" fill="#222831"/>
        <path id="Path_31112" data-name="Path 31112" d="M98.5,213.342H81.921a.921.921,0,0,1,0-1.842H98.5a.921.921,0,1,1,0,1.842" transform="translate(-62.353 -162.809)" fill="#222831"/>
        <path id="Path_31113" data-name="Path 31113" d="M87.1,231.342h-5.18a.921.921,0,0,1,0-1.842H87.1a.921.921,0,1,1,0,1.842" transform="translate(-62.353 -176.665)" fill="#222831"/>
        <path id="Path_31114" data-name="Path 31114" d="M129.673,231.342h-7.252a.921.921,0,0,1,0-1.842h7.252a.921.921,0,0,1,0,1.842" transform="translate(-93.529 -176.665)" fill="#222831"/>
        <path id="Path_31115" data-name="Path 31115" d="M38.992,82.485a.919.919,0,0,1-.651-.27l-2.072-2.072a.921.921,0,1,1,1.3-1.3l1.421,1.421,3.493-3.493a.921.921,0,0,1,1.3,1.3l-4.144,4.144a.919.919,0,0,1-.651.27" transform="translate(-27.712 -58.888)" fill="#222831"/>
        <path id="Path_31116" data-name="Path 31116" d="M38.992,127.485a.919.919,0,0,1-.651-.27l-2.072-2.072a.921.921,0,1,1,1.3-1.3l1.421,1.421,3.493-3.493a.921.921,0,0,1,1.3,1.3l-4.144,4.144a.919.919,0,0,1-.651.27" transform="translate(-27.712 -93.529)" fill="#222831"/>
        <path id="Path_31117" data-name="Path 31117" d="M38.992,172.485a.919.919,0,0,1-.651-.27l-2.072-2.072a.921.921,0,1,1,1.3-1.3l1.421,1.421,3.493-3.493a.921.921,0,0,1,1.3,1.3l-4.144,4.144a.919.919,0,0,1-.651.27" transform="translate(-27.712 -128.169)" fill="#222831"/>
        <path id="Path_31118" data-name="Path 31118" d="M38.992,217.485a.919.919,0,0,1-.651-.27l-2.072-2.072a.921.921,0,1,1,1.3-1.3l1.421,1.421,3.493-3.493a.921.921,0,0,1,1.3,1.3l-4.144,4.144a.919.919,0,0,1-.651.27" transform="translate(-27.712 -162.809)" fill="#222831"/>
      </g>
    </g>
  </g>
</svg>
