<svg xmlns="http://www.w3.org/2000/svg" xmlns:xlink="http://www.w3.org/1999/xlink" width="72" height="72" viewBox="0 0 72 72">
  <defs>
    <clipPath id="clip-path">
      <rect id="Rectangle_3846" data-name="Rectangle 3846" width="63.023" height="63.018" fill="none"/>
    </clipPath>
  </defs>
  <g id="Group_6321" data-name="Group 6321" transform="translate(1007 18737)">
    <g id="Group_6306" data-name="Group 6306" transform="translate(-1003 -18733)">
      <g id="Group_6305" data-name="Group 6305" clip-path="url(#clip-path)">
        <path id="Path_31119" data-name="Path 31119" d="M20.105,180.269H14.941a1.082,1.082,0,0,1,0-2.164h4.082v-4.082a1.082,1.082,0,1,1,2.164,0v5.164a1.082,1.082,0,0,1-1.082,1.082" transform="translate(-10.11 -126.163)" fill="#222831"/>
        <path id="Path_31120" data-name="Path 31120" d="M183.586,30.716a1.082,1.082,0,0,1-1.082-1.082V24.47a1.082,1.082,0,0,1,1.082-1.082h5.164a1.082,1.082,0,1,1,0,2.164h-4.082v4.082a1.082,1.082,0,0,1-1.082,1.082" transform="translate(-133.14 -17.062)" fill="#222831"/>
        <path id="Path_31121" data-name="Path 31121" d="M65.58,82.584a31.5,31.5,0,0,1-18.441-5.949,1.082,1.082,0,0,1,1.268-1.754A29.35,29.35,0,0,0,86.325,30.321c-.553-.553-1.134-1.09-1.727-1.6A1.082,1.082,0,0,1,86,27.08c.636.543,1.259,1.118,1.852,1.711a31.512,31.512,0,0,1-19.9,53.7q-1.19.09-2.376.089" transform="translate(-34.062 -19.566)" fill="#222831"/>
        <path id="Path_31122" data-name="Path 31122" d="M9.151,53.228a1.078,1.078,0,0,1-.795-.348A31.512,31.512,0,0,1,9.229,9.225,31.23,31.23,0,0,1,27.265.281a31.751,31.751,0,0,1,19.4,3.59,1.082,1.082,0,1,1-1.042,1.9A29.566,29.566,0,0,0,27.555,2.426,29.351,29.351,0,0,0,2.169,30.96,29.192,29.192,0,0,0,9.945,51.412a1.082,1.082,0,0,1-.794,1.816" transform="translate(0 0)" fill="#222831"/>
        <path id="Path_31123" data-name="Path 31123" d="M77.471,91.925A14.471,14.471,0,1,1,91.942,77.454,14.487,14.487,0,0,1,77.471,91.925m0-26.778A12.307,12.307,0,1,0,89.778,77.454,12.321,12.321,0,0,0,77.471,65.147" transform="translate(-45.959 -45.947)" fill="#222831"/>
        <path id="Path_31124" data-name="Path 31124" d="M57.534,77.465H51.448a1.082,1.082,0,0,1-1.082-1.082V73.35a19.04,19.04,0,0,1-6.3-2.613l-2.147,2.146a1.081,1.081,0,0,1-1.53,0l-4.3-4.3a1.082,1.082,0,0,1,0-1.53L38.229,64.9a19.04,19.04,0,0,1-2.613-6.3H32.582A1.082,1.082,0,0,1,31.5,57.517V51.431a1.082,1.082,0,0,1,1.082-1.082h3.033a19.033,19.033,0,0,1,2.613-6.3L36.082,41.9a1.082,1.082,0,0,1,0-1.53l4.3-4.3a1.082,1.082,0,0,1,1.53,0l2.147,2.147a19.036,19.036,0,0,1,6.3-2.613V32.565a1.082,1.082,0,0,1,1.082-1.082h6.086a1.082,1.082,0,0,1,1.082,1.082V35.6a19.039,19.039,0,0,1,6.3,2.613l2.147-2.146a1.082,1.082,0,0,1,1.53,0l4.3,4.3a1.082,1.082,0,0,1,0,1.53l-2.146,2.147a19.038,19.038,0,0,1,2.613,6.3H76.4a1.082,1.082,0,0,1,1.082,1.082v6.086A1.082,1.082,0,0,1,76.4,58.6H73.367a19.036,19.036,0,0,1-2.613,6.3L72.9,67.05a1.082,1.082,0,0,1,0,1.53l-4.3,4.3a1.082,1.082,0,0,1-1.53,0L64.92,70.737a19.037,19.037,0,0,1-6.3,2.613v3.033a1.082,1.082,0,0,1-1.082,1.082m-5-2.164h3.922V72.457a1.082,1.082,0,0,1,.9-1.067,16.947,16.947,0,0,0,7.072-2.932,1.082,1.082,0,0,1,1.393.116l2.013,2.013,2.773-2.773L68.592,65.8a1.082,1.082,0,0,1-.116-1.393,16.95,16.95,0,0,0,2.932-7.072,1.082,1.082,0,0,1,1.067-.9h2.844V52.513H72.474a1.082,1.082,0,0,1-1.067-.9,16.951,16.951,0,0,0-2.932-7.071,1.082,1.082,0,0,1,.116-1.393l2.013-2.013L67.832,38.36l-2.014,2.013a1.081,1.081,0,0,1-1.393.116,16.947,16.947,0,0,0-7.071-2.932,1.082,1.082,0,0,1-.9-1.067V33.647H52.53v2.845a1.082,1.082,0,0,1-.9,1.067,16.945,16.945,0,0,0-7.071,2.932,1.081,1.081,0,0,1-1.393-.116L41.151,38.36l-2.773,2.774,2.014,2.013a1.082,1.082,0,0,1,.116,1.393,16.95,16.95,0,0,0-2.932,7.071,1.082,1.082,0,0,1-1.067.9H33.664v3.922h2.844a1.082,1.082,0,0,1,1.067.9,16.948,16.948,0,0,0,2.932,7.072,1.082,1.082,0,0,1-.116,1.393l-2.013,2.013,2.773,2.773,2.014-2.013a1.082,1.082,0,0,1,1.393-.116,16.947,16.947,0,0,0,7.071,2.932,1.082,1.082,0,0,1,.9,1.067Z" transform="translate(-22.98 -22.967)" fill="#222831"/>
      </g>
    </g>
    <rect id="Rectangle_3853" data-name="Rectangle 3853" width="72" height="72" transform="translate(-1007 -18737)" fill="none"/>
  </g>
</svg>
