<svg xmlns="http://www.w3.org/2000/svg" width="32" height="32" viewBox="0 0 32 32">
  <g id="Group_6064" data-name="Group 6064" transform="translate(-561.68 -1245.035)">
    <rect id="Rectangle_3815" data-name="Rectangle 3815" width="32" height="32" transform="translate(561.68 1245.035)" fill="none"/>
    <path id="Favorite" d="M19.668,36.015a.831.831,0,0,1-.587-.242L9.833,26.605a6.171,6.171,0,0,1,0-8.779,6.293,6.293,0,0,1,8.835,0l1,.991,1-.991a6.292,6.292,0,0,1,8.835,0,6.171,6.171,0,0,1,0,8.779l-9.248,9.168a.831.831,0,0,1-.587.242ZM14.251,17.68a4.594,4.594,0,0,0-3.244,1.33,4.5,4.5,0,0,0,0,6.411l8.661,8.587,8.661-8.586a4.5,4.5,0,0,0,0-6.411,4.621,4.621,0,0,0-6.488,0l-1.587,1.573a.833.833,0,0,1-1.174,0L17.495,19.01A4.594,4.594,0,0,0,14.251,17.68Z" transform="translate(557.68 1235.02)" fill="#ff6464"/>
  </g>
</svg>
