<svg xmlns="http://www.w3.org/2000/svg" xmlns:xlink="http://www.w3.org/1999/xlink" width="95.963" height="100" viewBox="0 0 95.963 100"><defs><clipPath id="a"><rect width="95.963" height="100" fill="#8eb84a"/></clipPath></defs><g clip-path="url(#a)"><path d="M94.446,10.1H75.756V1.517A1.515,1.515,0,0,0,74.242,0H17.675A1.516,1.516,0,0,0,16.6.446L.444,16.606A1.515,1.515,0,0,0,0,17.677V98.485A1.515,1.515,0,0,0,1.515,100H74.242a1.513,1.513,0,0,0,1.515-1.515V75.227a1.515,1.515,0,0,0-1.515-1.515H57.008A1.531,1.531,0,0,0,55.5,75.067a1.513,1.513,0,0,0,.529,1.338,5.8,5.8,0,1,1-7.44-.015,1.514,1.514,0,0,0-.971-2.677H36.754V63.958a8.946,8.946,0,0,0,6.219.763,8.739,8.739,0,0,0,6.467-6.5,8.891,8.891,0,0,0-1.683-7.571,8.829,8.829,0,0,0-11-2.325v-6.54l17.175,0v4.8a1.516,1.516,0,0,0,1.515,1.515h9.244a8.824,8.824,0,0,0,7.831,12.919,9.187,9.187,0,0,0,2.063-.235,8.727,8.727,0,0,0,6.5-6.467,8.943,8.943,0,0,0-.76-6.217H94.446a1.515,1.515,0,0,0,1.515-1.515V11.617A1.515,1.515,0,0,0,94.446,10.1M16.162,5.175V16.162H5.173ZM55.537,30.683A1.515,1.515,0,0,0,53.929,32.2V38.75l-18.69,0a1.515,1.515,0,0,0-1.517,1.513v11.2a1.516,1.516,0,0,0,2.679.971,5.805,5.805,0,1,1,.013,7.438,1.547,1.547,0,0,0-1.088-.535,1.514,1.514,0,0,0-1.6,1.51V75.227a1.517,1.517,0,0,0,1.517,1.517h9.244a8.822,8.822,0,0,0,2.325,11,8.9,8.9,0,0,0,7.571,1.681,8.737,8.737,0,0,0,6.5-6.467,8.929,8.929,0,0,0-.76-6.217H72.727V96.971H3.029V19.192H17.677a1.513,1.513,0,0,0,1.515-1.515V3.029H72.727V10.1H55.444a1.516,1.516,0,0,0-1.515,1.515v11.2a1.514,1.514,0,0,0,2.679.969,5.8,5.8,0,1,1,.01,7.44,1.547,1.547,0,0,0-1.081-.538M92.931,45.062H77.212a1.532,1.532,0,0,0-1.506,1.354,1.516,1.516,0,0,0,.529,1.34,5.8,5.8,0,1,1-7.44-.015,1.516,1.516,0,0,0-.971-2.679H56.958v-9.75a8.913,8.913,0,0,0,6.219.758,8.731,8.731,0,0,0,6.467-6.5A8.89,8.89,0,0,0,67.963,22a8.825,8.825,0,0,0-11-2.325V13.133H92.931Z" transform="translate(0)" fill="#8eb84a"/></g></svg>
