<svg xmlns="http://www.w3.org/2000/svg" viewBox="0 0 46.07 95.77"><defs><style>.cls-1{fill:#fff;}.cls-2,.cls-3{fill:none;stroke:#fff;stroke-width:1.5px;}.cls-2{stroke-miterlimit:10;}.cls-3{stroke-linecap:round;stroke-linejoin:round;}</style></defs><g id="Layer_2" data-name="Layer 2"><g id="Layer_1-2" data-name="Layer 1"><path class="cls-1" d="M17,87.8a2.94,2.94,0,0,0-.23-1.19,2,2,0,0,0-.66-.82,3.17,3.17,0,0,0-1-.46,5.22,5.22,0,0,0-1.3-.15H11.51V95.66h2.62a2.92,2.92,0,0,0,2.19-.8,3,3,0,0,0,.81-2.19A2.74,2.74,0,0,0,16.66,91a2.81,2.81,0,0,0-1.4-.91,2.47,2.47,0,0,0,1.28-.75A2.37,2.37,0,0,0,17,87.8Zm-1.32,4.87a1.92,1.92,0,0,1-.45,1.42,2,2,0,0,1-1.42.45H13V90.8h.75a2,2,0,0,1,1.42.44A2,2,0,0,1,15.63,92.67Zm-1.87-3H13V86.3h.61l.54,0a2.15,2.15,0,0,1,.5.09,2.93,2.93,0,0,1,.39.16.79.79,0,0,1,.32.27,1.57,1.57,0,0,1,.18.39,1.82,1.82,0,0,1,.08.55A1.65,1.65,0,0,1,13.76,89.67Zm7.37,6v-.8l-.33.28a2.87,2.87,0,0,1-.31.24,2.09,2.09,0,0,1-.37.21,1.73,1.73,0,0,1-.4.12,2.07,2.07,0,0,1-.5.06,1,1,0,0,1-.79-.35,1.27,1.27,0,0,1-.3-.86V88.18h1.5V94.1a.52.52,0,0,0,.14.38.5.5,0,0,0,.38.15,1,1,0,0,0,.24,0,.89.89,0,0,0,.23-.1l.18-.12.18-.15.15-.13V88.18h1.5v7.48Zm4.36,0H24V88.18h1.5Zm0-8.61H24v-1.5h1.5Zm1.44-1.87h1.5V95.66h-1.5ZM34.5,95.66V85.19H33v3.73c-.13-.14-.24-.24-.32-.32a2.57,2.57,0,0,0-.32-.25,1.23,1.23,0,0,0-.41-.21,1.49,1.49,0,0,0-.47-.07,1.83,1.83,0,0,0-.59.09,1.4,1.4,0,0,0-.45.26,1.33,1.33,0,0,0-.33.4,2.45,2.45,0,0,0-.22.5,3,3,0,0,0-.14.6,5.23,5.23,0,0,0-.08.65c0,.21,0,.44,0,.7q0,1.07,0,1.35a9.2,9.2,0,0,0,.12,1.11,4.84,4.84,0,0,0,.31,1,1.76,1.76,0,0,0,.57.76,1.39,1.39,0,0,0,.87.28,1.49,1.49,0,0,0,.81-.22A3.77,3.77,0,0,0,33,95v.67Zm-2.62-1.12a.57.57,0,0,1-.37-.14,1,1,0,0,1-.23-.42,3.38,3.38,0,0,1-.11-.57,6.15,6.15,0,0,1,0-.66c0-.52,0-1.21,0-2.08a3.8,3.8,0,0,1,0-.52,2.09,2.09,0,0,1,.11-.43.61.61,0,0,1,.6-.42,2.17,2.17,0,0,1,1.13.3v4.71A3.12,3.12,0,0,1,31.88,94.54Z"/><path class="cls-2" d="M5.46,35.21h9.65a.51.51,0,0,1,.51.51V76a3.48,3.48,0,0,1-3.48,3.48H8.67a3.72,3.72,0,0,1-3.72-3.72v-40a.51.51,0,0,1,.51-.51Z"/><path class="cls-3" d="M19.83,9.42a9.78,9.78,0,0,0-5-8.56.59.59,0,0,0-.89.5V6a1.91,1.91,0,0,1-1.9,1.9H8.55A1.91,1.91,0,0,1,6.65,6V1.35A.58.58,0,0,0,5.81.82,9.76,9.76,0,0,0,.75,9.42a9.7,9.7,0,0,0,7.18,9.44V35.21h5V18.8A9.71,9.71,0,0,0,19.83,9.42Z"/><polyline class="cls-3" points="33.34 34.55 33.34 10.91 31.8 6.97 33.8 0.75 37.89 0.75 39.83 6.9 38.44 10.76 38.44 34.26"/><line class="cls-3" x1="26.52" y1="68.06" x2="45.32" y2="68.06"/><path class="cls-3" d="M41.11,43a4.21,4.21,0,0,1,4.21-4.21V35.52a1,1,0,0,0-1-1H27.48a1,1,0,0,0-1,1v3.26a4.21,4.21,0,1,1,0,8.41V70.48a9,9,0,0,0,9,9h.9a9,9,0,0,0,9-9V47.19A4.21,4.21,0,0,1,41.11,43Z"/></g></g></svg>