<svg xmlns="http://www.w3.org/2000/svg" viewBox="0 0 78.3 83.31"><defs><style>.cls-1{fill:#fff;}.cls-2{fill:none;stroke:#fff;stroke-linecap:round;stroke-linejoin:round;stroke-width:1.5px;}</style></defs><g id="Layer_2" data-name="Layer 2"><g id="Layer_1-2" data-name="Layer 1"><path class="cls-1" d="M32.16,76.16v-.33c0-.21,0-.38,0-.53a2.6,2.6,0,0,0-.07-.45,1.21,1.21,0,0,0-.13-.38,1.54,1.54,0,0,0-.23-.29.86.86,0,0,0-.34-.19,1.77,1.77,0,0,0-.49-.06,1.49,1.49,0,0,0-.62.12,1.14,1.14,0,0,0-.4.3,1.17,1.17,0,0,0-.22.49,3.13,3.13,0,0,0-.1.6,7.1,7.1,0,0,0,0,.72v3.71c0,.24,0,.47,0,.67a4.29,4.29,0,0,0,.13.6,1.55,1.55,0,0,0,.24.5,1,1,0,0,0,.39.33,1.34,1.34,0,0,0,.58.12,1.26,1.26,0,0,0,.57-.12,1.08,1.08,0,0,0,.37-.33,1.79,1.79,0,0,0,.22-.5,4.69,4.69,0,0,0,.1-.6c0-.19,0-.42,0-.67V79.5h1.49v.37a5.92,5.92,0,0,1-.15,1.41,3.08,3.08,0,0,1-.45,1.08,2.14,2.14,0,0,1-.86.71,3.23,3.23,0,0,1-1.31.24,3.12,3.12,0,0,1-1.15-.19,2.12,2.12,0,0,1-.82-.51,2.5,2.5,0,0,1-.52-.82,4.3,4.3,0,0,1-.28-1A9.43,9.43,0,0,1,28,79.49v-3a9.43,9.43,0,0,1,.08-1.26,4.3,4.3,0,0,1,.28-1,2.5,2.5,0,0,1,.52-.82,2.12,2.12,0,0,1,.82-.51,3.8,3.8,0,0,1,2.4,0,1.94,1.94,0,0,1,.85.63,2.83,2.83,0,0,1,.47,1,5.32,5.32,0,0,1,.19,1.29c0,.07,0,.18,0,.34Zm6.2.22a3.27,3.27,0,0,1,.52,2v2.23a3.27,3.27,0,0,1-.52,2,2,2,0,0,1-1.71.7,2,2,0,0,1-1.71-.7,3.34,3.34,0,0,1-.51-2V78.38a3.34,3.34,0,0,1,.51-2,2,2,0,0,1,1.71-.7A2,2,0,0,1,38.36,76.38Zm-1,2c0-.14,0-.25,0-.32s0-.17,0-.29a1.42,1.42,0,0,0,0-.28c0-.07-.05-.15-.08-.23a.53.53,0,0,0-.13-.2.64.64,0,0,0-.2-.11.78.78,0,0,0-.28,0,.76.76,0,0,0-.27,0,.55.55,0,0,0-.2.11.53.53,0,0,0-.13.2c0,.08-.06.16-.08.23a1.42,1.42,0,0,0,0,.28c0,.12,0,.22,0,.29v2.87c0,.07,0,.17,0,.29a1.55,1.55,0,0,0,0,.29l.08.23a.57.57,0,0,0,.13.19.56.56,0,0,0,.2.12.77.77,0,0,0,.27,0,.79.79,0,0,0,.28,0,.67.67,0,0,0,.2-.12.57.57,0,0,0,.13-.19l.08-.23a1.55,1.55,0,0,0,0-.29c0-.12,0-.22,0-.29s0-.18,0-.32Zm5.91,4.83v-.68a3.49,3.49,0,0,1-.68.57,1.52,1.52,0,0,1-.8.21A1.35,1.35,0,0,1,41,83a1.67,1.67,0,0,1-.57-.75,5.65,5.65,0,0,1-.3-1,9,9,0,0,1-.12-1.1c0-.19,0-.63,0-1.34q0-.37,0-.69c0-.21.05-.42.08-.65a5.75,5.75,0,0,1,.14-.59,2.5,2.5,0,0,1,.23-.5,1.61,1.61,0,0,1,.32-.4,1.37,1.37,0,0,1,.45-.24,1.5,1.5,0,0,1,.58-.1,1.7,1.7,0,0,1,.46.07,1.19,1.19,0,0,1,.42.21,3.31,3.31,0,0,1,.31.25l.31.31V72.83H44.8V83.21Zm0-1.35V77.2a2.1,2.1,0,0,0-1.11-.3.61.61,0,0,0-.6.42,3.25,3.25,0,0,0-.11.42c0,.15,0,.32,0,.52,0,.86,0,1.55,0,2,0,.25,0,.47,0,.66a3.27,3.27,0,0,0,.12.56.93.93,0,0,0,.22.42.55.55,0,0,0,.37.14A2.83,2.83,0,0,0,43.31,81.86Zm4.24-1.76a3.38,3.38,0,0,0,0,.45c0,.15,0,.3,0,.45a2,2,0,0,0,.06.42,2.34,2.34,0,0,0,.13.35A.61.61,0,0,0,48,82a.66.66,0,0,0,.32.08.71.71,0,0,0,.38-.09.56.56,0,0,0,.23-.27,2.42,2.42,0,0,0,.1-.36,2.81,2.81,0,0,0,0-.45v-.31h1.48v.29a2.9,2.9,0,0,1-.59,1.8,2.06,2.06,0,0,1-1.64.61,2.13,2.13,0,0,1-.94-.19,1.7,1.7,0,0,1-.63-.48,2.57,2.57,0,0,1-.38-.76,6.58,6.58,0,0,1-.2-.94c0-.31-.06-.67-.06-1.08a8,8,0,0,1,0-1,10,10,0,0,1,.07-1,3.7,3.7,0,0,1,.22-.87,2.08,2.08,0,0,1,.39-.69,1.62,1.62,0,0,1,.63-.44,2.31,2.31,0,0,1,.91-.17,2.39,2.39,0,0,1,.84.13,1.52,1.52,0,0,1,.6.37,2.73,2.73,0,0,1,.4.56,2.54,2.54,0,0,1,.24.75,6.53,6.53,0,0,1,.11.86,9.41,9.41,0,0,1,0,1v.18h-3v.6Zm0-1.35H49v-.44a2.93,2.93,0,0,0-.13-1,.68.68,0,0,0-.23-.33.57.57,0,0,0-.37-.12.6.6,0,0,0-.38.12.66.66,0,0,0-.22.35,2.46,2.46,0,0,0-.11.45,4,4,0,0,0,0,.53Z"/><line class="cls-2" x1="34.55" y1="34.56" x2="43.94" y2="17.89"/><polyline class="cls-2" points="46.81 20.45 53.95 26.22 46.81 32.08"/><polyline class="cls-2" points="31.43 20.45 24.29 26.22 31.43 32.08"/><rect class="cls-2" x="6.4" y="6.05" width="66.28" height="40.81" rx="1.81"/><rect class="cls-2" x="0.75" y="0.75" width="76.8" height="51.18" rx="3.45"/><path class="cls-2" d="M35.26,51.93v4.29S24,57.19,22,59.65s-.31,5.41.62,5.52,33.18,0,33.18,0a3.35,3.35,0,0,0,1.27-3.41,4.62,4.62,0,0,0-3.44-3.57c-1-.27-10.49-1.87-10.49-1.87V51.93Z"/></g></g></svg>