<svg xmlns="http://www.w3.org/2000/svg" viewBox="0 0 82.12 56.43"><defs><style>.cls-1{fill:#fff;}.cls-2{fill:none;stroke:#fff;stroke-linecap:round;stroke-linejoin:round;stroke-width:2px;}</style></defs><g id="Layer_2" data-name="Layer 2"><g id="Layer_1-2" data-name="Layer 1"><path class="cls-1" d="M4.47,43.92v10.3c6.2.77,5.2-2.71,5.22-7.36C10,43.52,6.84,43.88,4.47,43.92Zm3,1.21c1.38.8.47,4.09.72,5.41.2,1.76-.35,2.9-2.28,2.58V45A5.75,5.75,0,0,1,7.5,45.13ZM12.45,45v3.31h1.84v1.11H12.45v3.68H15v1.1H11V43.92h4V45Zm6.14,4.42,1.09-5.52h1.47l-2.21,10.3H17.47l-2.21-10.3h1.48c.35,1.73,1.28,6.4,1.46,8.09ZM23.23,44c-2.31,1-1.29,4.92-1.51,6.87a2.94,2.94,0,0,0,4.17,3.18c2.3-1,1.3-4.94,1.51-6.92C27.62,44.55,25.55,43.2,23.23,44Zm2.7,2.77c-.18,1.57,1,8.26-2.44,5.84a17.54,17.54,0,0,1,0-7.18A1.43,1.43,0,0,1,25.93,46.81Zm2.76-2.89v10.3h1.47V49.44c4.26,1.13,5.16-5.48,1.11-5.52ZM32,45.41c1,1.44.1,3.38-1.83,2.92V45C30.83,45,31.54,45,32,45.41Zm4.19-.09c-1.22,1.53,1.33,2.92,2.28,3.75,5,4.1-3.55,8.29-4,2.21l1.47-.37c-.23,3.3,3.82,2.45,2.21,0-1.18-1.45-3.84-2.34-3.69-4.6-.09-3.5,5.64-3.16,5.53.19l-1.48.37C38.55,45.6,37.27,44.42,36.18,45.32Zm7.16,1.54v9.57h1.47V53.56c4.61,4.11,4.53-10.37,0-6v-.74Zm1.59,1.34c1.42-1.05,1.85.79,1.72,1.92.09,1.32.14,3.93-1.84,2.7V48.27Zm5.87-1.34v1a1.83,1.83,0,0,1,1.84-1.07v1.63c-3-1.44-1.49,4.63-1.84,5.81H49.33V46.86Zm4.53-.1c-1.7,0-2.19,1.07-2.21,2.68.05,1.83-.49,5,2.21,4.89,1.7,0,2.18-1.07,2.2-2.68C57.49,49.82,58,46.63,55.33,46.76Zm.73,4.89c.32,1-.93,2.23-1.41.89a26.57,26.57,0,0,1,0-4C56.32,46.28,56.11,50.75,56.06,51.65Zm5.26-2.21c.07-.68-.21-2-1.11-1.41-.69,1.15-.28,2-.38,3.61-.17,1.91,1.76,2,1.49,0h1.47c.26,4-5.16,3.1-4.41-.63-1.11-4,4.21-6.5,4.41-1.58Zm3.74,1.47v-.37H68c0-1.57-.14-3.88-2.2-3.78-3.06.12-2.51,5-1.57,6.9a2.22,2.22,0,0,0,3.76-2H66.53C66.57,54.38,64.56,52.78,65.06,50.91Zm0-1.51c0-2.31,1.84-1.47,1.46.41H65.06Zm5.4-1.24a.77.77,0,0,0,.17,1.16c5.8,2.91.13,7.91-1.84,3.06L69.9,52c.46,2,2.73.87,1.47-.48a18.72,18.72,0,0,1-2.23-1.78c-1.86-3,3.7-4.31,4.07-1l-1.11.37C71.93,48.37,71.14,47.57,70.46,48.16Zm5,0a.76.76,0,0,0,.18,1.16c5.8,2.91.12,7.91-1.84,3.06l1.1-.37c.47,2,2.74.87,1.47-.48a19.44,19.44,0,0,1-2.22-1.78c-1.86-3,3.69-4.31,4.06-1l-1.1.37C77,48.37,76.18,47.57,75.49,48.16Z"/><path class="cls-2" d="M41,22.6c1.75,1.5,3.55,2.93,5.42,4.27a29,29,0,0,0,21.17,5.58"/><path class="cls-2" d="M34.93,17.18c-3.75-3.51-7.43-7.12-11.35-10.46C20.77,4.33,17.44,1.94,13.81,2h0L13,2.07A10,10,0,0,0,6.87,5.56C3,9.9,2.17,16.31,3.6,22c.12.49.26,1,.42,1.45,1.78,5.46,5.57,8.85,11.3,9.23"/><path class="cls-2" d="M67.24,2h0A7.61,7.61,0,0,1,69,1.9c5.27.36,8.79,5.55,10,10.36a15.54,15.54,0,0,1,.33,1.56c1.24,8.05-3,20.33-13.23,18.34-4.14-.8-7.25-3.92-10.18-6.74s-5.63-5.58-8.59-8.22"/><path class="cls-2" d="M40.82,11.67q-4.51-3.66-9.31-7C24-.53,14.94,1.71,13.81,2h0l-.09,0"/><polyline class="cls-2" points="1 27.36 3.61 21.96 8.65 24.3"/><polyline class="cls-2" points="73.69 9.93 78.96 12.36 81.12 6.67"/><path class="cls-2" d="M67.24,2A12.91,12.91,0,0,0,61.4,4.76C56.45,8.6,52,13,47.33,17.2c-2.07,1.87-4.17,3.69-6.36,5.4-.71.58-1.44,1.12-2.17,1.65C32.2,29.07,24.24,33,15.86,32.71a4.73,4.73,0,0,1-.54,0c3.5-.13,11.2-7.46,11.2-7.46,1.67-1.62,5.52-5.3,8.41-8,1.41-1.33,2.61-2.44,3.2-3s1.45-1.39,2.69-2.53c3-2.78,7.79-6.91,12.92-9.11A18.78,18.78,0,0,1,67.24,2Z"/><path class="cls-2" d="M15.32,32.67h-.05"/><path class="cls-2" d="M67.26,2h0"/></g></g></svg>