<svg xmlns="http://www.w3.org/2000/svg" viewBox="0 0 88.96 74.2"><defs><style>.cls-1{fill:#fff;}.cls-2,.cls-3{fill:none;stroke:#fff;stroke-width:1.5px;}.cls-2{stroke-linecap:round;stroke-linejoin:round;}.cls-3{stroke-miterlimit:10;}</style></defs><g id="Layer_2" data-name="Layer 2"><g id="Layer_1-2" data-name="Layer 1"><path class="cls-1" d="M24.39,64.41h1.92V74.1H24.92V66.45L23.54,74.1h-1l-1.39-7.65V74.1H19.73V64.41h1.91L23,71.83Zm6.78,3.32a3.11,3.11,0,0,1,.48,1.87v2.08a3.11,3.11,0,0,1-.48,1.87,1.86,1.86,0,0,1-1.59.65,1.86,1.86,0,0,1-1.6-.65,3.11,3.11,0,0,1-.48-1.87V69.6A3.11,3.11,0,0,1,28,67.73a1.86,1.86,0,0,1,1.6-.65A1.86,1.86,0,0,1,31.17,67.73Zm-.9,1.87v-.3c0-.06,0-.16,0-.27a1.57,1.57,0,0,0,0-.27l-.08-.21a.41.41,0,0,0-.12-.18.5.5,0,0,0-.19-.11.66.66,0,0,0-.25,0,.68.68,0,0,0-.26,0,.54.54,0,0,0-.18.11.41.41,0,0,0-.12.18,1.45,1.45,0,0,0-.08.21,1.42,1.42,0,0,0,0,.27c0,.11,0,.21,0,.27V72c0,.07,0,.16,0,.27a1.3,1.3,0,0,0,0,.27,1.45,1.45,0,0,0,.08.21.41.41,0,0,0,.12.18.54.54,0,0,0,.18.11.68.68,0,0,0,.26,0,.66.66,0,0,0,.25,0,.5.5,0,0,0,.19-.11.41.41,0,0,0,.12-.18l.08-.21a1.45,1.45,0,0,0,0-.27c0-.11,0-.2,0-.27V69.6ZM36,67.08a2.2,2.2,0,0,0-.73.13,2.66,2.66,0,0,0-.54.28c-.13.1-.3.25-.5.43v-.74H32.79V74.1h1.39V68.62l.24-.2a1.72,1.72,0,0,1,.27-.13.84.84,0,0,1,.35-.07.46.46,0,0,1,.42.16,1,1,0,0,1,.1.53V74.1H37V68.2a1.19,1.19,0,0,0-.28-.79A.88.88,0,0,0,36,67.08Zm2.27,7H39.6V67.18H38.22Zm0-8H39.6V64.76H38.22Zm4.44-1.38H41.28v2.42h-.69v1h.69v4.3a1.86,1.86,0,0,0,.38,1.26,1.51,1.51,0,0,0,1.19.42,6,6,0,0,0,.85-.07V73a2.48,2.48,0,0,1-.46,0c-.23,0-.39-.06-.46-.19a1.19,1.19,0,0,1-.12-.61v-4h1v-1h-1Zm5.56,3a3.11,3.11,0,0,1,.48,1.87v2.08a3.11,3.11,0,0,1-.48,1.87,2.28,2.28,0,0,1-3.19,0,3.11,3.11,0,0,1-.48-1.87V69.6A3.11,3.11,0,0,1,45,67.73a2.28,2.28,0,0,1,3.19,0Zm-.9,1.87c0-.13,0-.23,0-.3s0-.16,0-.27a1.42,1.42,0,0,0,0-.27c0-.06,0-.13-.07-.21a.52.52,0,0,0-.13-.18.46.46,0,0,0-.18-.11.68.68,0,0,0-.26,0,.66.66,0,0,0-.25,0,.5.5,0,0,0-.19.11.41.41,0,0,0-.12.18l-.08.21A1.57,1.57,0,0,0,46,69c0,.11,0,.21,0,.27V72c0,.07,0,.16,0,.27a1.45,1.45,0,0,0,0,.27l.08.21a.41.41,0,0,0,.12.18.5.5,0,0,0,.19.11.66.66,0,0,0,.25,0,.68.68,0,0,0,.26,0,.46.46,0,0,0,.18-.11.52.52,0,0,0,.13-.18c0-.08.05-.15.07-.21a1.3,1.3,0,0,0,0-.27c0-.11,0-.2,0-.27s0-.17,0-.3Zm4.52-2.21a2.08,2.08,0,0,0-.62.71v-.92H49.84V74.1h1.38V69.43a.9.9,0,0,1,.27-.69,1,1,0,0,1,.69-.26,2.07,2.07,0,0,1,.77.15V67.1l-.22,0A1.38,1.38,0,0,0,51.84,67.39Z"/><polyline class="cls-2" points="7.11 29.86 12.87 29.88 14.96 22.36 18.61 39.19 22.9 13.93 25.34 34.25 29.04 22.78 31.39 35.6 34.73 20.43 38.88 37.23 41.23 28.93 50.02 28.93"/><path class="cls-3" d="M66.58,20.59a11.33,11.33,0,0,0-5.4-1.37,12.09,12.09,0,0,0-1.61.11A11.29,11.29,0,0,0,50,28.92a11.49,11.49,0,0,0-.11,1.57,11.27,11.27,0,0,0,9.66,11.16,12.09,12.09,0,0,0,1.61.11,11.23,11.23,0,0,0,3.35-.51,10.38,10.38,0,0,0,2-.87,12.54,12.54,0,0,0,1.08-.68,10.94,10.94,0,0,0,2.86-2.92c.8-1.16,1.93-2.19,1.93-6.29A11.3,11.3,0,0,0,66.58,20.59Zm0,14.79a7.19,7.19,0,0,1-5.4,2.41,6.64,6.64,0,0,1-1.61-.2,7.28,7.28,0,0,1,0-14.21,7.28,7.28,0,0,1,7,12Z"/><path class="cls-3" d="M68.48,30.49a7.34,7.34,0,0,1-7.3,7.3,6.64,6.64,0,0,1-1.61-.2,7.28,7.28,0,0,1,0-14.21,7.31,7.31,0,0,1,8.91,7.11Z"/><rect class="cls-3" x="76.48" y="40.57" width="6.96" height="17.93" rx="1.33" transform="translate(-11.6 71.05) rotate(-45)"/><rect class="cls-3" x="70.13" y="37.73" width="2.55" height="6.22" rx="0.77" transform="translate(-7.96 62.45) rotate(-45)"/><path class="cls-3" d="M50,28.92a11.49,11.49,0,0,0-.11,1.57,11.27,11.27,0,0,0,9.66,11.16v7.83a1,1,0,0,1-1,1H8.05a1,1,0,0,1-.94-1V8.5a.93.93,0,0,1,.94-.93H58.62a.94.94,0,0,1,1,.93V19.33A11.29,11.29,0,0,0,50,28.92Z"/><path class="cls-3" d="M50,28.92a11.49,11.49,0,0,0-.11,1.57,11.27,11.27,0,0,0,9.66,11.16,12.09,12.09,0,0,0,1.61.11,11.23,11.23,0,0,0,3.35-.51,10.38,10.38,0,0,0,2-.87V51.67a5.44,5.44,0,0,1-5.43,5.43h-55A5.44,5.44,0,0,1,.75,51.67V6.19A5.43,5.43,0,0,1,6.18.75h55a5.43,5.43,0,0,1,5.43,5.44v14.4a11.33,11.33,0,0,0-5.4-1.37,12.09,12.09,0,0,0-1.61.11A11.29,11.29,0,0,0,50,28.92Z"/></g></g></svg>