<svg xmlns="http://www.w3.org/2000/svg" viewBox="0 0 68.82 88.75"><defs><style>.cls-1{fill:#fff;}.cls-2{fill:none;stroke:#fff;stroke-linecap:round;stroke-linejoin:round;stroke-width:1.5px;}</style></defs><g id="Layer_2" data-name="Layer 2"><g id="Layer_1-2" data-name="Layer 1"><path class="cls-1" d="M19.07,76.63h-2.5v10H18V82h1.07a2.25,2.25,0,0,0,2.5-2.5C21.57,77.58,20.73,76.63,19.07,76.63Zm1,3.58a.87.87,0,0,1-.34.43,1.26,1.26,0,0,1-.55.21,4.3,4.3,0,0,1-.79.06H18V77.7h.36a4,4,0,0,1,.87.08,1.06,1.06,0,0,1,.83.84,4,4,0,0,1,.08.86A2.42,2.42,0,0,1,20,80.21Zm6.33,1.41A2.29,2.29,0,0,0,25.8,80a2,2,0,0,0-1.57-.62,2,2,0,0,0-1.57.61,2.39,2.39,0,0,0-.57,1.63h1.43v-.18a1.59,1.59,0,0,1,.18-.7.57.57,0,0,1,.53-.25.58.58,0,0,1,.56.29,1.91,1.91,0,0,1,.15.84v.51l-.15.07-.81.33a5,5,0,0,0-.69.37,2.25,2.25,0,0,0-.66.52,3,3,0,0,0-.37.68,2.54,2.54,0,0,0-.17.94,1.83,1.83,0,0,0,.41,1.16,1.29,1.29,0,0,0,1,.52,1.32,1.32,0,0,0,.44-.08,1,1,0,0,0,.33-.17,1.15,1.15,0,0,0,.27-.27l.2-.31c0-.08.11-.2.18-.34l.19,1.07h1.42a7.15,7.15,0,0,1-.18-1.79ZM24.94,85l0,0-.17.22a.85.85,0,0,1-.22.18.52.52,0,0,1-.29.09c-.48,0-.71-.3-.71-.89a1.09,1.09,0,0,1,.07-.4,1.38,1.38,0,0,1,.17-.32,2.1,2.1,0,0,1,.26-.27l.3-.22.33-.21.29-.19Zm6-5a2.92,2.92,0,0,1,.53,1.8V82H30.09v-.2a3.18,3.18,0,0,0,0-.47,2.92,2.92,0,0,0-.1-.4.65.65,0,0,0-.22-.31.61.61,0,0,0-.36-.11.52.52,0,0,0-.36.13.72.72,0,0,0-.22.36,3.38,3.38,0,0,0-.11.48c0,.16,0,.35,0,.57,0,.46,0,1.16,0,2.08,0,.21,0,.39.05.54a2.28,2.28,0,0,0,.11.45.71.71,0,0,0,.22.33.51.51,0,0,0,.35.12.66.66,0,0,0,.32-.08.45.45,0,0,0,.21-.17A1,1,0,0,0,30,85a2.21,2.21,0,0,0,0-.33c0-.1,0-.23,0-.39v-.17h1.43v.18a4.16,4.16,0,0,1-.14,1,2.19,2.19,0,0,1-.37.75,1.66,1.66,0,0,1-.66.5,2.59,2.59,0,0,1-1,.17,2.06,2.06,0,0,1-.9-.18,1.5,1.5,0,0,1-.61-.45,2.06,2.06,0,0,1-.37-.71,4.42,4.42,0,0,1-.19-.86,9.42,9.42,0,0,1-.07-1q0-.47,0-.93a9.22,9.22,0,0,1,.07-1,4.52,4.52,0,0,1,.19-.87,2.37,2.37,0,0,1,.37-.71,1.58,1.58,0,0,1,.61-.44,2.06,2.06,0,0,1,.9-.18A1.92,1.92,0,0,1,31,80ZM37,79.48,35.44,82,37,86.62H35.61l-1.07-3.45-.71,1v2.5H32.41v-10h1.42v5.49l1.78-2.64Zm4.82,2.14A2.29,2.29,0,0,0,41.29,80a2.06,2.06,0,0,0-1.57-.62,2,2,0,0,0-1.57.61,2.34,2.34,0,0,0-.57,1.63H39a.87.87,0,0,1,0-.18,1.36,1.36,0,0,1,.18-.7.57.57,0,0,1,.53-.25.58.58,0,0,1,.56.29,1.91,1.91,0,0,1,.15.84v.51l-.15.07-.81.33a5.63,5.63,0,0,0-.7.37,2.33,2.33,0,0,0-.65.52,3,3,0,0,0-.37.68,2.35,2.35,0,0,0-.17.94A1.83,1.83,0,0,0,38,86.2a1.28,1.28,0,0,0,1,.52,1.23,1.23,0,0,0,.44-.08,1,1,0,0,0,.34-.17,1.15,1.15,0,0,0,.27-.27l.2-.31c0-.08.11-.2.18-.34l.19,1.07H42a7.15,7.15,0,0,1-.18-1.79ZM40.43,85l0,0a2.7,2.7,0,0,1-.18.22.78.78,0,0,1-.21.18.55.55,0,0,1-.29.09c-.48,0-.72-.3-.72-.89a1.1,1.1,0,0,1,.08-.4,1.37,1.37,0,0,1,.16-.32,3.42,3.42,0,0,1,.27-.27,3.15,3.15,0,0,1,.3-.22l.32-.21.3-.19Zm7.33-5.63h0a1.41,1.41,0,0,0-1.2.83,2.43,2.43,0,0,0-.36-.44,1.55,1.55,0,0,0-.49-.29,2,2,0,0,0-.69-.11,2,2,0,0,0-1.9,1.28A3.41,3.41,0,0,0,42.84,82a3.2,3.2,0,0,0,.72,2.14l-.1.12-.12.16-.12.15-.12.18-.1.17a.75.75,0,0,0-.08.2,1,1,0,0,0-.05.2.69.69,0,0,0,0,.2.46.46,0,0,0,.21.38,1.41,1.41,0,0,0,.51.24,2.22,2.22,0,0,0-.78.63,1.58,1.58,0,0,0-.29,1,.81.81,0,0,0,.07.35.68.68,0,0,0,.23.25,1.44,1.44,0,0,0,.31.19,1.77,1.77,0,0,0,.42.12c.16,0,.31.06.44.08a3.11,3.11,0,0,0,.49,0l.46,0h.43a4.59,4.59,0,0,0,.76-.06,2.52,2.52,0,0,0,.68-.18,2,2,0,0,0,.55-.33,1.46,1.46,0,0,0,.37-.51,1.75,1.75,0,0,0,.14-.7,1.4,1.4,0,0,0-.11-.56,1.36,1.36,0,0,0-.28-.4,1.45,1.45,0,0,0-.42-.27,4.35,4.35,0,0,0-.51-.17c-.17,0-.36-.07-.57-.1l-.38,0-.51,0a4.47,4.47,0,0,1-.47-.07.89.89,0,0,1-.38-.15.28.28,0,0,1-.14-.24.59.59,0,0,1,0-.13.73.73,0,0,1,0-.12l.07-.11a.29.29,0,0,0,0-.1l.72.09a2,2,0,0,0,1.2-.35,2,2,0,0,0,.72-.92A3.58,3.58,0,0,0,47.12,82a3.25,3.25,0,0,0-.07-.67,2.4,2.4,0,0,0-.18-.57.47.47,0,0,1,.24-.13,1,1,0,0,1,.27,0h.46V79.39h-.08ZM44.27,86.3l1.18.14c.76.09,1.14.33,1.14.73a.37.37,0,0,1-.06.21.36.36,0,0,1-.16.14l-.21.1-.27,0-.28,0H44.53a1.39,1.39,0,0,1-.3,0l-.24,0a.39.39,0,0,1-.18-.1.2.2,0,0,1-.06-.15,1.35,1.35,0,0,1,.15-.62A1.12,1.12,0,0,1,44.27,86.3ZM45,83.5c-.59,0-.89-.51-.89-1.52a3.4,3.4,0,0,1,0-.57,2.83,2.83,0,0,1,.13-.5.76.76,0,0,1,.28-.39.72.72,0,0,1,.88,0,.76.76,0,0,1,.28.39,2.85,2.85,0,0,1,.14.5,5,5,0,0,1,0,.57C45.87,83,45.58,83.5,45,83.5Zm7.29-2.38A2.65,2.65,0,0,0,52,80.4a2.56,2.56,0,0,0-.39-.54,1.43,1.43,0,0,0-.58-.36,2.45,2.45,0,0,0-.8-.12,2.16,2.16,0,0,0-.88.16,1.84,1.84,0,0,0-.61.42,2,2,0,0,0-.37.67,4,4,0,0,0-.21.84,9.21,9.21,0,0,0-.07,1q0,.47,0,.93a10.3,10.3,0,0,0,.06,1,5.77,5.77,0,0,0,.19.9,2.37,2.37,0,0,0,.37.73,1.63,1.63,0,0,0,.61.47,2.06,2.06,0,0,0,.9.18,2,2,0,0,0,1.57-.59,2.78,2.78,0,0,0,.57-1.73v-.28H51v.3a2.54,2.54,0,0,1,0,.43,1.4,1.4,0,0,1-.1.35.52.52,0,0,1-.22.26.66.66,0,0,1-.36.09.52.52,0,0,1-.31-.09.52.52,0,0,1-.21-.23,1.78,1.78,0,0,1-.12-.33,2.7,2.7,0,0,1-.06-.41c0-.14,0-.28,0-.43v-1h2.86v-.17q0-.52,0-.93A7.86,7.86,0,0,0,52.27,81.12ZM51,82.34H49.55V82c0-.2,0-.37,0-.51a3.29,3.29,0,0,1,.09-.43.7.7,0,0,1,.22-.34.62.62,0,0,1,.72,0,.71.71,0,0,1,.22.33,3.2,3.2,0,0,1,.1.42c0,.14,0,.31,0,.5Z"/><polygon class="cls-2" points="35.32 30.9 68.08 14.63 68.08 55.47 35.32 71.35 35.32 30.9"/><polygon class="cls-2" points="0.75 15.91 35.32 30.9 35.32 71.35 0.75 54.84 0.75 15.91"/><polyline class="cls-2" points="13.59 21.48 13.59 30.48 21.95 33.98 21.95 25.1 53.5 8.9"/><polyline class="cls-2" points="22.01 65 22.01 56.76 13.61 52.73 13.61 60.99"/><line class="cls-2" x1="13.59" y1="21.48" x2="45.16" y2="5.4"/><polygon class="cls-2" points="0.75 15.91 33.55 0.75 68.08 14.63 35.32 30.9 0.75 15.91"/></g></g></svg>