<svg xmlns="http://www.w3.org/2000/svg" viewBox="0 0 75.33 87.97"><defs><style>.cls-1{fill:#fff;}.cls-2{fill:none;stroke:#fff;stroke-linecap:round;stroke-linejoin:round;stroke-width:1.5px;}</style></defs><g id="Layer_2" data-name="Layer 2"><g id="Layer_1-2" data-name="Layer 1"><path class="cls-1" d="M24.55,81.5a3.48,3.48,0,0,0,.35-1.63A2.66,2.66,0,0,0,24,77.62,4.25,4.25,0,0,0,21.39,77H19.44V87.86H21V82.79h1.17l1.57,5.07h1.55L23.53,82.4A1.8,1.8,0,0,0,24.55,81.5Zm-1.7-.29a2.18,2.18,0,0,1-1.46.41H21v-3.5h.39a2.18,2.18,0,0,1,1.46.41,2.08,2.08,0,0,1,0,2.68Zm4.71,3.14V84h3.12v-.18a10.2,10.2,0,0,0,0-1,7.33,7.33,0,0,0-.12-.91,2.75,2.75,0,0,0-.25-.78,2.65,2.65,0,0,0-.42-.59,1.56,1.56,0,0,0-.63-.39,2.67,2.67,0,0,0-.88-.13,2.35,2.35,0,0,0-1,.17,1.81,1.81,0,0,0-.66.46,2.23,2.23,0,0,0-.42.73,4.75,4.75,0,0,0-.22.92A10.44,10.44,0,0,0,26,83.32q0,.51,0,1c0,.43,0,.82.07,1.14a5.52,5.52,0,0,0,.21,1,2.36,2.36,0,0,0,.4.81,1.72,1.72,0,0,0,.66.51,2.33,2.33,0,0,0,1,.19,2.16,2.16,0,0,0,1.72-.64,3,3,0,0,0,.61-1.89v-.31H29.12v.33c0,.19,0,.35,0,.48a1.3,1.3,0,0,1-.11.37.56.56,0,0,1-.23.29.79.79,0,0,1-.4.09A.64.64,0,0,1,28,86.6a.54.54,0,0,1-.22-.25,2.61,2.61,0,0,1-.14-.37,3.11,3.11,0,0,1-.06-.44c0-.15,0-.31,0-.47a3.68,3.68,0,0,1,0-.47Zm0-1.59a3.06,3.06,0,0,1,0-.56,2.83,2.83,0,0,1,.1-.47.75.75,0,0,1,.24-.37.66.66,0,0,1,.4-.13.65.65,0,0,1,.39.13.74.74,0,0,1,.23.35,2.56,2.56,0,0,1,.11.46c0,.16,0,.34,0,.54v.47H27.56Zm4.25,5.1V77h1.56V87.86Zm4.38-3.51V84h3.12v-.18q0-.59,0-1a7.33,7.33,0,0,0-.12-.91,3.11,3.11,0,0,0-.25-.78,2.65,2.65,0,0,0-.42-.59,1.54,1.54,0,0,0-.64-.39A2.59,2.59,0,0,0,37,80a2.42,2.42,0,0,0-1,.17,1.9,1.9,0,0,0-.66.46,2.21,2.21,0,0,0-.41.73,4.11,4.11,0,0,0-.22.92,10.44,10.44,0,0,0-.08,1.08,8.68,8.68,0,0,0,0,1,9.28,9.28,0,0,0,.07,1.14,4.18,4.18,0,0,0,.21,1,2.55,2.55,0,0,0,.39.81,1.84,1.84,0,0,0,.67.51A2.29,2.29,0,0,0,37,88a2.18,2.18,0,0,0,1.73-.64,3.06,3.06,0,0,0,.61-1.89v-.31H37.75v.33a3.23,3.23,0,0,1,0,.48,1.73,1.73,0,0,1-.11.37.61.61,0,0,1-.23.29.83.83,0,0,1-.41.09.58.58,0,0,1-.33-.09.62.62,0,0,1-.23-.25,2.64,2.64,0,0,1-.13-.37,2.13,2.13,0,0,1-.07-.44c0-.15,0-.31,0-.47v-.72Zm0-1.59c0-.22,0-.4,0-.56a2.89,2.89,0,0,1,.11-.47.75.75,0,0,1,.24-.37.63.63,0,0,1,.39-.13.61.61,0,0,1,.39.13.69.69,0,0,1,.24.35,2.52,2.52,0,0,1,.1.46,4.26,4.26,0,0,1,0,.54v.47H36.19Zm7,.27-.89.36a6.33,6.33,0,0,0-.75.41,2.37,2.37,0,0,0-.72.57,3.32,3.32,0,0,0-.4.74,2.63,2.63,0,0,0-.19,1,2,2,0,0,0,.45,1.27A1.38,1.38,0,0,0,41.8,88a1.51,1.51,0,0,0,.48-.08,1.34,1.34,0,0,0,.36-.18,1.78,1.78,0,0,0,.3-.31c.09-.13.17-.24.22-.33l.2-.38.2,1.17h1.56a7.38,7.38,0,0,1-.2-2V82.4a2.49,2.49,0,0,0-.63-1.77,2.53,2.53,0,0,0-3.42,0,2.57,2.57,0,0,0-.63,1.78H41.8v-.2a1.68,1.68,0,0,1,.2-.76.63.63,0,0,1,.58-.28.62.62,0,0,1,.61.33,2,2,0,0,1,.17.91V83Zm.17,3.09,0,0-.2.25a.92.92,0,0,1-.23.18.57.57,0,0,1-.32.1c-.52,0-.78-.32-.78-1a1.06,1.06,0,0,1,.08-.43,1.43,1.43,0,0,1,.18-.35,2.62,2.62,0,0,1,.29-.3l.32-.24.36-.23.33-.21Zm4.37-4.68a.77.77,0,0,0-.21.57.81.81,0,0,0,.39.66l1.56,1.17c.17.14.32.27.45.4a5.67,5.67,0,0,1,.36.44,1.87,1.87,0,0,1,.27.57,2.39,2.39,0,0,1,.09.66A1.85,1.85,0,0,1,50,87.44a2.58,2.58,0,0,1-1.7.53,2.09,2.09,0,0,1-1.54-.57,3,3,0,0,1-.8-1.49l1.17-.39q.42,1.17,1.17,1.17a.7.7,0,0,0,.78-.78,1.17,1.17,0,0,0-.39-.9l-1.56-1.17-.44-.33a4.58,4.58,0,0,1-.36-.38,1.56,1.56,0,0,1-.27-.51A1.7,1.7,0,0,1,46,82a1.85,1.85,0,0,1,.64-1.52A2.53,2.53,0,0,1,48.3,80a2.38,2.38,0,0,1,.91.16,1.84,1.84,0,0,1,.69.45,3,3,0,0,1,.46.65,3.68,3.68,0,0,1,.28.79l-1.17.39A3.76,3.76,0,0,0,49.3,82a2.2,2.2,0,0,0-.23-.37,1,1,0,0,0-.34-.3.89.89,0,0,0-.43-.11A.74.74,0,0,0,47.73,81.44ZM53,84.35V84h3.11v-.18q0-.59,0-1a7.33,7.33,0,0,0-.12-.91,2.75,2.75,0,0,0-.25-.78,2.65,2.65,0,0,0-.42-.59,1.56,1.56,0,0,0-.63-.39,2.67,2.67,0,0,0-.88-.13,2.35,2.35,0,0,0-1,.17,1.85,1.85,0,0,0-.67.46,2.21,2.21,0,0,0-.41.73,4.75,4.75,0,0,0-.22.92,10.44,10.44,0,0,0-.08,1.08q0,.51,0,1c0,.43,0,.82.07,1.14a5.52,5.52,0,0,0,.21,1,2.36,2.36,0,0,0,.4.81,1.72,1.72,0,0,0,.66.51,2.32,2.32,0,0,0,1,.19,2.18,2.18,0,0,0,1.73-.64,3,3,0,0,0,.61-1.89v-.31H54.59v.33c0,.19,0,.35,0,.48a1.73,1.73,0,0,1-.11.37.61.61,0,0,1-.23.29.82.82,0,0,1-.4.09.62.62,0,0,1-.34-.09.54.54,0,0,1-.22-.25,1.78,1.78,0,0,1-.14-.37,2.12,2.12,0,0,1-.06-.44l0-.47c0-.16,0-.32,0-.47Zm0-1.59a4.5,4.5,0,0,1,0-.56,2.89,2.89,0,0,1,.11-.47.75.75,0,0,1,.24-.37.64.64,0,0,1,.4-.13.65.65,0,0,1,.39.13.74.74,0,0,1,.23.35,2.56,2.56,0,0,1,.11.46,4.39,4.39,0,0,1,0,.54v.47H53Z"/><circle class="cls-2" cx="26.55" cy="26.49" r="9.14"/><line class="cls-2" x1="74.58" y1="64.79" x2="63.13" y2="53.22"/><line class="cls-2" x1="74.58" y1="74.55" x2="63.13" y2="62.98"/><line class="cls-2" x1="64.71" y1="74.55" x2="53.05" y2="62.98"/><path class="cls-2" d="M.81.75S-.34,17.34,7.43,28.64,46.91,60.26,46.91,60.26s6.18-.71,9.27-4.24,3.89-9,3.89-9S47.74,28.88,45,25.3,35.17,12.75,31.14,9.36A28.13,28.13,0,0,0,21,3.78a49.22,49.22,0,0,0-4.91-1.25A113.5,113.5,0,0,0,.81.75Z"/><path class="cls-2" d="M3.82,21.55s8.19-3,11.28-6.66A42.37,42.37,0,0,0,21.49,4"/><path class="cls-2" d="M46.33,27.14s6.87-2,11.73,0a19.94,19.94,0,0,1,9.12,8.5C68,37.36,70.1,42.4,70.1,42.4l-10.45,4"/><path class="cls-2" d="M27,46.39s-2.55,8.42,1.15,13.87,12.5,9.49,14.17,10.07c3.86-10.71,3.63-10.71,3.63-10.71"/></g></g></svg>