<svg xmlns="http://www.w3.org/2000/svg" width="48" height="48" viewBox="0 0 48 48"><g transform="translate(-193 -558)"><rect width="48" height="48" transform="translate(193 558)" fill="none"/><path d="M12.448,17.086V14.977H10.339a1.055,1.055,0,1,1,0-2.109h2.109V10.758a1.055,1.055,0,1,1,2.109,0v2.109h2.109a1.055,1.055,0,1,1,0,2.109H14.558v2.109a1.055,1.055,0,0,1-2.109,0ZM26.856,9.717A2.868,2.868,0,0,0,24.092,7.7H18.7a.774.774,0,0,1-.759-.523L16.269,2.009a2.908,2.908,0,0,0-5.532,0L9.07,7.174a.774.774,0,0,1-.759.525h-5.4a2.926,2.926,0,0,0-1.709,5.287l4.365,3.172a.8.8,0,0,1,.29.893L4.194,22.183A2.865,2.865,0,0,0,5.25,25.434a2.865,2.865,0,0,0,3.419,0l4.365-3.172a.8.8,0,0,1,.939,0l4.365,3.172a2.908,2.908,0,0,0,4.475-3.251L21.671,18.67a1.055,1.055,0,0,0-2.006.652l1.142,3.513a.8.8,0,0,1-1.229.893l-4.366-3.172a2.9,2.9,0,0,0-3.418,0L7.428,23.728A.8.8,0,0,1,6.2,22.835L7.867,17.7a2.9,2.9,0,0,0-1.056-3.251L2.445,11.28a.791.791,0,0,1-.288-.911.78.78,0,0,1,.758-.56h5.4a2.888,2.888,0,0,0,2.766-1.984l1.667-5.163a.8.8,0,0,1,1.518,0L15.93,7.826A2.888,2.888,0,0,0,18.7,9.809h5.4a.78.78,0,0,1,.758.56.791.791,0,0,1-.288.911l-2.977,2.163a1.055,1.055,0,1,0,1.24,1.707L25.8,12.987A2.879,2.879,0,0,0,26.856,9.717Zm0,0" transform="translate(202.999 569)" fill="#8eb84a"/></g></svg>
