<svg xmlns="http://www.w3.org/2000/svg" xmlns:xlink="http://www.w3.org/1999/xlink" width="100" height="100" viewBox="0 0 100 100"><defs><clipPath id="a"><rect width="100" height="100" transform="translate(0.158)" fill="#8eb84a"/></clipPath></defs><g transform="translate(-0.158)"><g clip-path="url(#a)"><path d="M39.154,13.748a1.517,1.517,0,0,0-1.517,1.517v2.293a1.518,1.518,0,1,0,3.036,0V15.265a1.517,1.517,0,0,0-1.519-1.517" transform="translate(40.897 14.939)" fill="#8eb84a"/><path d="M39.154,18.146a1.519,1.519,0,0,0-1.517,1.519v2.3a1.518,1.518,0,0,0,3.036,0v-2.3a1.519,1.519,0,0,0-1.519-1.519" transform="translate(40.897 19.718)" fill="#8eb84a"/><path d="M39.154,22.546a1.518,1.518,0,0,0-1.517,1.517v1.012a1.518,1.518,0,0,0,3.036,0V24.063a1.519,1.519,0,0,0-1.519-1.517" transform="translate(40.897 24.499)" fill="#8eb84a"/><path d="M42.884,17.365A8.682,8.682,0,1,0,34.2,8.682a8.693,8.693,0,0,0,8.68,8.682m0-14.329a5.646,5.646,0,1,1-5.646,5.646,5.653,5.653,0,0,1,5.646-5.646" transform="translate(37.167)" fill="#8eb84a"/><path d="M66.885,18.851H49.572a7,7,0,0,1-4.912-2.034L31.27,3.424a5.608,5.608,0,0,0-7.931,7.931l19.6,19.691a5.493,5.493,0,0,1,1.613,3.906v56.6A6.728,6.728,0,0,0,56.469,95.77a6.727,6.727,0,0,0,11.919-4.213V60.815a5.558,5.558,0,0,0,2.587.661,5.614,5.614,0,0,0,5.607-5.609V28.547a9.707,9.707,0,0,0-9.7-9.7M65.353,91.557a3.684,3.684,0,0,1-7.368,0V62.273a1.518,1.518,0,0,0-3.036,0V91.557a3.683,3.683,0,0,1-7.366,0V56.942h17.77Zm8.194-35.69a2.573,2.573,0,0,1-5.146,0v-25.9a1.518,1.518,0,1,0-3.036,0v23.94H47.584V34.953a8.528,8.528,0,0,0-2.5-6.049L25.486,9.21a2.573,2.573,0,1,1,3.639-3.639l13.388,13.39a10.058,10.058,0,0,0,7.059,2.925H55.06a1.5,1.5,0,0,0,2.829,0h9a6.669,6.669,0,0,1,6.663,6.661Z" transform="translate(23.576 1.939)" fill="#8eb84a"/><path d="M11.272,37.193a11.275,11.275,0,0,0,0,22.55h.01a11.275,11.275,0,0,0-.01-22.55m.01,19.516h-.01a8.241,8.241,0,1,1,.01,0" transform="translate(0 40.415)" fill="#8eb84a"/><path d="M37.836,37.193H18.32A1.517,1.517,0,0,0,16.8,38.71V58.226a1.517,1.517,0,0,0,1.519,1.517H37.836a1.517,1.517,0,0,0,1.517-1.517V38.71a1.517,1.517,0,0,0-1.517-1.517M36.319,56.709H19.837V40.229H36.319Z" transform="translate(18.256 40.415)" fill="#8eb84a"/><path d="M6.577,26.142H9.759v6.306H7.948l3.328,5.765,3.33-5.765H12.793V26.142H31.518a6.583,6.583,0,0,0,6.575-6.577v-9.4A6.583,6.583,0,0,0,31.518,3.59H6.577A6.585,6.585,0,0,0,0,10.167v9.4a6.585,6.585,0,0,0,6.577,6.577M3.036,10.167A3.546,3.546,0,0,1,6.577,6.626H31.518a3.546,3.546,0,0,1,3.541,3.541v9.4a3.547,3.547,0,0,1-3.541,3.541H6.577a3.547,3.547,0,0,1-3.541-3.541Z" transform="translate(0 3.901)" fill="#8eb84a"/><path d="M28.073,20.39A11.271,11.271,0,0,0,26.56,42.83V49.25H24.749l3.328,5.765,3.33-5.765H29.6V42.83a11.271,11.271,0,0,0-1.523-22.44m.01,19.518h-.01a8.241,8.241,0,1,1,.01,0" transform="translate(18.256 22.156)" fill="#8eb84a"/><path d="M28.858,30.15H22.552V26.968a6.586,6.586,0,0,0-6.577-6.577h-9.4A6.585,6.585,0,0,0,0,26.968v9.4a6.585,6.585,0,0,0,6.577,6.577h3.18v6.306H7.946l3.33,5.767L14.6,49.249H12.793V42.943h3.182a6.586,6.586,0,0,0,6.577-6.577V33.184h6.306V35l5.765-3.33-5.765-3.33Zm-9.342,6.216a3.544,3.544,0,0,1-3.541,3.541h-9.4a3.544,3.544,0,0,1-3.541-3.541v-9.4a3.546,3.546,0,0,1,3.541-3.541h9.4a3.546,3.546,0,0,1,3.541,3.541Z" transform="translate(0 22.157)" fill="#8eb84a"/><path d="M5.556,11.3h18.21a1.517,1.517,0,1,0,0-3.034H5.556a1.517,1.517,0,1,0,0,3.034" transform="translate(4.387 8.983)" fill="#8eb84a"/></g></g></svg>
