<svg xmlns="http://www.w3.org/2000/svg" width="25.865" height="22" xmlns:v="https://vecta.io/nano"><defs><clipPath id="A"><path fill="none" d="M0 0h25.865v22H0z"/></clipPath></defs><g clip-path="url(#A)" fill="#8eb84a"><path d="M24.384 0H10.225c-.389 0-.762.154-1.037.429s-.43.648-.43 1.037v5.509H1.466A1.47 1.47 0 0 0 0 8.441v9.3a1.47 1.47 0 0 0 1.466 1.469h2.8l-.071 2.29a.5.5 0 0 0 .242.443.58.58 0 0 0 .507 0L9.881 19.2h5.86c.389 0 .762-.154 1.037-.429s.429-.648.429-1.037v-4.378h.847l3.907 2.754c.158.094.352.107.521.034a.5.5 0 0 0 .288-.447v-2.341h1.63c.389 0 .762-.154 1.037-.429s.429-.648.429-1.037V1.466c0-.389-.154-.762-.429-1.037S24.789 0 24.4 0zM16.2 17.744a.46.46 0 0 1-.458.458h-6a.51.51 0 0 0-.245.063L5.22 20.639l.057-1.919a.5.5 0 0 0-.15-.366.5.5 0 0 0-.363-.153h-3.3a.46.46 0 0 1-.458-.458v-9.3a.46.46 0 0 1 .458-.458h7.294v3.905c0 .81.656 1.466 1.466 1.466H16.2zm8.643-5.854a.46.46 0 0 1-.458.458h-2.133a.5.5 0 0 0-.5.5v1.873l-3.245-2.281a.5.5 0 0 0-.288-.092h-7.994a.46.46 0 0 1-.458-.458V1.466A.46.46 0 0 1 10.213 1h14.171a.46.46 0 0 1 .458.458zM13.417 5.713c-.423 0-.805.255-.967.646a1.05 1.05 0 0 0 .227 1.141c.299.299.75.388 1.141.225s.645-.545.644-.969a1.05 1.05 0 0 0-.306-.74c-.196-.196-.462-.306-.74-.306m4.176.003c-.578-.001-1.047.466-1.048 1.044s.466 1.047 1.043 1.048 1.047-.465 1.049-1.043h0a1.04 1.04 0 0 0-.303-.738c-.195-.196-.46-.307-.737-.308h0m4.17-.003c-.578-.002-1.047.465-1.049 1.043s.465 1.047 1.043 1.049 1.047-.465 1.049-1.043h0a1.04 1.04 0 0 0-.303-.738c-.195-.196-.46-.307-.737-.308h0"/></g></svg>
