<svg xmlns="http://www.w3.org/2000/svg" width="32" height="32" viewBox="0 0 32 32">
  <g id="Group_5791" data-name="Group 5791" transform="translate(-5493 -6264)">
    <rect id="Rectangle_3366" data-name="Rectangle 3366" width="32" height="32" transform="translate(5493 6264)" fill="none"/>
    <g id="bank-svgrepo-com" transform="translate(5498 6268)">
      <g id="Group_33" data-name="Group 33">
        <path id="Path_4" data-name="Path 4" d="M21.083,16.5h-.917V13.75a.917.917,0,0,0-.917-.917V5.5h.917a.917.917,0,0,0,.82-1.327L19.153.507A.917.917,0,0,0,18.333,0H3.667a.917.917,0,0,0-.82.507L1.013,4.173A.917.917,0,0,0,1.833,5.5H2.75v7.333a.917.917,0,0,0-.917.917V16.5H.917A.917.917,0,0,0,0,17.417v3.667A.917.917,0,0,0,.917,22H21.083A.917.917,0,0,0,22,21.083V17.417A.917.917,0,0,0,21.083,16.5Zm-3.667-3.667H15.583V5.5h1.833Zm-5.5,0V5.5H13.75v7.333Zm-3.667,0V5.5h1.833v7.333Zm-4.017-11H17.767l.917,1.833H3.317ZM4.583,5.5H6.417v7.333H4.583Zm-.917,9.167H18.333V16.5H3.667Zm16.5,5.5H1.833V18.333H20.167v1.833Z" fill="#8eb84a"/>
      </g>
    </g>
  </g>
</svg>
