<svg xmlns="http://www.w3.org/2000/svg" xmlns:xlink="http://www.w3.org/1999/xlink" width="26" height="26" viewBox="0 0 26 26"><defs><clipPath id="a"><rect width="26" height="26" fill="none"/></clipPath></defs><g transform="translate(0 0)"><g transform="translate(0 0)" clip-path="url(#a)"><path d="M46.107,10.24a1.733,1.733,0,1,0,1.733,1.733,1.735,1.735,0,0,0-1.733-1.733m0,2.6a.867.867,0,1,1,.867-.867.868.868,0,0,1-.867.867" transform="translate(-21.84 -5.04)" fill="#8eb84a"/><path d="M1.733,38.4a1.733,1.733,0,1,0,1.733,1.733A1.735,1.735,0,0,0,1.733,38.4m0,2.6a.867.867,0,1,1,.867-.867A.868.868,0,0,1,1.733,41" transform="translate(0 -18.9)" fill="#8eb84a"/><path d="M41.906,9.528l-3.739-1.8a.433.433,0,1,0-.376.781l3.738,1.8a.433.433,0,1,0,.377-.781" transform="translate(-18.48 -3.78)" fill="#8eb84a"/><path d="M36.72,44.373a1.733,1.733,0,1,0,1.733,1.733,1.735,1.735,0,0,0-1.733-1.733m0,2.6a.867.867,0,1,1,.867-.867.868.868,0,0,1-.867.867" transform="translate(-17.22 -21.84)" fill="#8eb84a"/><path d="M32.519,43.661l-3.739-1.8a.433.433,0,0,0-.376.781l3.738,1.8a.433.433,0,1,0,.377-.781" transform="translate(-13.86 -20.58)" fill="#8eb84a"/><path d="M23.92,23.04a1.733,1.733,0,1,0,1.733,1.733A1.735,1.735,0,0,0,23.92,23.04m0,2.6a.867.867,0,1,1,.867-.867.868.868,0,0,1-.867.867" transform="translate(-10.92 -11.34)" fill="#8eb84a"/><path d="M20.638,21.956l-2.872-2.238a.434.434,0,0,0-.533.684l2.872,2.238a.434.434,0,0,0,.533-.684" transform="translate(-8.4 -9.66)" fill="#8eb84a"/><path d="M36.34,22.186a4.767,4.767,0,1,0,4.767,4.767,4.773,4.773,0,0,0-4.767-4.767m0,8.667a3.9,3.9,0,1,1,3.9-3.9,3.9,3.9,0,0,1-3.9,3.9" transform="translate(-15.54 -10.92)" fill="#8eb84a"/><path d="M39.28,25.6a1.733,1.733,0,1,0,1.733,1.733A1.735,1.735,0,0,0,39.28,25.6m0,2.6a.867.867,0,1,1,.867-.867.868.868,0,0,1-.867.867" transform="translate(-18.48 -12.6)" fill="#8eb84a"/><path d="M39.7,34.133H37.183A1.327,1.327,0,0,0,35.84,35.44v1.143a.434.434,0,0,0,.216.375,4.744,4.744,0,0,0,4.767,0,.433.433,0,0,0,.216-.375V35.44A1.327,1.327,0,0,0,39.7,34.133m.476,2.191a3.93,3.93,0,0,1-3.467,0V35.44a.46.46,0,0,1,.476-.44H39.7a.46.46,0,0,1,.476.44Z" transform="translate(-17.64 -16.8)" fill="#8eb84a"/><path d="M15.86,32.426a4.767,4.767,0,1,0,4.767,4.767,4.773,4.773,0,0,0-4.767-4.767m0,8.667a3.9,3.9,0,1,1,3.9-3.9,3.9,3.9,0,0,1-3.9,3.9" transform="translate(-5.46 -15.96)" fill="#8eb84a"/><path d="M18.8,35.84a1.733,1.733,0,1,0,1.733,1.733A1.735,1.735,0,0,0,18.8,35.84m0,2.6a.867.867,0,1,1,.867-.867.868.868,0,0,1-.867.867" transform="translate(-8.4 -17.64)" fill="#8eb84a"/><path d="M19.217,44.373H16.7A1.327,1.327,0,0,0,15.36,45.68v1.143a.434.434,0,0,0,.216.375,4.744,4.744,0,0,0,4.767,0,.433.433,0,0,0,.216-.375V45.68a1.327,1.327,0,0,0-1.343-1.307m.476,2.191a3.93,3.93,0,0,1-3.467,0V45.68a.46.46,0,0,1,.476-.44h2.514a.46.46,0,0,1,.476.44Z" transform="translate(-7.56 -21.84)" fill="#8eb84a"/><path d="M4.767,11.093A4.767,4.767,0,1,0,9.534,15.86a4.772,4.772,0,0,0-4.767-4.767m0,8.667a3.9,3.9,0,1,1,3.9-3.9,3.9,3.9,0,0,1-3.9,3.9" transform="translate(0 -5.46)" fill="#8eb84a"/><path d="M7.707,14.507A1.733,1.733,0,1,0,9.44,16.24a1.735,1.735,0,0,0-1.733-1.733m0,2.6a.867.867,0,1,1,.867-.867.868.868,0,0,1-.867.867" transform="translate(-2.94 -7.14)" fill="#8eb84a"/><path d="M8.124,23.04H5.61a1.327,1.327,0,0,0-1.343,1.307v1.143a.434.434,0,0,0,.216.375,4.744,4.744,0,0,0,4.767,0,.433.433,0,0,0,.216-.375V24.347A1.327,1.327,0,0,0,8.124,23.04M8.6,25.231a3.93,3.93,0,0,1-3.467,0v-.884a.46.46,0,0,1,.476-.44H8.124a.46.46,0,0,1,.476.44Z" transform="translate(-2.1 -11.34)" fill="#8eb84a"/><path d="M25.247,0a4.767,4.767,0,1,0,4.767,4.767A4.773,4.773,0,0,0,25.247,0m0,8.667a3.9,3.9,0,1,1,3.9-3.9,3.9,3.9,0,0,1-3.9,3.9" transform="translate(-10.08 0)" fill="#8eb84a"/><path d="M28.187,3.413A1.733,1.733,0,1,0,29.92,5.146a1.735,1.735,0,0,0-1.733-1.733m0,2.6a.867.867,0,1,1,.867-.867.868.868,0,0,1-.867.867" transform="translate(-13.02 -1.68)" fill="#8eb84a"/><path d="M28.6,11.946H26.09a1.327,1.327,0,0,0-1.343,1.307V14.4a.434.434,0,0,0,.216.375,4.744,4.744,0,0,0,4.767,0,.433.433,0,0,0,.216-.375V13.253A1.327,1.327,0,0,0,28.6,11.946m.476,2.191a3.93,3.93,0,0,1-3.467,0v-.884a.46.46,0,0,1,.476-.44H28.6a.46.46,0,0,1,.476.44Z" transform="translate(-12.18 -5.88)" fill="#8eb84a"/><path d="M18.333,8.684a.434.434,0,0,0-.611-.047l-3,2.57a.433.433,0,1,0,.564.658l3-2.57a.433.433,0,0,0,.048-.611" transform="translate(-7.17 -4.2)" fill="#8eb84a"/><path d="M37.513,19l-2.6-3.467a.433.433,0,0,0-.693.519l2.6,3.467A.433.433,0,0,0,37.513,19" transform="translate(-16.8 -7.561)" fill="#8eb84a"/><path d="M30.684,34.227a.434.434,0,0,0-.607-.087l-2.42,1.815a.433.433,0,1,0,.52.693l2.42-1.815a.432.432,0,0,0,.087-.606" transform="translate(-13.527 -16.761)" fill="#8eb84a"/><path d="M8.587,40.96H5.554a.433.433,0,1,0,0,.867H8.587a.433.433,0,0,0,0-.867" transform="translate(-2.52 -20.16)" fill="#8eb84a"/><path d="M7.707,0A1.733,1.733,0,1,0,9.44,1.733,1.735,1.735,0,0,0,7.707,0m0,2.6a.867.867,0,1,1,.867-.867.868.868,0,0,1-.867.867" transform="translate(-2.94 0)" fill="#8eb84a"/><path d="M8.967,5.12a.433.433,0,0,0-.433.433V8.587a.433.433,0,1,0,.866,0V5.553a.433.433,0,0,0-.433-.433" transform="translate(-4.2 -2.52)" fill="#8eb84a"/></g></g></svg>
