<svg xmlns="http://www.w3.org/2000/svg" width="19.845" height="22" viewBox="0 0 19.845 22"><g transform="translate(1.879 0.001)"><path d="M13.052.146l0,0A.467.467,0,0,0,12.707,0H5.988A2.363,2.363,0,0,0,3.626,2.362V3.35H.484A2.363,2.363,0,0,0-1.879,5.712V19.637A2.363,2.363,0,0,0,.484,22H10.1a2.363,2.363,0,0,0,2.362-2.362v-.988H15.6a2.363,2.363,0,0,0,2.362-2.362V5.249a.488.488,0,0,0-.137-.336Zm.128,1.465,3.18,3.175H14.6A1.422,1.422,0,0,1,13.18,3.368ZM10.1,21.054H.484A1.422,1.422,0,0,1-.934,19.637V5.712A1.422,1.422,0,0,1,.484,4.295H3.933a.5.5,0,0,0,.331,0H6.735V6.718A2.363,2.363,0,0,0,9.1,9.081h2.424V19.637A1.426,1.426,0,0,1,10.1,21.054ZM10.86,8.136H9.1A1.422,1.422,0,0,1,7.68,6.718V4.961ZM15.6,17.7H12.462V8.6a.487.487,0,0,0-.137-.335L7.552,3.5l0,0a.467.467,0,0,0-.34-.142H4.571V2.362A1.422,1.422,0,0,1,5.988.944H12.24V3.368A2.363,2.363,0,0,0,14.6,5.731h2.419V16.287A1.422,1.422,0,0,1,15.6,17.7Zm0,0" transform="translate(0 0)" fill="#8eb84a"/><path d="M61.761,291.706h4.82a.476.476,0,1,0,0-.952h-4.82a.476.476,0,1,0,0,.952Zm0,0" transform="translate(-60.757 -279.753)" fill="#8eb84a"/><path d="M70.435,379.262H61.761a.476.476,0,1,0,0,.952h8.674a.476.476,0,1,0,0-.952Zm0,0" transform="translate(-60.757 -364.912)" fill="#8eb84a"/><path d="M70.435,467.77H61.761a.476.476,0,1,0,0,.952h8.674a.476.476,0,1,0,0-.952Zm0,0" transform="translate(-60.757 -450.095)" fill="#8eb84a"/><path d="M398.157,290.754h-1.451a.476.476,0,0,0,0,.952h1.451a.476.476,0,1,0,0-.952Zm0,0" transform="translate(-383.074 -279.753)" fill="#8eb84a"/><path d="M398.157,379.262h-1.451a.476.476,0,0,0,0,.952h1.451a.476.476,0,1,0,0-.952Zm0,0" transform="translate(-383.074 -364.912)" fill="#8eb84a"/></g></svg>
