<svg xmlns="http://www.w3.org/2000/svg" xmlns:xlink="http://www.w3.org/1999/xlink" width="26.424" height="26" viewBox="0 0 26.424 26"><defs><clipPath id="a"><rect width="26.424" height="26" fill="none"/></clipPath></defs><g transform="translate(0 0)"><g transform="translate(0 0)" clip-path="url(#a)"><path d="M18.8.534l.426,1.2a.192.192,0,0,0,.1.113l1.064.479a.212.212,0,0,1,0,.375l-1.064.479a.19.19,0,0,0-.1.113l-.426,1.2a.173.173,0,0,1-.333,0l-.426-1.2a.19.19,0,0,0-.1-.113L16.882,2.7a.212.212,0,0,1,0-.375l1.064-.479a.193.193,0,0,0,.1-.113l.426-1.2a.173.173,0,0,1,.333,0" transform="translate(-8.115 -0.197)" fill="#8eb84a"/><path d="M47.25,21.423l.316.888a.142.142,0,0,0,.074.084l.789.356a.157.157,0,0,1,0,.278l-.789.355a.142.142,0,0,0-.074.084l-.316.888a.128.128,0,0,1-.247,0l-.316-.888a.143.143,0,0,0-.074-.084l-.79-.355a.158.158,0,0,1,0-.278l.79-.356a.143.143,0,0,0,.074-.084L47,21.423A.128.128,0,0,1,47.25,21.423Z" transform="translate(-22.134 -10.321)" fill="#8eb84a"/><path d="M36.909,7a.4.4,0,1,1-.4.4.4.4,0,0,1,.4-.4" transform="translate(-17.666 -3.385)" fill="#8eb84a"/><path d="M46.208,2.041a.741.741,0,1,1,.686.792.741.741,0,0,1-.686-.792" transform="translate(-22.359 -0.654)" fill="#8eb84a"/><path d="M17.8,18.072a16.056,16.056,0,0,0-3.138-4.239c-.428-.428-.868-.83-1.31-1.2l-.334-1.2.844.275.014,0a2.244,2.244,0,0,0,2.226-.557l.872-.872a2.245,2.245,0,0,0,.557-2.227l-.479-1.623a1.584,1.584,0,0,0-3.04.894l.338,1.207L13.5,8.293a2.246,2.246,0,0,0-2.224.558l-.871.872a2.225,2.225,0,0,0-.493.75c-1.525-.6-2.344-.317-2.775.075a1.652,1.652,0,0,0-.65.721l-.005.012L.175,25.828a1.931,1.931,0,0,0,2.559,2.56l14.579-6.277.013-.006a1.653,1.653,0,0,0,.931-1.209c0-.023.007-.047.01-.071A3.729,3.729,0,0,0,17.8,18.072Zm-1.519-.6a.554.554,0,1,1-.392.162.553.553,0,0,1,.392-.162m-.9-11.113a.549.549,0,0,1,.681.37l.479,1.623a1.207,1.207,0,0,1-.3,1.2l-.395.4-.248-.8v0l-.589-2.1,0-.007a.549.549,0,0,1,.37-.681M13.21,9.288l.006,0,1.474.416.3.968a1.226,1.226,0,0,1-.811.043l-1.5-.49-.278-.9a1.214,1.214,0,0,1,.458-.089,1.243,1.243,0,0,1,.353.051m-2.072,1.167.4-.4.254.825v0l.577,2.076,0,.008a.548.548,0,0,1-1.05.311l-.479-1.623a1.208,1.208,0,0,1,.3-1.2M7.82,11.33a.752.752,0,0,1,.541-.164,3.71,3.71,0,0,1,1.406.368,2.325,2.325,0,0,0,.081.415l.479,1.623a1.584,1.584,0,0,0,1.968,1.07,1.572,1.572,0,0,0,.933-.745c.236.214.472.437.7.669a17.721,17.721,0,0,1,1.982,2.341,1.176,1.176,0,1,0,1.129,2.013c.393.983.335,1.55.125,1.759-.236.237-.929.281-2.165-.3a15.011,15.011,0,0,1-3.949-2.935,15.011,15.011,0,0,1-2.935-3.949C7.539,12.259,7.583,11.566,7.82,11.33Zm-5.5,16.109-.013.006a.893.893,0,0,1-1.186-1.186l.005-.012L6.837,13.072a7.338,7.338,0,0,0,.348.865,16.056,16.056,0,0,0,3.138,4.239,16.044,16.044,0,0,0,4.239,3.138,7.057,7.057,0,0,0,1.041.4Z" transform="translate(0 -2.563)" fill="#8eb84a"/><path d="M41.24,8.36,39.618,7.88a2.245,2.245,0,0,0-2.227.557l-.871.871a2.245,2.245,0,0,0-.557,2.227l0,.014.275.844-1.247-.347a1.584,1.584,0,0,0-.893,3.04l1.623.479a2.289,2.289,0,0,0,.647.094,2.233,2.233,0,0,0,1.58-.651l.871-.872a2.245,2.245,0,0,0,.558-2.223l-.241-.854,1.208.339a1.585,1.585,0,0,0,.894-3.04Zm-3.274,2.365.416,1.474,0,.006a1.229,1.229,0,0,1-.039.811l-.9-.277-.49-1.5A1.226,1.226,0,0,1,37,10.424Zm-1.949,3.848-1.623-.479a.541.541,0,0,1-.232-.137.548.548,0,0,1,.387-.935.556.556,0,0,1,.155.022l.008,0,2.076.576,0,0,.825.253-.4.4A1.209,1.209,0,0,1,36.017,14.572Zm5.3-4.538a.548.548,0,0,1-.68.37l-.007,0-2.1-.589h0l-.8-.248.395-.395a1.208,1.208,0,0,1,1.2-.3l1.623.479A.548.548,0,0,1,41.317,10.034Z" transform="translate(-15.952 -3.768)" fill="#8eb84a"/><path d="M37.1,2.352a1.176,1.176,0,1,0-.832-.344,1.174,1.174,0,0,0,.832.344M36.7.784a.555.555,0,1,1,0,.784A.555.555,0,0,1,36.7.784Z" transform="translate(-17.382 0)" fill="#8eb84a"/><path d="M39.981,27.716a1.177,1.177,0,1,0,1.664,0,1.178,1.178,0,0,0-1.664,0m1.224,1.224a.554.554,0,1,1,0-.784A.555.555,0,0,1,41.206,28.941Z" transform="translate(-19.181 -13.245)" fill="#8eb84a"/><path d="M9.648,33.656a.518.518,0,0,1-.476-.724l.656-1.525a.518.518,0,0,1,.952.41l-.656,1.525A.519.519,0,0,1,9.648,33.656Z" transform="translate(-4.418 -15.046)" fill="#8eb84a"/><path d="M12.344,28.389a.518.518,0,0,1-.476-.724l.2-.465a.519.519,0,0,1,.953.41l-.2.465A.517.517,0,0,1,12.344,28.389Z" transform="translate(-5.722 -13.01)" fill="#8eb84a"/></g></g></svg>
