<svg xmlns="http://www.w3.org/2000/svg" xmlns:xlink="http://www.w3.org/1999/xlink" width="30.769" height="32" viewBox="0 0 30.769 32"><defs><clipPath id="a"><rect width="24" height="24" fill="#969ea3"/></clipPath></defs><g transform="translate(-6294.616 -6397)"><rect width="30.769" height="32" transform="translate(6294.616 6397)" fill="none"/><g transform="translate(6298 6400.612)"><g clip-path="url(#a)"><path d="M21.75,6h-3A2.25,2.25,0,0,0,16.5,8.25V9H15V0H6.44L1.5,4.939V9H0V21a3,3,0,0,0,3,3H21.75A2.25,2.25,0,0,0,24,21.75V8.25A2.25,2.25,0,0,0,21.75,6M6,2.561V4.5H4.061ZM3,6H7.5V1.5h6V9H3ZM16.5,22.5H3A1.5,1.5,0,0,1,1.5,21V10.5h15Zm6-.75a.75.75,0,0,1-.75.75H18V8.25a.75.75,0,0,1,.75-.75h3a.75.75,0,0,1,.75.75Z" fill="#969ea3"/><rect width="10.5" height="1.5" transform="translate(3.75 12)" fill="#969ea3"/><rect width="1.5" height="1.5" transform="translate(3.75 15)" fill="#969ea3"/><rect width="1.5" height="1.5" transform="translate(6.75 15)" fill="#969ea3"/><rect width="1.5" height="1.5" transform="translate(9.75 15)" fill="#969ea3"/><rect width="1.5" height="1.5" transform="translate(12.75 15)" fill="#969ea3"/><rect width="1.5" height="1.5" transform="translate(3.75 18)" fill="#969ea3"/><rect width="1.5" height="1.5" transform="translate(6.75 18)" fill="#969ea3"/><rect width="1.5" height="1.5" transform="translate(9.75 18)" fill="#969ea3"/><rect width="1.5" height="1.5" transform="translate(12.75 18)" fill="#969ea3"/></g></g></g></svg>
