<svg xmlns="http://www.w3.org/2000/svg" width="24" height="24" viewBox="0 0 24 24">
  <g id="Group_6376" data-name="Group 6376" transform="translate(-192 -1013)">
    <rect id="Rectangle_3869" data-name="Rectangle 3869" width="24" height="24" transform="translate(192 1013)" fill="none"/>
    <path id="sort" d="M9.2,12.706v7.167a.633.633,0,0,0,.628.628.6.6,0,0,0,.28-.067l3.349-1.674A.628.628,0,0,0,13.8,18.2V12.706l6.58-9.213a.628.628,0,0,0-.511-.992H3.13a.626.626,0,0,0-.557.339.633.633,0,0,0,.046.653Zm9.452-8.95L12.666,12.14a.639.639,0,0,0-.117.364v5.3l-2.093,1.047V12.5a.62.62,0,0,0-.117-.364L4.352,3.756Z" transform="translate(192.497 1013.5)" fill="#8eb84a"/>
  </g>
</svg>
