<svg xmlns="http://www.w3.org/2000/svg" xmlns:xlink="http://www.w3.org/1999/xlink" width="32" height="32" viewBox="0 0 32 32">
  <defs>
    <clipPath id="clip-path">
      <rect id="Rectangle_3331" data-name="Rectangle 3331" width="24.015" height="24" fill="#8eb84a"/>
    </clipPath>
  </defs>
  <g id="Group_5794" data-name="Group 5794" transform="translate(-6292 -6264)">
    <g id="Group_5703" data-name="Group 5703" transform="translate(6296 6268)">
      <g id="Group_5702" data-name="Group 5702" clip-path="url(#clip-path)">
        <path id="Path_30696" data-name="Path 30696" d="M23.5,24H.518C.509,23.989.5,23.972.49,23.966a.713.713,0,0,1-.471-.815.727.727,0,0,1,.787-.557c.209,0,.418,0,.649,0v-.321q0-10.713,0-21.426c0-.695.432-1.006,1.075-.766Q8.042,2.144,13.552,4.212a.752.752,0,0,1,.567.837c0,.664.011,1.329-.006,1.992a.307.307,0,0,0,.255.359q3.767,1.244,7.528,2.5a.787.787,0,0,1,.666.928q0,5.732,0,11.463v.3c.294,0,.566-.015.836,0a.784.784,0,0,1,.617.506v.375L23.5,24M12.7,5.4,2.877,1.712V22.576H4.27c0-1.135,0-2.252,0-3.369a.728.728,0,0,1,.831-.834h5.37a.728.728,0,0,1,.834.831q0,1.559,0,3.119v.255h1.4Zm8.449,17.185V22.4q0-5.532,0-11.065c0-.173-.071-.224-.212-.271q-2.988-.989-5.974-1.986L14.134,8.8V22.575h1.392c0-1.143,0-2.268,0-3.393a.719.719,0,0,1,.808-.809q1.3,0,2.6,0a.719.719,0,0,1,.81.807q0,1.571,0,3.141v.261ZM7.067,19.8H5.689v2.785H7.067ZM8.5,22.577H9.88V19.792H8.5Zm9.827-2.784h-1.38v2.79h1.38Z" transform="translate(0 0)" fill="#8eb84a"/>
        <path id="Path_30697" data-name="Path 30697" d="M92.284,152.764c-.227,0-.453.006-.68,0a.7.7,0,1,1,.008-1.4q.691-.011,1.383,0a.7.7,0,1,1-.009,1.4c-.234.006-.469,0-.7,0" transform="translate(-86.624 -144.242)" fill="#8eb84a"/>
        <path id="Path_30698" data-name="Path 30698" d="M182.107,152.754c-.227,0-.453.006-.68,0a.7.7,0,1,1-.01-1.4c.469-.01.938-.009,1.407,0a.7.7,0,1,1-.014,1.4c-.234.006-.469,0-.7,0" transform="translate(-172.228 -144.232)" fill="#8eb84a"/>
        <path id="Path_30699" data-name="Path 30699" d="M92.322,211.28c.227,0,.453-.006.68,0a.7.7,0,0,1,.705.7.7.7,0,0,1-.7.7c-.469.01-.938.009-1.407,0a.7.7,0,1,1-.007-1.4c.242-.009.484,0,.727,0" transform="translate(-86.625 -201.349)" fill="#8eb84a"/>
        <path id="Path_30700" data-name="Path 30700" d="M182.107,212.637c-.227,0-.453.006-.68,0a.7.7,0,1,1-.009-1.4c.469-.01.938-.009,1.407,0a.7.7,0,1,1,.009,1.4c-.242.009-.484,0-.727,0" transform="translate(-172.228 -201.301)" fill="#8eb84a"/>
        <path id="Path_30701" data-name="Path 30701" d="M92.3,271.164c.234,0,.469-.007.7,0a.7.7,0,1,1,0,1.4q-.7.014-1.407,0a.7.7,0,1,1,0-1.4c.234-.008.469,0,.7,0" transform="translate(-86.625 -258.419)" fill="#8eb84a"/>
        <path id="Path_30702" data-name="Path 30702" d="M182.122,272.52c-.234,0-.469.007-.7,0a.7.7,0,1,1,.008-1.4c.469-.009.938-.01,1.407,0a.7.7,0,1,1-.008,1.4c-.234.008-.469,0-.7,0" transform="translate(-172.228 -258.37)" fill="#8eb84a"/>
        <path id="Path_30703" data-name="Path 30703" d="M92.323,331.047c.227,0,.453-.006.68,0a.7.7,0,1,1,0,1.4q-.7.015-1.407,0a.7.7,0,1,1,0-1.4c.242-.008.484,0,.727,0" transform="translate(-86.625 -315.488)" fill="#8eb84a"/>
        <path id="Path_30704" data-name="Path 30704" d="M182.125,332.4c-.234,0-.469.007-.7,0a.7.7,0,1,1,0-1.4q.7-.014,1.407,0a.7.7,0,1,1,0,1.4c-.234.008-.469,0-.7,0" transform="translate(-172.229 -315.44)" fill="#8eb84a"/>
        <path id="Path_30705" data-name="Path 30705" d="M332.56,271.178c.438,0,.875,0,1.313,0a.706.706,0,1,1,0,1.405q-1.336,0-2.673,0a.706.706,0,1,1,0-1.405c.453,0,.907,0,1.36,0" transform="translate(-314.901 -258.434)" fill="#8eb84a"/>
        <path id="Path_30706" data-name="Path 30706" d="M332.538,331.061c.445,0,.891,0,1.336,0a.706.706,0,1,1,0,1.405q-1.336,0-2.673,0a.706.706,0,1,1,0-1.405c.445,0,.891,0,1.336,0" transform="translate(-314.901 -315.503)" fill="#8eb84a"/>
      </g>
    </g>
    <rect id="Rectangle_3370" data-name="Rectangle 3370" width="32" height="32" transform="translate(6292 6264)" fill="none"/>
  </g>
</svg>
