<svg xmlns="http://www.w3.org/2000/svg" width="48" height="48" viewBox="0 0 48 48"><g transform="translate(-193 -558)"><rect width="48" height="48" transform="translate(193 558)" fill="none"/><path d="M23.169,42.015a1.08,1.08,0,0,1-.763-.314L10.383,29.782a8.023,8.023,0,0,1,0-11.413,8.181,8.181,0,0,1,11.486,0l1.3,1.288,1.3-1.288a8.18,8.18,0,0,1,11.486,0,8.023,8.023,0,0,1,0,11.413L23.932,41.7a1.08,1.08,0,0,1-.763.314ZM16.126,18.18a5.972,5.972,0,0,0-4.217,1.728,5.855,5.855,0,0,0,0,8.335l11.26,11.163,11.26-11.162a5.855,5.855,0,0,0,0-8.335,6.008,6.008,0,0,0-8.434,0l-2.063,2.045a1.083,1.083,0,0,1-1.526,0l-2.063-2.045A5.972,5.972,0,0,0,16.126,18.18Z" transform="translate(194 552.985)" fill="#8eb84a"/></g></svg>
