<svg xmlns="http://www.w3.org/2000/svg" xmlns:xlink="http://www.w3.org/1999/xlink" width="100" height="100" viewBox="0 0 100 100"><defs><clipPath id="a"><rect width="100" height="100" fill="#8eb84a"/></clipPath></defs><g clip-path="url(#a)"><path d="M92.423,0H7.577A7.586,7.586,0,0,0,0,7.577V80.3a7.585,7.585,0,0,0,7.577,7.575H30.3v9.092H19.7a1.515,1.515,0,0,0,0,3.029H80.3a1.515,1.515,0,1,0,0-3.029H69.7V87.879H92.423A7.585,7.585,0,0,0,100,80.3V7.577A7.586,7.586,0,0,0,92.423,0M66.667,96.971H33.333v-9.09H66.667ZM96.969,80.3a4.551,4.551,0,0,1-4.546,4.544H7.577A4.553,4.553,0,0,1,3.029,80.3V75.758h93.94Zm0-7.577H3.029V7.577A4.554,4.554,0,0,1,7.577,3.029H92.423a4.552,4.552,0,0,1,4.546,4.548Z" fill="#8eb84a"/><path d="M24.789,40.848a1.515,1.515,0,1,0-1.517-1.515,1.516,1.516,0,0,0,1.517,1.515" transform="translate(25.211 40.971)" fill="#8eb84a"/><path d="M31.494,46.182a1.516,1.516,0,0,0,1.515-1.517v-10.6H55.738a1.515,1.515,0,0,0,0-3.029H33.009V9.819h5.05a1.516,1.516,0,1,0,0-3.031H31.494A1.514,1.514,0,0,0,29.98,8.3V24.971H9.271a1.516,1.516,0,0,0-1.512,1.515v26.26a1.515,1.515,0,0,0,1.512,1.517H55.738a1.515,1.515,0,0,0,1.512-1.517V40.626a1.515,1.515,0,1,0-3.029,0V51.232H10.788V28H29.98V44.665a1.515,1.515,0,0,0,1.515,1.517" transform="translate(8.406 7.354)" fill="#8eb84a"/><path d="M54.748,6.788H26.973a1.516,1.516,0,1,0,0,3.031h8.079V24.463a1.515,1.515,0,0,0,3.029,0V21.94h8.585a1.516,1.516,0,0,0,0-3.031H38.081V9.819H53.233V51.232H44.648a1.516,1.516,0,0,0,0,3.031h10.1a1.518,1.518,0,0,0,1.517-1.515V8.3a1.518,1.518,0,0,0-1.517-1.515" transform="translate(27.577 7.354)" fill="#8eb84a"/></g></svg>
