<svg xmlns="http://www.w3.org/2000/svg" xmlns:xlink="http://www.w3.org/1999/xlink" width="72" height="72" viewBox="0 0 72 72"><defs><clipPath id="a"><rect width="49.984" height="50" fill="#8eb84a"/></clipPath></defs><g transform="translate(-314 -4648.019)"><rect width="72" height="72" transform="translate(314 4648.019)" fill="none"/><g transform="translate(325 4659.019)"><g clip-path="url(#a)"><path d="M14.763,321.93c0-2.116.005-4.233,0-6.349a2.5,2.5,0,0,0-2.7-2.673q-3.866-.005-7.732,0a2.5,2.5,0,0,0-2.7,2.673c0,2.116,0,4.233,0,6.349H0v-7.279a.824.824,0,0,0,.094-.173,4.064,4.064,0,0,1,4.085-3.209c.08,0,.159-.013.309-.025a4.975,4.975,0,0,1-1.1-4.3,4.8,4.8,0,0,1,1.747-2.813,4.924,4.924,0,0,1,6.35.181,4.984,4.984,0,0,1,.474,6.91c.4.042.782.051,1.154.128A4.052,4.052,0,0,1,16.4,315.37c.007,2.187,0,4.373,0,6.56ZM11.481,308a3.28,3.28,0,0,0-6.559-.033,3.322,3.322,0,0,0,3.289,3.3A3.323,3.323,0,0,0,11.481,308" transform="translate(0 -271.93)" fill="#8eb84a"/><path d="M335.766,343.455a1.2,1.2,0,0,1-.519-1.131c.014-4.728.008-9.457.009-14.185,0-.844.244-1.083,1.1-1.084.956,0,1.912,0,2.868,0,.649,0,.946.29.947.929,0,4.848,0,9.7.009,14.544a1.128,1.128,0,0,1-.518.927Zm1.162-1.68h1.58V328.713h-1.58Z" transform="translate(-300.808 -293.455)" fill="#8eb84a"/><path d="M263.912,386.436a1.194,1.194,0,0,1-.52-1.131c.017-3.089.008-6.177.009-9.266,0-.843.245-1.082,1.1-1.083.956,0,1.911,0,2.867,0,.649,0,.946.29.947.928,0,3.208,0,6.416.009,9.624a1.126,1.126,0,0,1-.518.926Zm1.153-1.671h1.581v-8.15h-1.581Z" transform="translate(-236.335 -336.436)" fill="#8eb84a"/><path d="M192.056,415.088a1.189,1.189,0,0,1-.52-1.131c.021-2.013.008-4.025.01-6.038,0-.771.265-1.029,1.05-1.03.972,0,1.945,0,2.917,0,.649,0,.946.29.948.927,0,2.115-.008,4.23.01,6.345a1.122,1.122,0,0,1-.518.926Zm2.733-6.521h-1.58v4.86h1.58Z" transform="translate(-171.86 -365.088)" fill="#8eb84a"/><rect width="1.64" height="6.522" transform="translate(3.281 43.478)" fill="#8eb84a"/><rect width="1.64" height="6.522" transform="translate(11.482 43.478)" fill="#8eb84a"/><path d="M280.429,60.194c-1.3,0-2.6,0-3.9,0-.718,0-.994-.275-1-.982,0-.5-.008-.991,0-1.486a2.691,2.691,0,0,0-.957-2.168,8.994,8.994,0,0,1-3.135-7.517,9.094,9.094,0,0,1,7.476-8.232,8.965,8.965,0,0,1,10.373,7.175,8.632,8.632,0,0,1-2.855,8.465,2.944,2.944,0,0,0-1.069,2.427c.021.477.011.957,0,1.435a.8.8,0,0,1-.891.882c-1.35.008-2.7,0-4.049,0m3.289-1.657a2.449,2.449,0,0,0,.016-.3,4.8,4.8,0,0,1,1.8-4.234,6.811,6.811,0,0,0,2.28-5.6,7.366,7.366,0,1,0-14.677,1.144,7.288,7.288,0,0,0,2.493,4.73,4.19,4.19,0,0,1,1.538,3.472c-.011.264,0,.528,0,.777h2.464c0-.829.024-1.629-.015-2.426a1.038,1.038,0,0,0-.321-.673c-.913-.77-1.85-1.514-2.795-2.245a2.511,2.511,0,0,1-.9-2.746,2.1,2.1,0,0,1,1.741-1.677,2.4,2.4,0,0,1,2.489.825c.446.547.781.538,1.238.006a2.538,2.538,0,0,1,3.412-.423,2.682,2.682,0,0,1,.472,3.512c-.725.806-1.565,1.509-2.32,2.224l-1.1-1.032c.071-.084.122-.152.181-.211.591-.592,1.192-1.175,1.773-1.778a1.038,1.038,0,0,0,.028-1.354.868.868,0,0,0-1.248.22,2.266,2.266,0,0,1-3.631.008,1.178,1.178,0,0,0-.52-.378.664.664,0,0,0-.863.356.894.894,0,0,0,.277,1.143c1.07.85,2.125,1.717,3.207,2.551a1.258,1.258,0,0,1,.542,1.133c-.028.984-.008,1.969-.008,2.973Z" transform="translate(-243.546 -35.621)" fill="#8eb84a"/><path d="M155.993,260.088l-7.045,3.257-.7-1.5,7.027-3.261c-.342-.709-.661-1.383-.991-2.051a.881.881,0,0,1,.029-1.008.9.9,0,0,1,1.018-.267c1.575.366,3.151.724,4.726,1.086.8.184,1.035.656.682,1.4-.694,1.462-1.4,2.917-2.093,4.38a.862.862,0,0,1-1.67-.007c-.3-.664-.635-1.316-.983-2.032m.47-2.856,1.347,2.792,1.074-2.242-2.421-.55" transform="translate(-133.017 -228.997)" fill="#8eb84a"/><path d="M330.668,271.165c.767,0,1.534,0,2.3,0,.662,0,.951.313.94.984a3.28,3.28,0,0,1-6.555-.071.81.81,0,0,1,.909-.913c.8-.007,1.6,0,2.4,0m1.295,1.683h-2.678a1.556,1.556,0,0,0,2.678,0" transform="translate(-293.727 -243.307)" fill="#8eb84a"/><rect width="8.132" height="1.576" transform="translate(32.832 25.423)" fill="#8eb84a"/><path d="M266.969,34.879l-1.059,1-1.609-1.7,1.046-.933,1.622,1.639" transform="translate(-237.15 -29.825)" fill="#8eb84a"/><path d="M431.276,33.686l-1.7,1.7-1-1.126,1.646-1.646,1.052,1.068" transform="translate(-384.551 -29.267)" fill="#8eb84a"/><path d="M263.751,197.515l1.642-1.631,1.127,1.126-1.682,1.627-1.087-1.122" transform="translate(-236.656 -175.761)" fill="#8eb84a"/><path d="M428.822,199.116l-1.716-1.7,1.138-1.044,1.648,1.679-1.069,1.068" transform="translate(-383.23 -176.197)" fill="#8eb84a"/><rect width="1.566" height="2.41" transform="translate(36.119)" fill="#8eb84a"/><rect width="2.409" height="1.563" transform="translate(23.796 12.316)" fill="#8eb84a"/><rect width="2.374" height="1.592" transform="translate(47.61 12.31)" fill="#8eb84a"/></g></g></g></svg>