<svg xmlns="http://www.w3.org/2000/svg" width="48" height="48" viewBox="0 0 48 48"><g transform="translate(0 -1)"><rect width="48" height="48" rx="7" transform="translate(0 1)" fill="none"/><g transform="translate(7.893 8.629)"><g transform="translate(-0.408 0.184)"><path d="M13.514,18.934a7.528,7.528,0,0,1,.825-2.606,5.484,5.484,0,0,1,4.888-2.578q4.128-.1,8.261,0a5.513,5.513,0,0,1,4.67,2.281,6.042,6.042,0,0,1,1.024,3.47c.04,2.646.059,5.293,0,7.937a5.4,5.4,0,0,1-2.784,5.03,6.293,6.293,0,0,1-2.961.73c-2.718.031-5.437.058-8.153,0a5.522,5.522,0,0,1-4.942-2.581,7.531,7.531,0,0,1-.825-2.606Zm9.86-3.319c-1.35,0-2.7-.026-4.05.006-2.108.049-3.4,1.037-3.788,2.853a5.874,5.874,0,0,0-.144,1.176c-.012,2.556-.047,5.113.006,7.668s1.338,3.9,3.79,3.992c2.77.1,5.544.093,8.315,0A3.445,3.445,0,0,0,31.15,28.5a4.591,4.591,0,0,0,.137-.96c.015-2.914.175-5.832-.088-8.741a3.29,3.29,0,0,0-3.026-3.084,41.244,41.244,0,0,0-4.8-.1" transform="translate(-6.999 -7.514)" fill="#fff"/><path d="M33.948,28.971a5.106,5.106,0,1,1-5.072-5.1,5.118,5.118,0,0,1,5.072,5.1m-1.893-.025a3.213,3.213,0,1,0-3.22,3.173,3.21,3.21,0,0,0,3.22-3.173" transform="translate(-12.495 -12.98)" fill="#fff"/><path d="M44.686,20.987a1.236,1.236,0,0,1,1.246,1.22,1.241,1.241,0,0,1-2.48.011,1.226,1.226,0,0,1,1.234-1.23" transform="translate(-23.095 -11.431)" fill="#fff"/></g></g></g></svg>
