<svg xmlns="http://www.w3.org/2000/svg" xmlns:xlink="http://www.w3.org/1999/xlink" width="72" height="72" viewBox="0 0 72 72">
  <defs>
    <clipPath id="clip-path">
      <rect id="Rectangle_3313" data-name="Rectangle 3313" width="43.686" height="46" fill="#8eb84a"/>
    </clipPath>
  </defs>
  <g id="Group_5681" data-name="Group 5681" transform="translate(-314 -4648.019)">
    <rect id="Rectangle_3310" data-name="Rectangle 3310" width="72" height="72" transform="translate(314 4648.019)" fill="none"/>
    <g id="Group_5692" data-name="Group 5692" transform="translate(328 4661.019)">
      <g id="Group_5691" data-name="Group 5691" clip-path="url(#clip-path)">
        <path id="Path_30668" data-name="Path 30668" d="M0,76.067a5.346,5.346,0,0,1,.989-.594,5.882,5.882,0,0,1,2.921-.279.765.765,0,0,1-.134,1.524,6.367,6.367,0,0,0-2.771.364c-.444.167-.752-.1-1.005-.441v-.575" transform="translate(0 -67.907)" fill="#8eb84a"/>
        <path id="Path_30669" data-name="Path 30669" d="M65.5,18.559l.261-1.5c-.7-.386-1.389-.786-2.1-1.14a.768.768,0,0,0-.594.02c-.587.285-1.154.612-1.723.933a.8.8,0,0,1-.941.014.815.815,0,0,1-.288-.935c.147-.635.269-1.279.355-1.925a.779.779,0,0,0-.19-.565c-.44-.461-.915-.891-1.388-1.319a.818.818,0,0,1,.5-1.51c.111-.013.248.021.329-.033.129-.086.312-.226.315-.346.025-1.052.014-2.105.014-3.181-.168-.049-.322-.087-.471-.137A2.713,2.713,0,0,1,57.759,4.05a2.752,2.752,0,0,1,2.363-2.357.875.875,0,0,0,.523-.307,3.1,3.1,0,0,1,4.925-.011.881.881,0,0,0,.518.317,2.75,2.75,0,0,1,2.343,2.156,2.645,2.645,0,0,1-1.3,2.848.633.633,0,0,0-.388.657c.023,1.021.011,2.043.014,3.065a.657.657,0,0,0,.04.134c.259.04.542.064.816.13A.745.745,0,0,1,68,11.994c-.445.457-.909.9-1.4,1.311a.763.763,0,0,0-.292.911,7,7,0,0,1,.165.8A23.532,23.532,0,0,1,68,13.063a8.86,8.86,0,0,1,7.264-2.855.474.474,0,0,0,.518-.286A7.621,7.621,0,0,1,79.7,6.569a.917.917,0,0,0,.444-.423A2.341,2.341,0,0,1,82.741,4.8a2.3,2.3,0,0,1,1.827,2.223,2.262,2.262,0,0,1-1.8,2.286,2.222,2.222,0,0,1-2.3-.818c-.1-.121-.185-.255-.3-.413a5.986,5.986,0,0,0-2.933,2.434c.193.074.349.136.506.194a9.187,9.187,0,0,1,4.929,4.179,9.983,9.983,0,0,0,.661.855,7.6,7.6,0,0,0,.981,1.334c.39.337.985.427,1.411.734a2.991,2.991,0,0,1-1.783,5.346c-1.74.009-3.48,0-5.22,0h-.561c0,.16-.007.283,0,.4a37.038,37.038,0,0,1-1.2,11.844c-.238.925-.486,1.847-.71,2.775a3.928,3.928,0,0,0-.107.9c-.009,2.027,0,4.055-.005,6.082,0,.754-.24.991-1.006.991H58.755c-.766,0-1-.235-1-.991,0-.956,0-1.911,0-2.9-.926-.108-1.823-.215-2.72-.317-1.124-.128-2.25-.249-3.374-.38-.589-.069-.8-.312-.8-.909,0-3.353-.007-6.705.008-10.058a1,1,0,0,0-.39-.852c-.764-.653-1.506-1.333-2.254-2-.546-.49-.579-.789-.145-1.4,1-1.4,1.977-2.823,3.014-4.2a3.457,3.457,0,0,0,.723-1.877c.013-.174.063-.346.072-.52.056-1.012.362-1.192,1.366-1.186,3.895.023,7.79.01,11.684.01ZM49.588,26.87c.785.7,1.534,1.4,2.308,2.062a1.29,1.29,0,0,1,.495,1.122c-.033.822-.009,1.646-.009,2.493.482,0,.9-.01,1.309,0a2.748,2.748,0,0,0,1.978-.693.773.773,0,0,1,1.181,0c.306.357.246.788-.182,1.173a3.85,3.85,0,0,1-2.6,1.046c-.552.006-1.1,0-1.655,0v6.013c.117.012.21.02.3.03,1.9.214,3.8.421,5.7.648.691.083.864.308.865,1q0,1.4,0,2.814h15.33c0-1.947,0-3.861,0-5.775a4.057,4.057,0,0,1,.107-.9c.185-.79.38-1.579.6-2.361a37.261,37.261,0,0,0,1.311-12.072.715.715,0,0,0-.441-.692,2.817,2.817,0,0,1-1.5-1.943c-.056-.242-.084-.49-.122-.725a.634.634,0,0,0-.117-.028q-10.369,0-20.738-.01c-.269,0-.372.095-.378.355A4.391,4.391,0,0,1,52.3,23.093c-.937,1.21-1.792,2.483-2.717,3.777m31.142-5.246c1,0,2.01.006,3.014,0a1.511,1.511,0,0,0,1.472-.947,1.438,1.438,0,0,0-1.266-1.963c-.465-.047-.829-.157-.988-.658a2.276,2.276,0,0,0-4.447-.014.837.837,0,0,1-.786.652,2.4,2.4,0,0,0-.652.122,1.438,1.438,0,0,0-.906,1.524,1.482,1.482,0,0,0,1.5,1.282c1.02.016,2.041,0,3.062,0m-.1-6.934A7.465,7.465,0,0,0,72.292,12.1c-2.869.944-5.36,4.071-5.128,6.44h1.38c.043-.18.085-.348.121-.517a6.116,6.116,0,0,1,9.89-3.413c.392.332.707.507,1.2.25a3.238,3.238,0,0,1,.874-.169M63.113,5.529c.846,0,1.691.007,2.537,0A1.191,1.191,0,0,0,66.94,4.4a1.166,1.166,0,0,0-1.3-1.159,1.081,1.081,0,0,1-1.2-.715,1.358,1.358,0,0,0-1.308-.815,1.375,1.375,0,0,0-1.356.815,1.058,1.058,0,0,1-1.148.716A1.176,1.176,0,0,0,59.285,4.4a1.2,1.2,0,0,0,1.339,1.131c.83.006,1.659,0,2.489,0m7.015,13.029c.459,0,.825-.016,1.189.005.265.016.379-.077.479-.33a3.062,3.062,0,0,1,4.883-1.21c.177.152.342.34.529.019.2-.341.4-.684.609-1.056a4.607,4.607,0,0,0-7.689,2.571M64.8,14.845a4.87,4.87,0,0,1-.1-1.649c.145-.448.619-.788,1.039-1.282a1.922,1.922,0,0,1-2.361-1.621,1.92,1.92,0,0,1-2.3,1.666c.407.476.88.813,1.021,1.256a4.614,4.614,0,0,1-.117,1.6,1.818,1.818,0,0,1,2.82.029m.314-4.558.078-.032V7.082H61.621v3.29c.366-.773.682-1.416.974-2.07a.865.865,0,0,1,.768-.623c.422-.01.648.267.812.63.3.664.621,1.318.933,1.977M83.033,7.08a.762.762,0,1,0-.782.744.8.8,0,0,0,.782-.744M73.379,18.559a10.809,10.809,0,0,1,1.2.009.753.753,0,0,0,.842-.547,1.437,1.437,0,0,0-2.04.539" transform="translate(-43.188 -0.146)" fill="#8eb84a"/>
        <path id="Path_30670" data-name="Path 30670" d="M281.917,4.8a4.435,4.435,0,0,0-.973,2.715c-.025.621-.284.937-.778.93s-.755-.335-.752-.952a5.8,5.8,0,0,1,1.352-3.738.77.77,0,0,0,.207-.672,2.691,2.691,0,0,1,2.2-3.045,2.724,2.724,0,0,1,3.111,2.18,2.71,2.71,0,0,1-2.108,3.115,2.83,2.83,0,0,1-2.255-.533m1.716-.954a1.181,1.181,0,0,0,1.139-1.13,1.147,1.147,0,1,0-2.293.016,1.184,1.184,0,0,0,1.154,1.114" transform="translate(-252.589 0.001)" fill="#8eb84a"/>
        <path id="Path_30671" data-name="Path 30671" d="M37.188,123.266a2.767,2.767,0,0,1-1.908,1.877,2.684,2.684,0,1,1,1.613-3.912.962.962,0,0,0,.739.542,5.21,5.21,0,0,1,3.231,2.131.782.782,0,1,1-1.244.918,3.791,3.791,0,0,0-2.431-1.557m-2.617.436a1.147,1.147,0,1,0-1.146-1.173,1.184,1.184,0,0,0,1.146,1.173" transform="translate(-28.824 -108.36)" fill="#8eb84a"/>
        <path id="Path_30672" data-name="Path 30672" d="M90.938,60.463a2.315,2.315,0,0,1-2.77-.745,2.27,2.27,0,0,1,.1-2.908,2.3,2.3,0,0,1,2.832-.5,2.241,2.241,0,0,1,1.1,2.647.83.83,0,0,0,.155.821,7.966,7.966,0,0,1,1.475,4.567c0,.542-.272.862-.73.88-.48.018-.774-.295-.8-.863a6.81,6.81,0,0,0-1.36-3.9m-.176-2.133a.762.762,0,1,0-.761.764.8.8,0,0,0,.761-.764" transform="translate(-79.272 -50.651)" fill="#8eb84a"/>
        <path id="Path_30673" data-name="Path 30673" d="M65.157,89.333c-.135.17-.264.481-.478.561a1.1,1.1,0,0,1-.826-.083,4.808,4.808,0,0,1-.9-.772.727.727,0,0,1-.135-.956.645.645,0,0,1,.894-.319,9.77,9.77,0,0,1,1.311,1.147c.069.065.069.2.136.421" transform="translate(-56.676 -79.262)" fill="#8eb84a"/>
        <path id="Path_30674" data-name="Path 30674" d="M119.03,246.921a3.882,3.882,0,0,1-3.471-2.259.784.784,0,0,1,.305-1.144.768.768,0,0,1,1.061.439,2.363,2.363,0,0,0,4.32,0,.778.778,0,1,1,1.372.711,3.915,3.915,0,0,1-3.588,2.259" transform="translate(-104.353 -220.065)" fill="#8eb84a"/>
      </g>
    </g>
  </g>
</svg>
