<svg xmlns="http://www.w3.org/2000/svg" width="48" height="48" viewBox="0 0 48 48"><rect width="48" height="48" rx="7" fill="none"/><g transform="translate(0 0.261)"><g transform="translate(8.099 7.312)"><g transform="translate(0 0)"><g transform="translate(6.769 7.297)"><path d="M21.8,19.774A1.915,1.915,0,0,1,19.774,21.8a1.951,1.951,0,0,1-2.029-1.927,2.057,2.057,0,0,1,2.029-2.13A1.972,1.972,0,0,1,21.8,19.774" transform="translate(-17.745 -17.745)" fill="#fff"/><rect width="4.058" height="13.188" transform="translate(0.001 5.072)" fill="#fff"/><path d="M36.753,27.613A4.443,4.443,0,0,0,32.9,29.642h-.1l-.2-1.725H28.942c0,1.116.1,2.435.1,3.956V40.6H33.1V33.4a3.124,3.124,0,0,1,.1-1.015,2.182,2.182,0,0,1,1.928-1.623c1.42,0,2.029,1.217,2.029,2.841v7h4.058V33.091c0-3.754-1.928-5.478-4.464-5.478" transform="translate(-22.956 -22.338)" fill="#fff"/></g></g></g></g></svg>
