<svg xmlns="http://www.w3.org/2000/svg" width="25.363" height="24" xmlns:v="https://vecta.io/nano"><defs><clipPath id="A"><path fill="none" d="M0 0h25.363v24H0z"/></clipPath></defs><g clip-path="url(#A)" fill="#8eb84a"><path d="M6.784 15.268a.5.5 0 0 0-.117-.918.5.5 0 0 0-.56.737.5.5 0 0 0 .677.181"/><path d="M4.754 18.688l2.495 4.321a1.98 1.98 0 0 0 3.432 0 1.98 1.98 0 0 0 0-1.981l-1.486-2.575 1.287-.743a.5.5 0 0 0 .181-.677l-.644-1.116 9.488-1.861c.515-.03.977-.325 1.222-.779s.236-1.002-.022-1.448l-1.646-2.851 1.052-1.594a.5.5 0 0 0 .015-.521l-.991-1.716a.5.5 0 0 0-.459-.247l-1.906.114-1.821-3.164c-.26-.456-.744-.739-1.269-.743h-.019c-.507-.002-.98.257-1.251.685l-6.471 8.244-4.207 2.429a3.47 3.47 0 0 0-1.382 4.516 3.47 3.47 0 0 0 4.403 1.707m5.069 2.835a.99.99 0 0 1-.378 1.328.99.99 0 0 1-1.338-.338l-2.478-4.29 1.716-.991 2.477 4.291M8.7 17.595l-.5-.858.858-.5.5.858zm9.737-11.686l.685 1.186-.61.924-1.18-2.047zm-5.2-3.573c.091-.15.254-.24.429-.238s.336.096.423.248l5.762 9.98a.5.5 0 0 1-.417.743 1.9 1.9 0 0 0-.271.046L13.071 2.557l.17-.222m-.829 1.062l5.726 9.918L9.5 15.01l-2.632-4.551zM1.323 16.706c-.329-.569-.418-1.245-.248-1.88s.586-1.175 1.155-1.503l3.86-2.229 2.477 4.29-3.861 2.229a2.48 2.48 0 0 1-3.383-.907"/><path d="M5.246 15.578a.5.5 0 0 0-.677-.181l-.858.5a.5.5 0 0 1-.677-.181.5.5 0 0 0-.858.5 1.49 1.49 0 0 0 2.03.544l.858-.5a.5.5 0 0 0 .182-.682M24.627 2.167l-2.76 1.536a.5.5 0 1 0 .481.865l2.76-1.536a.5.5 0 1 0-.481-.866m-.29 5.131l-1.914-.512a.5.5 0 1 0-.256.957l1.914.513a.5.5 0 0 0 .256-.957M19.527.367l-.513 1.914a.5.5 0 1 0 .957.257l.513-1.915a.5.5 0 0 0-.957-.256"/></g></svg>
