<svg id="Group_5701" data-name="Group 5701" xmlns="http://www.w3.org/2000/svg" xmlns:xlink="http://www.w3.org/1999/xlink" width="19.447" height="24" viewBox="0 0 19.447 24">
  <defs>
    <clipPath id="clip-path">
      <rect id="Rectangle_3330" data-name="Rectangle 3330" width="19.447" height="24" fill="#8eb84a"/>
    </clipPath>
  </defs>
  <g id="Group_5700" data-name="Group 5700" clip-path="url(#clip-path)">
    <path id="Path_30692" data-name="Path 30692" d="M9.046,23.3c-.212-.218-5.219-5.372-6.949-7.553A9.6,9.6,0,0,1,0,9.724a9.724,9.724,0,1,1,19.447,0,9.6,9.6,0,0,1-2.1,6.024c-1.728,2.18-6.738,7.337-6.951,7.555l-.678.7ZM9.724,1.891A7.842,7.842,0,0,0,1.891,9.724a7.731,7.731,0,0,0,1.688,4.851c1.31,1.651,4.789,5.3,6.145,6.708,1.357-1.41,4.838-5.059,6.147-6.71A7.834,7.834,0,0,0,9.724,1.891" transform="translate(0)" fill="#8eb84a"/>
    <path id="Path_30693" data-name="Path 30693" d="M14.409,5A9.419,9.419,0,0,0,5,14.409a9.291,9.291,0,0,0,2.029,5.83c1.719,2.167,6.716,7.312,6.928,7.529l.452.465.452-.465c.212-.218,5.211-5.364,6.93-7.531a9.288,9.288,0,0,0,2.027-5.828A9.419,9.419,0,0,0,14.409,5M20.8,19.454c-1.384,1.745-5.1,5.626-6.394,6.969C13.114,25.08,9.4,21.2,8.016,19.455A8.043,8.043,0,0,1,6.26,14.409a8.148,8.148,0,1,1,16.3,0A8.04,8.04,0,0,1,20.8,19.454" transform="translate(-4.685 -4.685)" fill="#8eb84a"/>
    <path id="Path_30694" data-name="Path 30694" d="M66.807,71.034a5.884,5.884,0,1,1,5.884-5.884,5.891,5.891,0,0,1-5.884,5.884m0-9.878A3.994,3.994,0,1,0,70.8,65.149a4,4,0,0,0-3.994-3.994" transform="translate(-57.084 -55.53)" fill="#8eb84a"/>
    <path id="Path_30695" data-name="Path 30695" d="M71.492,64.265a5.569,5.569,0,1,0,5.569,5.569,5.575,5.575,0,0,0-5.569-5.569m0,9.878A4.309,4.309,0,1,1,75.8,69.834a4.314,4.314,0,0,1-4.309,4.309" transform="translate(-61.769 -60.215)" fill="#8eb84a"/>
  </g>
</svg>
