<svg xmlns="http://www.w3.org/2000/svg" width="32" height="32" viewBox="0 0 32 32">
  <g id="Group_5792" data-name="Group 5792" transform="translate(-6292.499 -6399)">
    <path id="Shape" d="M12.148,24h0c-2.209,0-4.706-1.6-7.032-4.511a25.507,25.507,0,0,1-4.647-9.36,12.525,12.525,0,0,1-.3-5.334A4.739,4.739,0,0,1,2.59,1.322L5.434,0,9.475,7.89,6.75,9.231c-.315.738.5,2.832,1.474,4.43.721,1.185,1.4,1.911,1.823,1.942.088-.057,2.566-1.276,2.671-1.328l4.111,7.932-1.183.579-1.671.816A4.368,4.368,0,0,1,12.148,24ZM4.52,2.6,3.5,3.1C1.955,3.9,1.54,6.117,2.327,9.33a25.4,25.4,0,0,0,4.014,8.437A15.274,15.274,0,0,0,9.2,20.82a4.861,4.861,0,0,0,2.868,1.2,2.582,2.582,0,0,0,1.081-.232l.971-.474-2.272-4.383-1.026.5a1.622,1.622,0,0,1-.718.165c-1.995,0-4.4-3.41-5.135-6.343-.642-2.556.225-3.453.8-3.761l1.007-.5ZM21.6,13h0l-1.84-.547a7.724,7.724,0,0,0-5.2-9.611L15.107,1A9.65,9.65,0,0,1,21.6,13Zm-3.186-.95h0l-1.795-.535a4.448,4.448,0,0,0-3-5.532l.536-1.8a6.323,6.323,0,0,1,4.255,7.863Zm-3.141-.935h0l-2.916-.87.868-2.916a3.045,3.045,0,0,1,2.049,3.785Z" transform="translate(6296.999 6403)" fill="#8eb84a"/>
    <rect id="Rectangle_3368" data-name="Rectangle 3368" width="32" height="32" transform="translate(6292.499 6399)" fill="none"/>
  </g>
</svg>
