<svg xmlns="http://www.w3.org/2000/svg" xmlns:xlink="http://www.w3.org/1999/xlink" width="72" height="72" viewBox="0 0 72 72">
  <defs>
    <clipPath id="clip-path">
      <rect id="Rectangle_3320" data-name="Rectangle 3320" width="48.677" height="48" fill="#8eb84a"/>
    </clipPath>
  </defs>
  <g id="Group_5681" data-name="Group 5681" transform="translate(-314 -4648.019)">
    <rect id="Rectangle_3310" data-name="Rectangle 3310" width="72" height="72" transform="translate(314 4648.019)" fill="none"/>
    <g id="Group_5696" data-name="Group 5696" transform="translate(326 4660.019)">
      <g id="Group_5695" data-name="Group 5695" clip-path="url(#clip-path)">
        <path id="Path_30677" data-name="Path 30677" d="M0,44.027a3.214,3.214,0,0,1,.867-.6,2.847,2.847,0,0,0,2.225-2.243c.029-.129.046-.3.134-.369.248-.19.526-.455.8-.464.251-.008.526.26.762.443.088.068.105.24.135.368A2.749,2.749,0,0,0,7.141,43.4c.129.029.3.048.369.135.194.245.476.525.476.79a1.383,1.383,0,0,1-.48.784,1.374,1.374,0,0,1-.6.218A2.525,2.525,0,0,0,5.016,47.2c-.149.532-.263,1.117-.991,1.128s-.865-.566-1.012-1.1A2.647,2.647,0,0,0,1.055,45.3,4.594,4.594,0,0,1,0,44.628v-.6m4.932.313-.91-.955L3.1,44.33l.9.936.93-.926" transform="translate(0 -36.297)" fill="#8eb84a"/>
        <rect id="Rectangle_3315" data-name="Rectangle 3315" width="1.568" height="1.605" transform="translate(0 0.006)" fill="#8eb84a"/>
        <path id="Path_30678" data-name="Path 30678" d="M24.232,38.365c-1.138-2.5-.847-4.322.883-5.61a4.014,4.014,0,0,1,4.966.132c1.6,1.353,1.855,3.289.693,5.476a2.9,2.9,0,0,1,2.455,1.78c.331.6.713,1.168,1.08,1.746a2.447,2.447,0,0,1,.1,2.61q-1.366,2.619-2.715,5.246a1.3,1.3,0,0,0-.164.56c-.01,2.908-.006,5.817,0,8.726a2.1,2.1,0,0,0,.03.217h1.977c.351,0,.7,0,1.053,0a2.27,2.27,0,0,1,2.1,1.129A43.38,43.38,0,0,0,46.828,71.647c1.515,1.231,2.97,2.536,4.486,3.836L50.249,76.73l-9.243-8.009c-.785.94-1.622,1.934-2.452,2.934a1.673,1.673,0,0,1-2.838.15c-1.109-1.112-2.216-2.226-3.37-3.385-.134.126-.253.232-.365.343Q30.438,70.3,28.9,71.847a1.651,1.651,0,0,1-2.74-.121c-.9-1.091-1.815-2.176-2.752-3.3l-3.523,3.014c-.216.185-.43.371-.649.553a1.6,1.6,0,0,1-2.584-.44c-.706-1.21-1.394-2.431-2.113-3.686-3.262,3.287-7.043,5.9-10.584,8.882l-1.02-1.277C4.187,74.464,5.439,73.5,6.652,72.48c2.138-1.791,4.312-3.545,6.358-5.437a30.392,30.392,0,0,0,5.1-6.355,2.728,2.728,0,0,1,2.647-1.45c.9.047,1.8.009,2.743.009v-.485c0-2.775.005-5.55-.009-8.324a1.747,1.747,0,0,0-.193-.754c-.862-1.7-1.724-3.391-2.623-5.066a2.577,2.577,0,0,1,.125-2.873c.408-.61.8-1.232,1.163-1.871a2.706,2.706,0,0,1,2.267-1.51M39.949,67.447a38.366,38.366,0,0,1-4.418-5.9,1.343,1.343,0,0,0-1.309-.709c-4.195.018-8.39.007-12.585.01-2.013,0-1.508-.141-2.592,1.384-1.063,1.5-2.184,2.95-3.308,4.46l2.356,4.119c.129-.1.223-.166.31-.24q1.923-1.647,3.844-3.294a1.612,1.612,0,0,1,2.466.181c.24.279.469.566.7.848l2.153,2.575,3.368-3.37a1.705,1.705,0,0,1,2.767-.009c1.119,1.123,2.234,2.25,3.37,3.395l2.874-3.45m-11.63-17.8v9.568h1.628V42.427h1.591v3.888a24,24,0,0,0,1.481-2.737,1.008,1.008,0,0,0-.083-.787A24.016,24.016,0,0,0,31.506,40.5a1.256,1.256,0,0,0-.851-.49q-3.132-.063-6.266,0a1.191,1.191,0,0,0-.833.433c-.55.774-1.034,1.6-1.514,2.418a.775.775,0,0,0-.087.608c.455.97.955,1.919,1.439,2.875l.116-.034V42.435h1.6V59.218h1.611V49.644Zm1.6-13.681a2.406,2.406,0,1,0-2.382,2.419,2.442,2.442,0,0,0,2.382-2.419" transform="translate(-2.636 -28.748)" fill="#8eb84a"/>
        <path id="Path_30679" data-name="Path 30679" d="M120.028,24.508l-.671,1.372a13.408,13.408,0,0,1-7.561-14.2,13.642,13.642,0,1,1,19.458,14.211l-.692-1.409a11.97,11.97,0,0,0,6.32-7.6,11.7,11.7,0,0,0-.294-7.378,12.041,12.041,0,1,0-16.561,15" transform="translate(-100.426 -0.001)" fill="#8eb84a"/>
        <path id="Path_30680" data-name="Path 30680" d="M387.069,199.738a4.566,4.566,0,0,1-.59-.533,1.438,1.438,0,0,1-.2-.558,2.54,2.54,0,0,0-1.942-1.942c-.52-.138-1.069-.282-1.072-.985s.542-.854,1.063-.992a2.552,2.552,0,0,0,1.961-1.985,1.06,1.06,0,0,1,.191-.507,1.943,1.943,0,0,1,.78-.51.721.721,0,0,1,.818.515,4.043,4.043,0,0,1,.192.567,2.529,2.529,0,0,0,1.913,1.91c.537.145,1.108.288,1.095,1.018-.013.7-.566.843-1.087.974a2.676,2.676,0,0,0-2.01,2.189,1.008,1.008,0,0,1-1.109.839m.19-3.1.953-.916-.921-.943-.962.935.93.924" transform="translate(-344.74 -172.439)" fill="#8eb84a"/>
        <rect id="Rectangle_3316" data-name="Rectangle 3316" width="1.53" height="1.557" transform="translate(46.574 0.017)" fill="#8eb84a"/>
        <rect id="Rectangle_3317" data-name="Rectangle 3317" width="1.545" height="1.536" transform="translate(8.852 25.722)" fill="#8eb84a"/>
        <rect id="Rectangle_3318" data-name="Rectangle 3318" width="1.53" height="1.557" transform="translate(2.449 34.547)" fill="#8eb84a"/>
        <rect id="Rectangle_3319" data-name="Rectangle 3319" width="1.536" height="1.545" transform="translate(44.173 36.149)" fill="#8eb84a"/>
      </g>
    </g>
  </g>
</svg>
