<svg xmlns="http://www.w3.org/2000/svg" xmlns:xlink="http://www.w3.org/1999/xlink" width="73.764" height="48.177" viewBox="0 0 73.764 48.177">
  <defs>
    <clipPath id="clip-path">
      <rect id="Rectangle_3351" data-name="Rectangle 3351" width="73.764" height="48.177" fill="#8eb84a"/>
    </clipPath>
  </defs>
  <g id="Group_5764" data-name="Group 5764" clip-path="url(#clip-path)">
    <path id="Path_30709" data-name="Path 30709" d="M56.357,48.177a17.4,17.4,0,0,0,12.421-4.683q4.979-4.683,4.979-14.8,0-8.466-3.866-14.272A33.646,33.646,0,0,0,60.75,5.051,40.815,40.815,0,0,0,51.009,0L45.5,8.917a36.247,36.247,0,0,1,6.843,3.425,21.078,21.078,0,0,1,4.61,3.866,5.84,5.84,0,0,1,1.633,3.715,2.017,2.017,0,0,1-.3,1.265,1.083,1.083,0,0,1-.889.375,5.027,5.027,0,0,1-1.864-.6,8.951,8.951,0,0,0-3.642-.593,15.186,15.186,0,0,0-8.252,2.746Q39.408,25.883,39.4,33.6a12.952,12.952,0,0,0,4.834,10.709,18.777,18.777,0,0,0,12.118,3.866m-39.4,0a17.4,17.4,0,0,0,12.415-4.683q4.989-4.683,4.986-14.8,0-8.466-3.866-14.272a33.758,33.758,0,0,0-9.148-9.372A40.693,40.693,0,0,0,11.6,0L6.1,8.917a36.381,36.381,0,0,1,6.836,3.425,20.922,20.922,0,0,1,4.61,3.866,5.84,5.84,0,0,1,1.633,3.715,2.017,2.017,0,0,1-.3,1.265,1.083,1.083,0,0,1-.889.375,5.027,5.027,0,0,1-1.864-.6,8.93,8.93,0,0,0-3.642-.593,15.186,15.186,0,0,0-8.252,2.746Q0,25.883,0,33.6q0,6.846,4.834,10.709a18.752,18.752,0,0,0,12.118,3.866" transform="translate(0.007 -0.003)" fill="#8eb84a"/>
  </g>
</svg>
