<svg xmlns="http://www.w3.org/2000/svg" xmlns:xlink="http://www.w3.org/1999/xlink" width="73.763" height="48.177" viewBox="0 0 73.763 48.177">
  <defs>
    <clipPath id="clip-path">
      <rect id="Rectangle_3350" data-name="Rectangle 3350" width="73.763" height="48.177" fill="#8eb84a"/>
    </clipPath>
  </defs>
  <g id="Group_5763" data-name="Group 5763" clip-path="url(#clip-path)">
    <path id="Path_30708" data-name="Path 30708" d="M17.4,48.177A17.4,17.4,0,0,1,4.979,43.494Q0,38.811,0,28.7q0-8.466,3.866-14.272a33.646,33.646,0,0,1,9.141-9.372A40.814,40.814,0,0,1,22.748,0l5.506,8.917a36.247,36.247,0,0,0-6.843,3.425,21.078,21.078,0,0,0-4.61,3.866,5.84,5.84,0,0,0-1.633,3.715,2.017,2.017,0,0,0,.3,1.265,1.083,1.083,0,0,0,.889.375,5.027,5.027,0,0,0,1.864-.6,8.951,8.951,0,0,1,3.642-.593,15.186,15.186,0,0,1,8.252,2.746q4.238,2.766,4.241,10.485a12.952,12.952,0,0,1-4.834,10.709A18.776,18.776,0,0,1,17.4,48.177m39.4,0A17.4,17.4,0,0,1,44.39,43.494Q39.4,38.811,39.4,28.7q0-8.466,3.866-14.272a33.758,33.758,0,0,1,9.148-9.372A40.693,40.693,0,0,1,62.159,0l5.5,8.917a36.381,36.381,0,0,0-6.836,3.425,20.922,20.922,0,0,0-4.61,3.866,5.84,5.84,0,0,0-1.633,3.715,2.017,2.017,0,0,0,.3,1.265,1.083,1.083,0,0,0,.889.375,5.027,5.027,0,0,0,1.864-.6,8.93,8.93,0,0,1,3.642-.593,15.186,15.186,0,0,1,8.252,2.746Q73.76,25.883,73.757,33.6q0,6.846-4.834,10.709A18.751,18.751,0,0,1,56.8,48.177" transform="translate(0 -0.003)" fill="#8eb84a"/>
  </g>
</svg>
