<svg xmlns="http://www.w3.org/2000/svg" width="18.333" height="22" viewBox="0 0 18.333 22"><g transform="translate(0)"><path d="M3.3,22H16.5a1.836,1.836,0,0,0,1.833-1.833V3.3a1.833,1.833,0,0,0-1.5-1.8,1.833,1.833,0,0,0-1.8-1.5h-9.9a.367.367,0,0,0-.259.107L.107,4.874A.367.367,0,0,0,0,5.133V18.7a1.833,1.833,0,0,0,1.5,1.8A1.833,1.833,0,0,0,3.3,22ZM17.6,3.3V20.167a1.1,1.1,0,0,1-1.1,1.1H3.3a1.1,1.1,0,0,1-1.033-.733H15.033A1.836,1.836,0,0,0,16.867,18.7V2.267A1.1,1.1,0,0,1,17.6,3.3ZM4.767,1.252V3.667a1.1,1.1,0,0,1-1.1,1.1H1.252ZM.733,18.7V5.5H3.667A1.836,1.836,0,0,0,5.5,3.667V.733h9.533a1.1,1.1,0,0,1,1.1,1.1V18.7a1.1,1.1,0,0,1-1.1,1.1H1.833A1.1,1.1,0,0,1,.733,18.7Z" transform="translate(0)" fill="#8eb84a"/><path d="M28.372,4.744H30.6A.372.372,0,1,0,30.6,4H28.372a.372.372,0,1,0,0,.744Z" transform="translate(-17.761 -2.513)" fill="#8eb84a"/><path d="M38.372,4.744h.744a.372.372,0,1,0,0-.744h-.744a.372.372,0,1,0,0,.744Z" transform="translate(-24.084 -2.513)" fill="#8eb84a"/><path d="M9.372,19.346c.426,0,.744.216.744.409V20.8A1.337,1.337,0,0,0,11.6,21.948a.372.372,0,0,0,0-.744c-.426,0-.744-.216-.744-.409V19.755a1.021,1.021,0,0,0-.391-.781,1.021,1.021,0,0,0,.391-.781V17.152c0-.193.318-.409.744-.409a.372.372,0,0,0,0-.744,1.337,1.337,0,0,0-1.487,1.152v1.041c0,.193-.318.409-.744.409a.372.372,0,1,0,0,.744Z" transform="translate(-5.709 -10.163)" fill="#8eb84a"/><path d="M32.859,17.152A1.337,1.337,0,0,0,31.372,16a.372.372,0,0,0,0,.744c.426,0,.744.216.744.409v1.041a1.021,1.021,0,0,0,.391.781,1.021,1.021,0,0,0-.391.781V20.8c0,.193-.318.409-.744.409a.372.372,0,0,0,0,.744A1.337,1.337,0,0,0,32.859,20.8V19.755c0-.193.318-.409.744-.409a.372.372,0,1,0,0-.744c-.426,0-.744-.216-.744-.409Z" transform="translate(-19.663 -10.163)" fill="#8eb84a"/><circle cx="0.407" cy="0.407" r="0.407" transform="translate(6.755 9.391)" fill="#8eb84a"/><circle cx="0.407" cy="0.407" r="0.407" transform="translate(8.359 9.391)" fill="#8eb84a"/><circle cx="0.407" cy="0.407" r="0.407" transform="translate(9.963 9.391)" fill="#8eb84a"/><path d="M5.372,37.744h.372a.372.372,0,0,0,0-.744H5.372a.372.372,0,0,0,0,.744Z" transform="translate(-3.141 -23.44)" fill="#8eb84a"/><path d="M10.372,37.744h3.346a.372.372,0,0,0,0-.744H10.372a.372.372,0,0,0,0,.744Z" transform="translate(-6.348 -23.44)" fill="#8eb84a"/><path d="M29.948,37H24.372a.372.372,0,0,0,0,.744h5.576a.372.372,0,0,0,0-.744Z" transform="translate(-15.263 -23.44)" fill="#8eb84a"/><path d="M5.372,42.744h.372a.372.372,0,0,0,0-.744H5.372a.372.372,0,0,0,0,.744Z" transform="translate(-3.141 -26.607)" fill="#8eb84a"/><path d="M33.718,42H30.372a.372.372,0,0,0,0,.744h3.346a.372.372,0,1,0,0-.744Z" transform="translate(-19.043 -26.607)" fill="#8eb84a"/><path d="M10.372,42.744h5.576a.372.372,0,0,0,0-.744H10.372a.372.372,0,0,0,0,.744Z" transform="translate(-6.36 -26.607)" fill="#8eb84a"/><path d="M5.372,47.744h.372a.372.372,0,0,0,0-.744H5.372a.372.372,0,0,0,0,.744Z" transform="translate(-3.141 -29.775)" fill="#8eb84a"/><path d="M13.718,47H10.372a.372.372,0,0,0,0,.744h3.346a.372.372,0,0,0,0-.744Z" transform="translate(-6.348 -29.775)" fill="#8eb84a"/><path d="M29.948,47H24.372a.372.372,0,0,0,0,.744h5.576a.372.372,0,0,0,0-.744Z" transform="translate(-15.263 -29.775)" fill="#8eb84a"/></g></svg>