<svg xmlns="http://www.w3.org/2000/svg" xmlns:xlink="http://www.w3.org/1999/xlink" width="72" height="72" viewBox="0 0 72 72">
  <defs>
    <clipPath id="clip-path">
      <rect id="Rectangle_3309" data-name="Rectangle 3309" width="48" height="48.001" fill="#8eb84a"/>
    </clipPath>
  </defs>
  <g id="Group_5681" data-name="Group 5681" transform="translate(-314 -4648)">
    <rect id="Rectangle_3310" data-name="Rectangle 3310" width="72" height="72" transform="translate(314 4648)" fill="none"/>
    <g id="Group_5680" data-name="Group 5680" transform="translate(326 4660)">
      <g id="Group_5679" data-name="Group 5679" clip-path="url(#clip-path)">
        <path id="Path_30659" data-name="Path 30659" d="M24.28,0a1.14,1.14,0,0,1,.545,1.105c-.022.683-.006,1.368-.006,2.089A20.928,20.928,0,0,1,44.805,23.181c.707,0,1.376.019,2.043-.006A1.171,1.171,0,0,1,48,23.72v.563a1.175,1.175,0,0,1-1.153.546c-.667-.025-1.336-.006-1.972-.006-.183,1.221-.282,2.407-.547,3.554A20.512,20.512,0,0,1,32.2,43.123a.811.811,0,0,1-1.154-.364.821.821,0,0,1,.535-1.122A19.186,19.186,0,0,0,43.149,22.906a19.183,19.183,0,1,0-23.771,19.7,34.949,34.949,0,0,0,4.443.581c.734.081.994.312,1,1.061,0,.937.009,1.875,0,2.812-.008.607-.354.966-.868.937-.467-.026-.759-.372-.767-.944-.01-.732,0-1.463,0-2.248A20.926,20.926,0,0,1,3.194,24.822H1.535c-.188,0-.375,0-.562,0C.35,24.806-.008,24.5,0,23.986c.008-.489.361-.793.955-.8.578-.009,1.156,0,1.734,0h.5A20.929,20.929,0,0,1,23.179,3.2c0-.722.017-1.407-.006-2.09A1.14,1.14,0,0,1,23.718,0Z" transform="translate(0)" fill="#8eb84a"/>
        <path id="Path_30660" data-name="Path 30660" d="M113.247,126.77a13.17,13.17,0,0,0,12.892-10.447,13,13,0,0,0-7.679-14.656,12.721,12.721,0,0,0-12.172.959c-.338.208-.7.389-1.03.1a1.115,1.115,0,0,1-.352-.744.918.918,0,0,1,.4-.626,13.489,13.489,0,0,1,6.121-2.283,14.532,14.532,0,0,1,12.82,4.791,14.063,14.063,0,0,1,3.71,11.071,14.693,14.693,0,0,1-28.788,2.718,14.2,14.2,0,0,1,1.266-11.089.85.85,0,0,1,.888-.551.726.726,0,0,1,.679.67,1.248,1.248,0,0,1-.157.66,13.027,13.027,0,0,0,1.533,14.818,12.689,12.689,0,0,0,9.872,4.611" transform="translate(-89.312 -89.67)" fill="#8eb84a"/>
        <path id="Path_30661" data-name="Path 30661" d="M161.65,168.5c0,.344.006.732,0,1.12-.012.608-.346,1-.834.986s-.791-.385-.8-.968c-.008-.389,0-.778,0-1.165a7.913,7.913,0,0,1-6.857-6.858c-.355,0-.741,0-1.127,0-.617-.009-1-.323-1.008-.812s.381-.816.992-.826c.387-.007.774,0,1.146,0a7.9,7.9,0,0,1,6.855-6.853c0-.385-.016-.817,0-1.247.033-.72.688-1.14,1.215-.749a1.3,1.3,0,0,1,.4.781,7.648,7.648,0,0,1,.017,1.249,7.75,7.75,0,0,1,6.812,6.819c.4,0,.785,0,1.171,0,.618.009,1,.321,1.009.81s-.38.824-.991.827q-1.969.01-3.937,0c-.6,0-.943-.31-.948-.806-.006-.516.345-.817.971-.831.328-.007.656-.009.984-.015.014,0,.028-.013.041-.02,0-2.311-2.381-4.73-5.11-5.12,0,.375.008.742,0,1.108-.016.592-.324.935-.822.933s-.8-.345-.815-.941c-.009-.328-.007-.656-.012-.984a.28.28,0,0,0-.031-.086,5.911,5.911,0,0,0-5.108,5.125c.377,0,.748-.009,1.118,0,.587.017.927.334.918.836-.009.479-.344.781-.908.8-.372.012-.744,0-1.12,0a5.931,5.931,0,0,0,5.142,5.136c0-.344,0-.685,0-1.026.009-.638.3-.99.806-1,.532-.007.825.349.833,1.018,0,.326,0,.653,0,1.028a5.928,5.928,0,0,0,3.569-1.815c.1-.1.184-.213.282-.313a.808.808,0,1,1,1.206,1.073,7.242,7.242,0,0,1-3.044,2.193c-.624.231-1.28.378-2.014.589" transform="translate(-136.831 -136.791)" fill="#8eb84a"/>
        <path id="Path_30662" data-name="Path 30662" d="M241.684,240.178a1.6,1.6,0,1,1-1.536-1.653,1.57,1.57,0,0,1,1.536,1.653" transform="translate(-216.091 -216.118)" fill="#8eb84a"/>
      </g>
    </g>
  </g>
</svg>
