<svg xmlns="http://www.w3.org/2000/svg" xmlns:xlink="http://www.w3.org/1999/xlink" width="24" height="24" viewBox="0 0 24 24"><defs><clipPath id="a"><rect width="24" height="24" fill="none"/></clipPath></defs><g transform="translate(0 0)"><g transform="translate(0 0)" clip-path="url(#a)"><path d="M23.587,20a.352.352,0,0,0,.352.352h.586v4.172H20.353V20.353h2.086a.352.352,0,0,0,0-.7h-2.25a.54.54,0,0,0-.539.539v4.5a.54.54,0,0,0,.539.539h4.5a.54.54,0,0,0,.539-.539v-4.5a.54.54,0,0,0-.539-.539h-.75a.352.352,0,0,0-.352.352" transform="translate(-10.439 -10.439)" fill="#8eb84a"/><path d="M3.539,3A.54.54,0,0,0,3,3.539V5.977a.54.54,0,0,0,.539.539H5.977a.54.54,0,0,0,.539-.539V3.539A.54.54,0,0,0,5.977,3ZM5.813,5.813H3.7V3.7H5.813Z" transform="translate(-1.594 -1.594)" fill="#8eb84a"/><path d="M5.977,40.7H3.539A.54.54,0,0,0,3,41.239v2.438a.54.54,0,0,0,.539.539H5.977a.54.54,0,0,0,.539-.539V41.239a.54.54,0,0,0-.539-.539m-.164,2.813H3.7V41.4H5.813Z" transform="translate(-1.594 -21.622)" fill="#8eb84a"/><path d="M18.586,6.328h4.5A.915.915,0,0,0,24,5.414V.914A.915.915,0,0,0,23.086,0h-4.5a.915.915,0,0,0-.914.914v1.9H13.453a.352.352,0,0,0-.352.352V7.8H11.18V6.432a1.055,1.055,0,1,0-.7,0V7.8H8.906a1.1,1.1,0,0,0-1.1,1.1v2.04H3.516V6.328h1.9a.915.915,0,0,0,.914-.914V4.5a.352.352,0,0,0-.7,0v.914a.211.211,0,0,1-.211.211H.914A.211.211,0,0,1,.7,5.414V.914A.211.211,0,0,1,.914.7h4.5a.211.211,0,0,1,.211.211V3a.352.352,0,0,0,.7,0V.914A.915.915,0,0,0,5.414,0H.914A.915.915,0,0,0,0,.914v4.5a.915.915,0,0,0,.914.914h1.9V11.3a.352.352,0,0,0,.352.352H7.8v1.5H7.322a1.055,1.055,0,1,0,0,.7H7.8v1.243a1.1,1.1,0,0,0,1.1,1.1h1.571v4.176H6.328V18.586a.915.915,0,0,0-.914-.914H.914A.915.915,0,0,0,0,18.586v4.5A.915.915,0,0,0,.914,24h4.5a.915.915,0,0,0,.914-.914V21.075h4.5a.352.352,0,0,0,.352-.352V16.2H13.1v1.56a1.055,1.055,0,1,0,.7,0V16.2h1.29a1.1,1.1,0,0,0,1.1-1.1V12.7h4.29v4.971h-1.9a.915.915,0,0,0-.914.914V19.5a.352.352,0,0,0,.7,0v-.914a.211.211,0,0,1,.211-.211h4.5a.211.211,0,0,1,.211.211v4.5a.211.211,0,0,1-.211.211h-4.5a.211.211,0,0,1-.211-.211V20.994a.352.352,0,0,0-.7,0v2.092a.915.915,0,0,0,.914.914h4.5A.915.915,0,0,0,24,23.086v-4.5a.915.915,0,0,0-.914-.914h-1.9V12.349A.352.352,0,0,0,20.836,12H16.2V10.8h1.675a1.055,1.055,0,1,0,0-.7H16.2v-1.2a1.1,1.1,0,0,0-1.1-1.1H13.8V3.516h3.867v1.9a.915.915,0,0,0,.914.914M10.828,5.086a.352.352,0,1,1-.352.352.352.352,0,0,1,.352-.352m-4.5,8.766A.352.352,0,1,1,6.68,13.5a.352.352,0,0,1-.352.352m-.7,9.234a.211.211,0,0,1-.211.211H.914A.211.211,0,0,1,.7,23.086v-4.5a.211.211,0,0,1,.211-.211h4.5a.211.211,0,0,1,.211.211ZM13.453,19.1a.352.352,0,1,1,.352-.352.352.352,0,0,1-.352.352m5.412-9a.352.352,0,1,1-.352.352.352.352,0,0,1,.352-.352m-3.373-1.2v6.188a.4.4,0,0,1-.4.4H8.906a.4.4,0,0,1-.4-.4V8.906a.4.4,0,0,1,.4-.4h6.188a.4.4,0,0,1,.4.4M18.586.7h4.5A.211.211,0,0,1,23.3.914v4.5a.211.211,0,0,1-.211.211h-4.5a.211.211,0,0,1-.211-.211V.914A.211.211,0,0,1,18.586.7" transform="translate(0 0)" fill="#8eb84a"/><path d="M41.239,6.516h2.438a.54.54,0,0,0,.539-.539V3.539A.54.54,0,0,0,43.677,3H41.239a.54.54,0,0,0-.539.539V5.977a.54.54,0,0,0,.539.539M41.4,3.7h2.109V5.813H41.4Z" transform="translate(-21.622 -1.594)" fill="#8eb84a"/><path d="M43.677,44.216a.54.54,0,0,0,.539-.539V41.239a.54.54,0,0,0-.539-.539H41.239a.54.54,0,0,0-.539.539v2.438a.54.54,0,0,0,.539.539ZM41.4,41.4h2.109v2.109H41.4Z" transform="translate(-21.622 -21.622)" fill="#8eb84a"/></g></g></svg>
