<svg xmlns="http://www.w3.org/2000/svg" xmlns:xlink="http://www.w3.org/1999/xlink" width="48" height="48" viewBox="0 0 48 48"><defs><clipPath id="a"><rect width="26" height="26" fill="#8eb84a"/></clipPath></defs><g transform="translate(-193 -558)"><rect width="48" height="48" transform="translate(193 558)" fill="none"/><g transform="translate(204 569)"><g clip-path="url(#a)"><path d="M23.308,5.079h0A13,13,0,0,0,5.16,2.632L4.17,1.64c-.283-.283-.543-.188-.579.21L3.265,5.4a.585.585,0,0,0,.658.658l3.55-.321c.4-.036.493-.3.21-.58L6.656,4.129a10.9,10.9,0,1,1-4.5,7.656,1.045,1.045,0,1,0-2.078-.233A13,13,0,1,0,23.308,5.079" transform="translate(0 0)" fill="#8eb84a"/><path d="M208.983,81.123a.846.846,0,0,0-.846.846V90.4l7.713,3.987a.846.846,0,0,0,.778-1.5l-6.8-3.514v-7.4a.846.846,0,0,0-.847-.846" transform="translate(-196.493 -76.585)" fill="#8eb84a"/></g></g></g></svg>
