<svg xmlns="http://www.w3.org/2000/svg" xmlns:xlink="http://www.w3.org/1999/xlink" width="72" height="72" viewBox="0 0 72 72">
  <defs>
    <clipPath id="clip-path">
      <rect id="Rectangle_3312" data-name="Rectangle 3312" width="44.006" height="44" fill="#8eb84a"/>
    </clipPath>
  </defs>
  <g id="Group_5681" data-name="Group 5681" transform="translate(-314 -4648.019)">
    <rect id="Rectangle_3310" data-name="Rectangle 3310" width="72" height="72" transform="translate(314 4648.019)" fill="none"/>
    <g id="Group_5690" data-name="Group 5690" transform="translate(328 4662.019)">
      <g id="Group_5689" data-name="Group 5689" clip-path="url(#clip-path)">
        <path id="Path_30663" data-name="Path 30663" d="M.47,44a1.021,1.021,0,0,1-.464-.875q.017-7.447.008-14.894V27.9H1.459V42.535h10.71a2.26,2.26,0,0,0,2.509-2.527c0-.366,0-.732,0-1A13.906,13.906,0,0,1,12.6,37.983a13.437,13.437,0,0,1-1.62-1.626l1.341-.756a9.459,9.459,0,0,0,.995,1.072,10.6,10.6,0,0,0,1.361.789c0-.58,0-1,0-1.416.006-.581.259-.838.836-.842.809-.005,1.617,0,2.484,0-.051-.178-.083-.319-.131-.455-.946-2.654-1.9-5.3-2.832-7.963-.117-.334-.291-.391-.6-.39q-5.683.012-11.365,0a2.941,2.941,0,0,1-1.83-5.336.712.712,0,0,0,.228-.484,2.935,2.935,0,0,1,3.18-2.971c.538.025.751-.138.871-.669A16.542,16.542,0,0,1,10.6,8.119,16.456,16.456,0,0,1,23.1,3.706,16.835,16.835,0,0,1,38.487,16.89c.141.615.3.713.922.726.466.01.931.1,1.385.146C40.236,11.78,35.213,3.949,26.147,1.935A19.1,19.1,0,0,0,3.4,16.3L2,15.986c.062-.277.1-.53.174-.772C4.628,7.141,9.948,2.062,18.221.395a20.373,20.373,0,0,1,23.846,15.86,40,40,0,0,1,.462,4.266.685.685,0,0,0,.3.6,3.236,3.236,0,0,1,1.178,1.8v1.1l-.379.95.379.425V44H30.9c-.154-.056-.306-.118-.462-.169a3.643,3.643,0,0,1-2.56-3.477c-.006-1.176,0-2.352,0-3.528a1.41,1.41,0,0,0-.028-.16h-1.7c-.351,0-.7,0-1.054,0-.726-.007-1.032-.427-.789-1.113.684-1.938,1.379-3.873,2.069-5.809.332-.931.666-1.861,1.021-2.853l1.4.484L25.993,35.2c.857,0,1.646,0,2.435,0,.668,0,.907.241.911.907,0,.393,0,.786,0,1.183.8-.077,1.192-.367,2.33-1.7.286.157.578.315.867.477.118.066.231.139.344.207-.532,1.217-1.429,1.881-3.564,2.627a15.267,15.267,0,0,0,.1,1.844,2.063,2.063,0,0,0,2.04,1.77c3.666.024,7.331.005,11,0,.012,0,.025-.015.064-.04V26.4H30.961a2.942,2.942,0,0,1-1.839-5.347.663.663,0,0,0,.213-.447,2.941,2.941,0,0,1,3.29-2.992c.494.035.711-.215.546-.673a11.387,11.387,0,0,0-9.315-7.951,11.6,11.6,0,0,0-12.973,7.854c-.2.592-.04.773.591.772.451,0,.9.068,1.353.106,1.8-4.523,5.081-7.007,10.061-6.657a9.177,9.177,0,0,1,7.787,5.445,1,1,0,0,1-.15.127c-.372.175-.745.346-1.167.541-.077-.137-.151-.262-.219-.39a8.06,8.06,0,0,0-14.881,1.545.979.979,0,0,0,.077.858,1.715,1.715,0,0,1,.3.9,1.706,1.706,0,0,0,.68,1.365,2.821,2.821,0,0,1,.482,3.435c.166.345.337.631.447.939,1.145,3.181,2.263,6.373,3.433,9.545.278.753.014,1.369-.928,1.306-.848-.057-1.7-.012-2.608-.012,0,1.208.012,2.379-.007,3.55a4.328,4.328,0,0,1-.154,1.171,3.6,3.6,0,0,1-2.572,2.5c-.1.03-.193.073-.289.11ZM36.734,16.109a15.351,15.351,0,0,0-29.426,0l2.129.173c2.306-5.592,6.389-8.908,12.589-8.9s10.269,3.344,12.551,8.895l2.157-.171M7.408,22.973c-.185,1.124.391,1.936,1.4,1.956,1.465.029,2.931.023,4.4,0a1.453,1.453,0,0,0,1.448-1.278A1.482,1.482,0,0,0,13.7,22.1c-.613-.259-.745-.5-.566-1.131a1.464,1.464,0,0,0-1.941-1.784c-.642.234-.847.154-1.193-.429a2.178,2.178,0,0,0-2.272-1.108,2.258,2.258,0,0,0-1.812,2.718l-1.438.376L4.4,19.092a1.428,1.428,0,0,0-1.377,1.858c.169.66.057.877-.6,1.158a1.492,1.492,0,0,0-.94,1.48A1.384,1.384,0,0,0,2.745,24.9c1.147.062,2.3.017,3.494.017A2.933,2.933,0,0,1,6.052,22.5c.193.062.338.1.48.155.285.1.569.207.875.318m24.529-.505a.9.9,0,0,1-.12-.055A1.456,1.456,0,0,0,29.423,23.9a1.5,1.5,0,0,0,1.6,1.035c.6,0,1.191,0,1.786,0h3.108c-.064-.858-.376-1.185-1.409-1.514v-1.4c1.537-.045,2.655,1.058,2.944,2.9,1.244,0,2.494.033,3.741-.012a1.411,1.411,0,0,0,1.334-1.29,1.486,1.486,0,0,0-.9-1.5c-.712-.316-.8-.486-.609-1.226a1.455,1.455,0,0,0-1.853-1.742c-.828.265-.9.233-1.361-.5a2.184,2.184,0,0,0-3.635-.125c-.6.842-.6.842-1.563.594a1.4,1.4,0,0,0-1.742,1.4,2.955,2.955,0,0,1,2.139,1l-1.058.948" transform="translate(0 0)" fill="#8eb84a"/>
        <path id="Path_30664" data-name="Path 30664" d="M344.907,330.331a1.464,1.464,0,1,1,1.458-1.448,1.453,1.453,0,0,1-1.458,1.448" transform="translate(-311.893 -297.331)" fill="#8eb84a"/>
        <path id="Path_30665" data-name="Path 30665" d="M73.434,335.685c.059.94.463,1.439,1.128,1.432s1.04-.487,1.116-1.433H77.1a2.474,2.474,0,0,1-1.1,2.451,2.415,2.415,0,0,1-2.758.087A2.511,2.511,0,0,1,72,335.685Z" transform="translate(-65.376 -304.853)" fill="#8eb84a"/>
        <path id="Path_30666" data-name="Path 30666" d="M103.5,220.649a2.89,2.89,0,0,0-1.6-1.6l.361-1.327a3.373,3.373,0,0,1,2.566,2.563l-1.325.363" transform="translate(-92.54 -197.726)" fill="#8eb84a"/>
        <path id="Path_30667" data-name="Path 30667" d="M406.716,219.226a2.306,2.306,0,0,0-1.566-1.563l.371-1.38a3.411,3.411,0,0,1,2.575,2.564l-1.38.379" transform="translate(-367.939 -196.419)" fill="#8eb84a"/>
      </g>
    </g>
  </g>
</svg>
