<svg xmlns="http://www.w3.org/2000/svg" xmlns:xlink="http://www.w3.org/1999/xlink" width="72" height="72" viewBox="0 0 72 72">
  <defs>
    <clipPath id="clip-path">
      <rect width="72" height="72" fill="none"/>
    </clipPath>
    <clipPath id="clip-path-2">
      <rect id="Rectangle_3314" data-name="Rectangle 3314" width="42.176" height="50" fill="#8eb84a"/>
    </clipPath>
  </defs>
  <g id="Repeat_Grid_3" data-name="Repeat Grid 3" clip-path="url(#clip-path)">
    <g id="Group_5681" data-name="Group 5681" transform="translate(-314 -4648.019)">
      <rect id="Rectangle_3310" data-name="Rectangle 3310" width="72" height="72" transform="translate(314 4648.019)" fill="none"/>
      <g id="Group_5694" data-name="Group 5694" transform="translate(329 4659.019)">
        <g id="Group_5693" data-name="Group 5693" clip-path="url(#clip-path-2)">
          <path id="Path_30675" data-name="Path 30675" d="M209.953,460.239a.994.994,0,0,1-.494-.977c.023-1.219.005-2.438.009-3.658,0-.54.264-.854.708-.868.465-.014.75.308.752.87,0,1.219-.014,2.439.009,3.658a.983.983,0,0,1-.5.975Z" transform="translate(-188.962 -410.239)" fill="#8eb84a"/>
          <path id="Path_30676" data-name="Path 30676" d="M7.545,6.377,8.916,7.706a16.567,16.567,0,0,1,12.3-5.329A16.531,16.531,0,0,1,33.537,7.7l1.224-1.269c-.462-.153-.933-.314-1.407-.466a1.154,1.154,0,0,1-.929-1.1,1.088,1.088,0,0,1,.932-1.1A3.265,3.265,0,0,0,36.214.929,1.044,1.044,0,0,1,37.3,0a1.127,1.127,0,0,1,1.118.906c.05.154.1.309.135.467a2.725,2.725,0,0,0,2.273,2.25,3.829,3.829,0,0,1,.6.189,1.06,1.06,0,0,1,.745,1.035,1.09,1.09,0,0,1-.757,1.078c-.412.147-.833.27-1.249.407a2.135,2.135,0,0,0-1.4,1.39c-.13.367-.236.742-.357,1.112a1.17,1.17,0,0,1-1.125.911,1.152,1.152,0,0,1-1.075-.905c-.124-.383-.247-.768-.376-1.172L34.659,8.94c4.5,6.667,4.509,13.41-.043,20.2l1.237,1.157c.112-.353.236-.754.367-1.153a1.135,1.135,0,0,1,1.1-.869,1.031,1.031,0,0,1,1.056.846,3.363,3.363,0,0,0,2.979,2.956,1.01,1.01,0,0,1,.819,1.073,1.084,1.084,0,0,1-.823,1.078c-.383.132-.775.239-1.158.37a2.191,2.191,0,0,0-1.43,1.426c-.126.368-.234.742-.357,1.112a1.123,1.123,0,0,1-2.188.008c-.071-.216-.139-.433-.2-.653a2.6,2.6,0,0,0-2.051-2.049,6.86,6.86,0,0,1-.743-.229,1.113,1.113,0,0,1,.017-2.143c.5-.171,1.012-.327,1.513-.488l-1.242-1.2c-.624.544-1.278,1.206-2.023,1.741-.921.66-1.906,1.233-2.888,1.8a.654.654,0,0,0-.4.664c.019,1.465.01,2.93.008,4.394A1.28,1.28,0,0,1,26.8,40.4c-.535.01-1.07,0-1.672,0v.71c0,1.107,0,2.214,0,3.32,0,.691-.257,1.055-.732,1.058s-.754-.369-.754-1.044q0-1.758,0-3.516v-.5H21.966c0,.427,0,.859,0,1.291-.007.519-.3.85-.737.845s-.716-.336-.722-.861c0-.419,0-.838,0-1.278H18.832v.52c0,1.2,0,2.409,0,3.613,0,.584-.307.945-.767.931-.438-.014-.709-.355-.712-.926-.006-1.188,0-2.376,0-3.565v-.6c-.593,0-1.14,0-1.686,0-1.1,0-1.581-.478-1.584-1.573,0-1.465.007-2.93-.012-4.394a.653.653,0,0,0-.243-.5A17.328,17.328,0,0,1,8.987,30.36a.391.391,0,0,0-.095-.051L7.646,31.652c.346.115.734.248,1.125.371A1.18,1.18,0,0,1,9.75,33.14a1.193,1.193,0,0,1-.973,1.129,2.419,2.419,0,0,1-.279.086A2.8,2.8,0,0,0,6.084,36.7c-.027.127-.071.25-.111.373a1.11,1.11,0,0,1-1.1.926,1.133,1.133,0,0,1-1.138-.947,3.153,3.153,0,0,1-.1-.327,2.8,2.8,0,0,0-2.387-2.375A3.031,3.031,0,0,1,.7,34.177,1.043,1.043,0,0,1,0,33.163a1.03,1.03,0,0,1,.712-1.054c.394-.149.8-.259,1.2-.391a2.23,2.23,0,0,0,1.519-1.524q.166-.534.346-1.064a1.117,1.117,0,0,1,2.172-.007c.159.473.309.949.465,1.428l1.359-1.364c-.717-1.375-1.541-2.709-2.121-4.142a30.684,30.684,0,0,1-1.042-3.841,1.462,1.462,0,0,1-.023-.34.748.748,0,0,1,.642-.834c.41-.049.716.25.824.718.277,1.2.515,2.414.891,3.582A12.522,12.522,0,0,0,9,28.064c.605-.606,1.175-1.181,1.75-1.751.419-.416.874-.468,1.194-.144s.286.755-.152,1.192c-.608.608-1.224,1.207-1.858,1.831a14.659,14.659,0,0,0,3.976,3.1c.215-.484.308-1.062.647-1.357a4.383,4.383,0,0,1,1.506-.506,2.6,2.6,0,0,0,.022-.293c0-1.09.016-2.181-.011-3.271a.948.948,0,0,0-.277-.611A8.1,8.1,0,0,1,12.984,20.1c-.015-2.572-.01-5.143,0-7.715a2.307,2.307,0,0,1,2.423-2.419c.479,0,.959.081,1.524.132a2.334,2.334,0,0,1,1.737-1.27,2.855,2.855,0,0,1,2.186.375c1.985-1.414,3.587-1.176,4.624.628a11.211,11.211,0,0,1,1.6-.106,2.366,2.366,0,0,1,2.276,2.5c.013,1.335-.013,2.67.017,4a1.3,1.3,0,0,0,.309.756c.4.465.875.872,1.3,1.317a2.345,2.345,0,0,1-.118,3.537c-.5.461-1.01.921-1.521,1.375-.44.391-.835.409-1.159.066s-.249-.793.185-1.187c.494-.448,1-.885,1.488-1.338a.883.883,0,0,0,.043-1.436q-1.635-1.644-3.289-3.27a.97.97,0,0,0-1.563.05.929.929,0,0,0-.017,1.516q.875.885,1.768,1.753a.8.8,0,0,1,.283.913.82.82,0,0,1-.872.49c-.342,0-.684-.011-1.025,0a1.7,1.7,0,0,0-1.708,1.554c0,.016-.006.032-.008.048-.1.71-.367,1.013-.842.955-.509-.063-.736-.514-.629-1.223a3.108,3.108,0,0,1,2.3-2.68,1.854,1.854,0,0,0,.182-.069.591.591,0,0,0,.084-.055c-.362-.414-.715-.834-1.09-1.234-.073-.078-.228-.087-.349-.109-.579-.1-1.159-.2-1.848-.313a2.953,2.953,0,0,1-3.31.531c-.784,1.456-2.068,1.555-3.522,1.26a6.732,6.732,0,0,0,2.539,5.854,1.365,1.365,0,0,1,.58,1.2c-.03,1.334-.01,2.668-.01,4.044h2.828c0-.808-.011-1.617,0-2.425a.715.715,0,0,1,.9-.747.746.746,0,0,1,.566.808c0,.779,0,1.558,0,2.371h2.9c0-.178,0-.352,0-.526,0-1.2.02-2.409-.005-3.613a2.217,2.217,0,0,1,.938-1.884.721.721,0,0,1,1.012.022.67.67,0,0,1-.017,1.036,1.359,1.359,0,0,0-.446,1.208c.017,1.248.006,2.5.006,3.742,1.489.077,1.888.157,2.018,1.917A15.392,15.392,0,0,0,32.529,29.2l-1.588-1.586c-.138-.138-.283-.27-.41-.419a.732.732,0,0,1,1.038-1.031c.542.516,1.064,1.053,1.595,1.581.091.09.187.175.281.263a14.786,14.786,0,0,0-.022-18.044c-.572.582-1.136,1.164-1.709,1.737-.433.433-.856.471-1.189.125-.314-.327-.269-.744.137-1.155.594-.6,1.192-1.2,1.788-1.8a.234.234,0,0,0,.027-.041c-5.571-6.477-16.512-6.763-22.513,0,.606.6,1.216,1.206,1.822,1.814.439.441.488.852.153,1.19s-.75.3-1.189-.143c-.572-.573-1.137-1.152-1.736-1.76-.134.174-.236.3-.328.427a15.17,15.17,0,0,0-2.622,6.746c-.087.628-.368.9-.837.852-.485-.052-.713-.446-.619-1.123A16.562,16.562,0,0,1,7.584,9.353l.291-.405L6.407,7.505c-.143.436-.3.918-.459,1.4a1.08,1.08,0,0,1-1.54.72,1.766,1.766,0,0,1-.591-.669,2.955,2.955,0,0,1-.253-.784A2.6,2.6,0,0,0,1.538,6.155,6.05,6.05,0,0,1,.7,5.9,1.052,1.052,0,0,1,0,4.834,1.042,1.042,0,0,1,.712,3.826c.407-.159.833-.27,1.248-.408A2.2,2.2,0,0,0,3.42,1.959c.124-.369.236-.742.36-1.11a1.12,1.12,0,0,1,2.172,0q.185.554.362,1.11A2.179,2.179,0,0,0,7.766,3.417c.383.131.773.244,1.156.377A1.111,1.111,0,0,1,8.9,5.948c-.427.142-.859.272-1.357.429M26.737,32.091H15.628V38.86h1.726c0-.751-.014-1.465,0-2.177a.7.7,0,0,1,.806-.759.736.736,0,0,1,.665.817c.011.71,0,1.42,0,2.134H20.5c0-.7,0-1.381,0-2.06,0-.574.265-.894.727-.9s.731.311.734.887c0,.679,0,1.359,0,2.063H23.64c0-.743-.036-1.458.019-2.166a1.029,1.029,0,0,1,.421-.695.752.752,0,0,1,.711.059,1.18,1.18,0,0,1,.321.756c.043.675.014,1.355.014,2.037h1.611ZM14.446,14.745c0,.781-.008,1.563,0,2.344.009.678.363.988,1.1.991.778,0,1.143-.3,1.147-.993q.013-2.319,0-4.639c0-.7-.37-1.026-1.125-1.026s-1.115.323-1.122,1.029c-.008.765,0,1.53,0,2.295m5.966-1.12c0-.781,0-1.562,0-2.343-.006-.686-.36-1.017-1.076-1.026-.755-.009-1.16.315-1.167.995q-.022,2.343,0,4.686c.006.7.388.992,1.209.981.7-.01,1.028-.319,1.033-1,.006-.765,0-1.529,0-2.294m1.479-.475c0,.763-.011,1.527,0,2.29a.923.923,0,0,0,1.025,1.022.536.536,0,0,0,.33-.239c.242-.359.47-.729.68-1.107a1.283,1.283,0,0,0,.192-.564c.017-1.218.011-2.437.008-3.655,0-.789-.3-1.087-1.09-1.092-.81-.005-1.139.305-1.147,1.1-.008.747,0,1.494,0,2.242M4.862,7.3A3.966,3.966,0,0,1,7.333,4.858,3.856,3.856,0,0,1,4.852,2.275,3.74,3.74,0,0,1,2.313,4.862,3.891,3.891,0,0,1,4.862,7.3M39.886,4.862A3.817,3.817,0,0,1,37.3,2.291a3.8,3.8,0,0,1-2.577,2.577,3.765,3.765,0,0,1,2.589,2.588,3.772,3.772,0,0,1,2.572-2.595M4.919,30.726a9.717,9.717,0,0,1-1.034,1.481,9.206,9.206,0,0,1-1.458.991,3.665,3.665,0,0,1,2.44,2.536,3.777,3.777,0,0,1,2.591-2.595,3.66,3.66,0,0,1-2.538-2.414m32.362,4.9c.925-1.678.925-1.678,2.547-2.51a3.733,3.733,0,0,1-2.523-2.562,3.757,3.757,0,0,1-2.586,2.59,3.716,3.716,0,0,1,2.562,2.482M27.828,15.173c0-1.187.028-2.248-.014-3.307-.017-.434-.418-.651-.984-.661-.7-.012-1.11.168-1.146.637-.059.766-.016,1.54-.016,2.326a2.737,2.737,0,0,1,2.16,1" transform="translate(0 0)" fill="#8eb84a"/>
        </g>
      </g>
    </g>
  </g>
</svg>
